<svg id="Ebene_1" data-name="Ebene 1" xmlns="http://www.w3.org/2000/svg" xmlns:xlink="http://www.w3.org/1999/xlink" viewBox="0 0 516.8 285.2"><defs><style>.cls-1,.cls-5{fill:#f6f6f6;}.cls-2{fill:#fcfcf9;}.cls-3{fill:#fff;}.cls-4{fill:none;stroke:#fcfcf9;}.cls-4,.cls-5{stroke-miterlimit:10;}.cls-5{stroke:#f6f6f6;}.cls-6{fill:#e65a1e;}.cls-10,.cls-11,.cls-12,.cls-13,.cls-7,.cls-8{fill:#2846a0;}.cls-8{fill-rule:evenodd;}.cls-11,.cls-9{opacity:0.7;}.cls-9{fill:url(#Unbenannter_Verlauf_10);}.cls-10{opacity:0.9;}.cls-12{opacity:0.6;}.cls-13{opacity:0.5;}</style><linearGradient id="Unbenannter_Verlauf_10" x1="230.91" y1="195.44" x2="230.91" y2="226.63" gradientUnits="userSpaceOnUse"><stop offset="0" stop-color="#2846a0"/><stop offset="1" stop-color="#2846a0" stop-opacity="0.5"/></linearGradient></defs><title>beehive-v3</title><path class="cls-1" d="M301.26,256.77a.54.54,0,0,1-.22,0l-.5-.25a.5.5,0,0,1,.44-.89l.28.13.18-.09a.5.5,0,1,1,.44.9l-.4.2A.59.59,0,0,1,301.26,256.77Zm3.1-1.52a.5.5,0,0,1-.23-.95l.9-.44a.5.5,0,1,1,.44.89l-.89.44A.49.49,0,0,1,304.36,255.25Zm-6.29,0a.59.59,0,0,1-.22-.05l-.9-.44a.5.5,0,0,1,.44-.9l.9.44a.5.5,0,0,1,.23.67A.52.52,0,0,1,298.07,255.21Zm9.88-1.73a.48.48,0,0,1-.45-.28.5.5,0,0,1,.22-.67l.9-.44a.5.5,0,1,1,.44.9l-.89.44A.47.47,0,0,1,308,253.48Zm-13.47,0a.54.54,0,0,1-.22,0l-.9-.44a.5.5,0,0,1,.44-.9l.9.44a.5.5,0,0,1-.22.95Zm17.06-1.73a.48.48,0,0,1-.45-.28.5.5,0,0,1,.22-.67l.9-.44a.5.5,0,1,1,.44.9l-.89.44A.63.63,0,0,1,311.54,251.72Zm-20.66,0a.44.44,0,0,1-.22-.05l-.9-.44a.5.5,0,0,1,.44-.9l.9.44a.5.5,0,0,1,.23.67A.48.48,0,0,1,290.88,251.69ZM315.13,250a.49.49,0,0,1-.45-.27.5.5,0,0,1,.23-.67l.89-.45a.52.52,0,0,1,.67.23.5.5,0,0,1-.23.67l-.89.44A.44.44,0,0,1,315.13,250Zm-27.84,0a.59.59,0,0,1-.22-.05l-.9-.44a.5.5,0,1,1,.44-.9l.9.44a.5.5,0,0,1,.23.67A.52.52,0,0,1,287.29,249.94Zm31.43-1.75a.48.48,0,0,1-.45-.28.5.5,0,0,1,.23-.67l.89-.44a.5.5,0,1,1,.44.9l-.89.44A.59.59,0,0,1,318.72,248.19Zm-35,0a.54.54,0,0,1-.22-.05l-.9-.44a.5.5,0,0,1,.44-.9l.9.44a.5.5,0,0,1-.22,1Zm38.61-1.75a.49.49,0,0,1-.45-.28.5.5,0,0,1,.23-.67L323,245a.5.5,0,0,1,.67.23.49.49,0,0,1-.23.66l-.89.45A.59.59,0,0,1,322.31,246.43Zm-42.21,0a.59.59,0,0,1-.22,0l-.89-.44a.5.5,0,0,1,.43-.9l.9.44a.5.5,0,0,1,.23.67A.49.49,0,0,1,280.1,246.42Zm45.8-1.76a.49.49,0,0,1-.22-.94l.89-.45a.5.5,0,1,1,.44.9l-.89.44A.44.44,0,0,1,325.9,244.66Zm-49.39,0a.44.44,0,0,1-.22,0l-.9-.44a.5.5,0,0,1-.23-.67.52.52,0,0,1,.67-.23l.9.44a.5.5,0,0,1-.22.95Zm-3.59-1.75a.43.43,0,0,1-.22-.06l-.9-.43a.5.5,0,1,1,.44-.9l.9.44a.51.51,0,0,1,.23.67A.52.52,0,0,1,272.92,242.91Zm56.57,0a.48.48,0,0,1-.45-.28.5.5,0,0,1,.23-.67l.89-.44a.5.5,0,0,1,.45.9l-.9.44A.59.59,0,0,1,329.49,242.9Zm-60.17-1.75a.59.59,0,0,1-.22-.05l-.89-.44a.5.5,0,0,1,.43-.9l.9.44a.5.5,0,0,1,.23.67A.48.48,0,0,1,269.32,241.15Zm63.76,0a.51.51,0,0,1-.45-.28.5.5,0,0,1,.23-.67l.89-.44a.5.5,0,0,1,.45.89l-.9.45A.59.59,0,0,1,333.08,241.14Zm-67.35-1.75a.59.59,0,0,1-.22,0l-.9-.44a.5.5,0,0,1-.23-.67.51.51,0,0,1,.67-.23l.9.44a.5.5,0,0,1-.22.95Zm70.94,0a.48.48,0,0,1-.45-.28.51.51,0,0,1,.23-.67l.89-.44a.5.5,0,0,1,.45.9l-.9.44A.44.44,0,0,1,336.67,239.37Zm-74.53-1.74a.42.42,0,0,1-.22,0l-.9-.44a.5.5,0,1,1,.44-.89l.9.43a.52.52,0,0,1,.23.67A.5.5,0,0,1,262.14,237.63Zm78.12,0a.49.49,0,0,1-.45-.28.5.5,0,0,1,.23-.67l.84-.41a.5.5,0,1,1,.44.89l-.84.42A.59.59,0,0,1,340.26,237.61Z"/><path class="cls-2" d="M379.88,256.43a.54.54,0,0,1-.22-.05l-.9-.44a.5.5,0,1,1,.44-.9l.9.44a.5.5,0,0,1-.22,1Zm2.68-.4a.5.5,0,0,1-.44-.27.49.49,0,0,1,.22-.67l.89-.45a.5.5,0,0,1,.67.22.49.49,0,0,1-.22.67l-.89.45A.46.46,0,0,1,382.56,256Zm-6.28-1.35a.59.59,0,0,1-.22-.05l-.89-.44a.5.5,0,1,1,.43-.9l.9.44a.5.5,0,0,1-.22,1Zm9.86-.45a.5.5,0,0,1-.45-.27.5.5,0,0,1,.22-.67l.89-.45a.5.5,0,0,1,.45.89l-.89.45A.44.44,0,0,1,386.14,254.23Zm-13.45-1.3a.54.54,0,0,1-.22-.05l-.9-.44a.5.5,0,1,1,.44-.9l.9.44a.51.51,0,0,1,.23.67A.52.52,0,0,1,372.69,252.93Zm17-.5a.5.5,0,0,1-.23-.94l.9-.45a.49.49,0,0,1,.67.22.51.51,0,0,1-.22.67l-.9.45A.44.44,0,0,1,389.71,252.43Zm-20.62-1.25a.59.59,0,0,1-.22-.05l-.9-.44a.5.5,0,1,1,.44-.9l.9.44a.5.5,0,0,1,.23.67A.52.52,0,0,1,369.09,251.18Zm24.19-.55a.51.51,0,0,1-.45-.27.52.52,0,0,1,.22-.68l.9-.45a.5.5,0,0,1,.45.9l-.9.45A.54.54,0,0,1,393.28,250.63Zm-27.79-1.2a.42.42,0,0,1-.21-.06l-.9-.43a.5.5,0,0,1,.43-.9l.9.44a.5.5,0,0,1-.22,1Zm31.36-.6a.5.5,0,0,1-.22-1l.89-.45a.51.51,0,0,1,.67.22.52.52,0,0,1-.22.68l-.89.45A.64.64,0,0,1,396.85,248.83Zm-35-1.16a.42.42,0,0,1-.22,0l-.9-.44a.49.49,0,0,1-.23-.66.5.5,0,0,1,.67-.23l.9.43a.5.5,0,0,1-.22.95Zm38.52-.64a.48.48,0,0,1-.44-.28.49.49,0,0,1,.22-.67l.89-.45a.5.5,0,0,1,.45.9l-.89.45A.59.59,0,0,1,400.42,247Zm-42.12-1.11a.44.44,0,0,1-.22,0l-.9-.44a.5.5,0,1,1,.44-.89l.9.43a.5.5,0,0,1,.23.67A.49.49,0,0,1,358.3,245.92Zm45.69-.69a.5.5,0,0,1-.22-.95l.89-.45a.5.5,0,0,1,.67.22.49.49,0,0,1-.22.67l-.89.46A.59.59,0,0,1,404,245.23Zm-49.28-1.06a.42.42,0,0,1-.22,0l-.9-.44a.5.5,0,0,1,.43-.9l.9.44a.49.49,0,0,1,.23.67A.48.48,0,0,1,354.71,244.17Zm52.86-.74a.49.49,0,0,1-.45-.28.5.5,0,0,1,.22-.67l.89-.45a.5.5,0,0,1,.67.22.49.49,0,0,1-.22.67l-.89.45A.46.46,0,0,1,407.57,243.43Zm-56.46-1a.54.54,0,0,1-.22,0l-.9-.44a.5.5,0,0,1,.44-.9l.9.44a.5.5,0,0,1-.22.95Zm60-.79a.49.49,0,0,1-.45-.28.5.5,0,0,1,.22-.67l.9-.45a.5.5,0,1,1,.44.89l-.89.45A.46.46,0,0,1,411.14,241.63Zm-63.63-1a.59.59,0,0,1-.22,0l-.9-.44a.5.5,0,1,1,.44-.9l.9.44a.5.5,0,0,1,.23.67A.49.49,0,0,1,347.51,240.67Zm67.2-.84a.52.52,0,0,1-.45-.28.5.5,0,0,1,.22-.67l.9-.45a.5.5,0,0,1,.45.89l-.9.45A.43.43,0,0,1,414.71,239.83Zm-70.79-.91a.54.54,0,0,1-.22,0l-.9-.44a.5.5,0,0,1,.44-.9l.89.44a.5.5,0,0,1,.24.67A.52.52,0,0,1,343.92,238.92Zm74.36-.9a.51.51,0,0,1-.45-.27.5.5,0,0,1,.22-.67l.9-.45a.49.49,0,0,1,.67.22.5.5,0,0,1-.22.67l-.89.45A.48.48,0,0,1,418.28,238ZM340.65,237a.51.51,0,0,1-.5-.5v-1a.5.5,0,0,1,.5-.5.5.5,0,0,1,.5.5v1A.5.5,0,0,1,340.65,237ZM421,235.68a.5.5,0,0,1-.5-.5v-1a.5.5,0,0,1,.5-.5h0a.49.49,0,0,1,.5.49v1a.5.5,0,0,1-.5.51ZM340.65,233a.51.51,0,0,1-.5-.5v-1a.5.5,0,0,1,.5-.5.5.5,0,0,1,.5.5v1A.5.5,0,0,1,340.65,233Zm80.28-1.28a.5.5,0,0,1-.5-.5v-1a.5.5,0,0,1,.5-.5h0a.49.49,0,0,1,.5.49v1a.5.5,0,0,1-.5.51ZM340.65,229a.51.51,0,0,1-.5-.5v-1a.5.5,0,0,1,.5-.5.5.5,0,0,1,.5.5v1A.5.5,0,0,1,340.65,229Zm80.25-1.28a.5.5,0,0,1-.5-.5v-1a.49.49,0,0,1,.49-.5h0a.51.51,0,0,1,.5.49v1a.5.5,0,0,1-.49.51ZM340.65,225a.51.51,0,0,1-.5-.5v-1a.5.5,0,0,1,.5-.5.5.5,0,0,1,.5.5v1A.5.5,0,0,1,340.65,225Zm80.23-1.28a.5.5,0,0,1-.5-.5v-1a.5.5,0,0,1,.49-.5h0a.5.5,0,0,1,.5.49v1a.5.5,0,0,1-.5.51ZM340.65,221a.51.51,0,0,1-.5-.5v-1a.5.5,0,0,1,.5-.5.5.5,0,0,1,.5.5v1A.5.5,0,0,1,340.65,221Zm80.2-1.28a.5.5,0,0,1-.5-.5v-1a.5.5,0,0,1,.5-.5h0a.5.5,0,0,1,.5.49v1a.5.5,0,0,1-.5.51ZM340.65,217a.51.51,0,0,1-.5-.5v-1a.5.5,0,0,1,.5-.5.5.5,0,0,1,.5.5v1A.5.5,0,0,1,340.65,217Zm80.17-1.28a.5.5,0,0,1-.5-.5v-1a.5.5,0,0,1,.5-.5h0a.49.49,0,0,1,.5.49v1a.5.5,0,0,1-.5.51ZM340.65,213a.51.51,0,0,1-.5-.5v-1a.5.5,0,0,1,.5-.5.5.5,0,0,1,.5.5v1A.5.5,0,0,1,340.65,213Zm80.14-1.28a.5.5,0,0,1-.5-.5v-1a.5.5,0,0,1,.5-.5h0a.5.5,0,0,1,.5.5v1a.5.5,0,0,1-.5.5ZM340.65,209a.51.51,0,0,1-.5-.5v-1a.5.5,0,0,1,.5-.5.5.5,0,0,1,.5.5v1A.5.5,0,0,1,340.65,209Zm80.11-1.28a.5.5,0,0,1-.5-.5v-1a.5.5,0,0,1,.5-.5h0a.5.5,0,0,1,.5.5v1a.5.5,0,0,1-.49.5ZM340.65,205a.51.51,0,0,1-.5-.5v-1a.5.5,0,0,1,.5-.5.5.5,0,0,1,.5.5v1A.5.5,0,0,1,340.65,205Zm80.08-1.28a.51.51,0,0,1-.5-.5v-1a.5.5,0,0,1,.49-.5h0a.5.5,0,0,1,.5.5v1a.49.49,0,0,1-.49.5ZM340.65,201a.51.51,0,0,1-.5-.5v-1a.5.5,0,0,1,.5-.5.5.5,0,0,1,.5.5v1A.5.5,0,0,1,340.65,201Zm80.06-1.28a.5.5,0,0,1-.5-.5v-1a.5.5,0,0,1,.5-.5h0a.5.5,0,0,1,.5.5v1a.5.5,0,0,1-.5.5ZM340.65,197a.51.51,0,0,1-.5-.5v-1a.5.5,0,0,1,.5-.5.5.5,0,0,1,.5.5v1A.5.5,0,0,1,340.65,197Zm80-1.28a.5.5,0,0,1-.5-.5v-1a.5.5,0,0,1,.5-.5h0a.5.5,0,0,1,.5.5v1a.5.5,0,0,1-.5.5Zm-80-2.72a.51.51,0,0,1-.5-.5v-1a.5.5,0,0,1,.5-.5.5.5,0,0,1,.5.5v1A.5.5,0,0,1,340.65,193Zm80-1.28a.5.5,0,0,1-.5-.5v-1a.5.5,0,0,1,.5-.5h0a.5.5,0,0,1,.5.5v1a.5.5,0,0,1-.5.5Zm-80-2.72a.51.51,0,0,1-.5-.5v-1a.5.5,0,0,1,.5-.5.5.5,0,0,1,.5.5v1A.5.5,0,0,1,340.65,189Zm80-1.28a.5.5,0,0,1-.5-.5v-.53a.48.48,0,0,1-.11-.6.5.5,0,0,1,.67-.21l.16.08a.49.49,0,0,1,.28.44v.82a.5.5,0,0,1-.49.5Zm-2.85-2.25a.59.59,0,0,1-.22-.05l-.9-.46a.5.5,0,0,1-.22-.67.52.52,0,0,1,.68-.22l.89.45a.51.51,0,0,1,.22.67A.49.49,0,0,1,417.77,185.43Zm-3.57-1.8a.46.46,0,0,1-.22-.06l-.9-.45a.5.5,0,1,1,.46-.89l.89.45a.5.5,0,0,1,.22.67A.52.52,0,0,1,414.2,183.63Zm-3.57-1.81a.44.44,0,0,1-.22,0l-.9-.45a.51.51,0,0,1-.22-.67.49.49,0,0,1,.67-.22l.9.45a.5.5,0,0,1,.22.67A.51.51,0,0,1,410.63,181.82Zm-3.57-1.8a.59.59,0,0,1-.22-.05l-.9-.45a.52.52,0,0,1-.22-.68.51.51,0,0,1,.67-.22l.9.45a.51.51,0,0,1,.22.67A.5.5,0,0,1,407.06,180Zm-3.57-1.8a.49.49,0,0,1-.23-.06l-.89-.45a.5.5,0,1,1,.45-.89l.9.45a.5.5,0,0,1-.23.95Zm-3.57-1.81a.48.48,0,0,1-.23,0l-.89-.45a.51.51,0,0,1-.22-.67.49.49,0,0,1,.67-.22l.9.45a.5.5,0,0,1,.22.67A.51.51,0,0,1,399.92,176.41Zm-3.57-1.8a.64.64,0,0,1-.23-.05l-.89-.45a.52.52,0,0,1-.22-.68.51.51,0,0,1,.67-.22l.9.45a.52.52,0,0,1,.22.68A.51.51,0,0,1,396.35,174.61Zm-3.57-1.8a.49.49,0,0,1-.23-.06l-.89-.45a.5.5,0,0,1-.22-.67.5.5,0,0,1,.67-.22l.89.45a.5.5,0,0,1-.22.95ZM389.21,171A.48.48,0,0,1,389,171l-.89-.45a.5.5,0,0,1-.22-.67.49.49,0,0,1,.67-.22l.89.45a.5.5,0,0,1,.23.67A.51.51,0,0,1,389.21,171Zm-3.57-1.8a.59.59,0,0,1-.23,0l-.89-.45a.5.5,0,0,1,.45-.9l.89.45a.5.5,0,0,1,.22.68A.49.49,0,0,1,385.64,169.2Zm-3.57-1.8a.46.46,0,0,1-.23-.06l-.89-.45a.49.49,0,0,1-.22-.67.5.5,0,0,1,.67-.22l.89.45a.49.49,0,0,1,.22.67A.48.48,0,0,1,382.07,167.4Z"/><path class="cls-2" d="M423,185.68a.5.5,0,0,1-.22-1l.9-.44a.5.5,0,0,1,.44.9l-.9.44A.44.44,0,0,1,423,185.68Zm3.59-1.76a.5.5,0,0,1-.22-.95l.9-.44a.5.5,0,1,1,.44.9l-.9.44A.59.59,0,0,1,426.61,183.92Zm3.59-1.77a.51.51,0,0,1-.45-.27.5.5,0,0,1,.23-.67l.9-.44a.51.51,0,0,1,.67.22.5.5,0,0,1-.23.67l-.9.44A.44.44,0,0,1,430.2,182.15Zm3.59-1.76a.5.5,0,0,1-.22-.95l.9-.44a.5.5,0,1,1,.44.9l-.9.44A.59.59,0,0,1,433.79,180.39Zm3.59-1.76a.52.52,0,0,1-.45-.28.5.5,0,0,1,.23-.67l.9-.44a.5.5,0,0,1,.67.23.49.49,0,0,1-.23.66l-.9.45A.54.54,0,0,1,437.38,178.63Zm3.59-1.77a.5.5,0,0,1-.22-1l.9-.44a.5.5,0,1,1,.44.9l-.9.44A.44.44,0,0,1,441,176.86Zm3.59-1.76a.5.5,0,0,1-.22-.95l.9-.44a.5.5,0,1,1,.44.9l-.9.44A.59.59,0,0,1,444.56,175.1Zm3.59-1.77a.51.51,0,0,1-.45-.27.5.5,0,0,1,.23-.67l.9-.45a.52.52,0,0,1,.67.23.5.5,0,0,1-.23.67l-.9.44A.44.44,0,0,1,448.15,173.33Zm3.59-1.76a.5.5,0,0,1-.22-.95l.9-.44a.5.5,0,1,1,.44.9l-.9.44A.59.59,0,0,1,451.74,171.57Zm3.59-1.76a.52.52,0,0,1-.45-.28.5.5,0,0,1,.23-.67l.9-.44a.51.51,0,0,1,.67.22.5.5,0,0,1-.23.67l-.9.45A.59.59,0,0,1,455.33,169.81Zm3.59-1.77a.5.5,0,0,1-.22-.95l.9-.44a.5.5,0,1,1,.44.9l-.9.44A.44.44,0,0,1,458.92,168Zm2.24-2.6a.5.5,0,0,1-.5-.5v-1a.5.5,0,0,1,1,0v1A.5.5,0,0,1,461.16,165.44Zm0-4a.5.5,0,0,1-.5-.5v-1a.5.5,0,0,1,1,0v1A.5.5,0,0,1,461.16,161.44Zm0-4a.5.5,0,0,1-.5-.5v-1a.5.5,0,0,1,1,0v1A.5.5,0,0,1,461.16,157.44Zm0-4a.5.5,0,0,1-.5-.5v-1a.5.5,0,0,1,1,0v1A.5.5,0,0,1,461.16,153.44Zm0-4a.5.5,0,0,1-.5-.5v-1a.5.5,0,0,1,1,0v1A.5.5,0,0,1,461.16,149.44Zm0-4a.5.5,0,0,1-.5-.5v-1a.5.5,0,0,1,1,0v1A.5.5,0,0,1,461.16,145.44Zm0-4a.5.5,0,0,1-.5-.5v-1a.5.5,0,0,1,1,0v1A.5.5,0,0,1,461.16,141.44Zm0-4a.5.5,0,0,1-.5-.5v-1a.5.5,0,0,1,1,0v1A.5.5,0,0,1,461.16,137.44Zm0-4a.5.5,0,0,1-.5-.5v-1a.5.5,0,0,1,1,0v1A.5.5,0,0,1,461.16,133.44Zm0-4a.5.5,0,0,1-.5-.5v-1a.5.5,0,0,1,1,0v1A.5.5,0,0,1,461.16,129.44Zm0-4a.5.5,0,0,1-.5-.5v-1a.5.5,0,0,1,1,0v1A.5.5,0,0,1,461.16,125.44Zm0-4a.5.5,0,0,1-.5-.5v-1a.5.5,0,0,1,1,0v1A.5.5,0,0,1,461.16,121.44Zm0-4a.5.5,0,0,1-.5-.5v-1a.5.5,0,0,1,1,0v1A.5.5,0,0,1,461.16,117.44Z"/><path class="cls-2" d="M500.83,186.86a.42.42,0,0,1-.22-.05l-.35-.17A.51.51,0,0,1,500,186a.52.52,0,0,1,.68-.22l.34.18a.5.5,0,0,1,.23.67A.51.51,0,0,1,500.83,186.86Zm-3-1.52a.48.48,0,0,1-.23-.05l-.89-.45a.5.5,0,0,1-.22-.67.49.49,0,0,1,.67-.22l.89.44a.5.5,0,0,1-.22,1Zm-3.58-1.79a.46.46,0,0,1-.22-.06l-.89-.45a.5.5,0,0,1-.23-.67.51.51,0,0,1,.68-.22l.89.45a.5.5,0,0,1-.23,1Zm-3.57-1.8a.42.42,0,0,1-.22-.05l-.9-.45a.5.5,0,0,1-.22-.67.49.49,0,0,1,.67-.22l.9.45a.5.5,0,0,1,.22.67A.51.51,0,0,1,490.65,181.75ZM487.08,180a.46.46,0,0,1-.23-.06l-.89-.44a.51.51,0,0,1-.23-.68.52.52,0,0,1,.68-.22l.89.45a.5.5,0,0,1-.22,1Zm-3.58-1.8a.54.54,0,0,1-.22,0l-.9-.45a.5.5,0,0,1-.22-.67.49.49,0,0,1,.67-.22l.9.44a.52.52,0,0,1,.22.68A.51.51,0,0,1,483.5,178.16Zm-3.57-1.79a.46.46,0,0,1-.23-.06l-.89-.45a.5.5,0,1,1,.45-.89l.89.45a.49.49,0,0,1,.22.67A.48.48,0,0,1,479.93,176.37Zm-3.58-1.8a.44.44,0,0,1-.22,0l-.9-.45a.51.51,0,0,1-.22-.67.49.49,0,0,1,.67-.22l.9.45a.5.5,0,0,1,.22.67A.51.51,0,0,1,476.35,174.57Zm-3.57-1.79a.49.49,0,0,1-.23-.06l-.89-.45a.49.49,0,0,1-.22-.67.5.5,0,0,1,.67-.22l.89.45a.49.49,0,0,1,.22.67A.48.48,0,0,1,472.78,172.78ZM469.2,171a.59.59,0,0,1-.22,0l-.89-.45a.5.5,0,0,1-.23-.67.49.49,0,0,1,.67-.22l.9.44a.52.52,0,0,1,.22.68A.5.5,0,0,1,469.2,171Zm-3.57-1.79a.49.49,0,0,1-.23-.06l-.89-.45a.5.5,0,0,1,.45-.89l.89.45a.49.49,0,0,1,.22.67A.48.48,0,0,1,465.63,169.19Zm-3.58-1.8a.59.59,0,0,1-.22,0l-.89-.45a.51.51,0,0,1-.23-.67.49.49,0,0,1,.67-.22l.9.44a.51.51,0,0,1,.22.68A.5.5,0,0,1,462.05,167.39Z"/><polygon class="cls-3" points="180.98 186.46 140.37 166.48 140.37 116.67 140.64 116.53 180.95 96 181.4 96.89 141.37 117.28 141.37 165.86 181.42 185.57 180.98 186.46"/><path class="cls-1" d="M21.25,186.91a.5.5,0,0,1-.45-.28A.51.51,0,0,1,21,186l.9-.44a.49.49,0,0,1,.67.22.5.5,0,0,1-.22.67l-.9.45A.59.59,0,0,1,21.25,186.91Zm79.74-.39a.43.43,0,0,1-.22-.06l-.9-.44a.5.5,0,0,1-.23-.67.49.49,0,0,1,.67-.22l.9.44a.49.49,0,0,1,.22.67A.5.5,0,0,1,101,186.52Zm-76.16-1.4a.5.5,0,0,1-.45-.27.52.52,0,0,1,.22-.68l.9-.44a.49.49,0,0,1,.67.22.5.5,0,0,1-.23.67l-.89.45A.59.59,0,0,1,24.83,185.12Zm72.57-.37a.54.54,0,0,1-.22-.05l-.9-.44a.5.5,0,0,1,.44-.9l.9.44a.49.49,0,0,1,.22.67A.48.48,0,0,1,97.4,184.75Zm-69-1.42a.5.5,0,0,1-.22-.94l.89-.45a.5.5,0,1,1,.45.89l-.89.45A.48.48,0,0,1,28.4,183.33ZM93.81,183a.43.43,0,0,1-.22-.06l-.9-.44a.5.5,0,1,1,.44-.89l.9.44a.51.51,0,0,1,.23.67A.52.52,0,0,1,93.81,183ZM32,181.54a.51.51,0,0,1-.45-.27.5.5,0,0,1,.23-.67l.89-.45a.5.5,0,0,1,.67.22.49.49,0,0,1-.22.67l-.89.45A.48.48,0,0,1,32,181.54Zm58.24-.32a.42.42,0,0,1-.22-.05l-.9-.44a.5.5,0,1,1,.44-.9l.9.44a.5.5,0,0,1-.22.95Zm-54.66-1.47a.51.51,0,0,1-.45-.27.5.5,0,0,1,.23-.67l.89-.45a.5.5,0,0,1,.67.22.5.5,0,0,1-.22.67l-.9.45A.44.44,0,0,1,35.56,179.75Zm51.07-.29a.54.54,0,0,1-.22-.05l-.9-.45a.49.49,0,0,1-.23-.66.5.5,0,0,1,.67-.23l.9.44a.5.5,0,0,1,.23.67A.52.52,0,0,1,86.63,179.46ZM39.14,178a.51.51,0,0,1-.45-.28.5.5,0,0,1,.22-.67l.9-.45a.5.5,0,0,1,.67.23.51.51,0,0,1-.23.67l-.89.44A.46.46,0,0,1,39.14,178Zm43.9-.28a.42.42,0,0,1-.22-.05l-.9-.44a.5.5,0,0,1,.44-.9l.9.44a.5.5,0,0,1-.22.95Zm-40.33-1.51a.5.5,0,0,1-.22-1l.9-.45a.5.5,0,1,1,.44.9l-.89.44A.46.46,0,0,1,42.71,176.18Zm36.74-.25a.54.54,0,0,1-.22-.05l-.9-.45a.49.49,0,0,1-.23-.66.5.5,0,0,1,.67-.23l.9.44a.5.5,0,0,1-.22,1Zm-33.16-1.54a.5.5,0,0,1-.22-.95L47,173a.5.5,0,0,1,.67.23.49.49,0,0,1-.22.67l-.89.45A.64.64,0,0,1,46.29,174.39Zm29.57-.23a.42.42,0,0,1-.22,0l-.9-.44a.5.5,0,0,1-.23-.67.52.52,0,0,1,.67-.23l.9.44a.5.5,0,0,1-.22.95Zm-26-1.56a.5.5,0,0,1-.22-.95l.89-.45a.5.5,0,0,1,.67.23.49.49,0,0,1-.22.67l-.9.45A.54.54,0,0,1,49.87,172.6Zm22.4-.2a.54.54,0,0,1-.22-.05l-.9-.44a.5.5,0,0,1,.44-.9l.9.44a.5.5,0,0,1-.22,1Zm-18.82-1.59a.49.49,0,0,1-.45-.28.51.51,0,0,1,.22-.67l.9-.44a.49.49,0,0,1,.67.22.5.5,0,0,1-.22.67l-.9.45A.59.59,0,0,1,53.45,170.81Zm15.23-.17a.43.43,0,0,1-.22-.06l-.9-.44a.5.5,0,0,1-.23-.67.49.49,0,0,1,.67-.22l.9.44a.5.5,0,0,1,.23.67A.52.52,0,0,1,68.68,170.64ZM57,169a.5.5,0,0,1-.45-.27.51.51,0,0,1,.22-.68l.9-.44a.49.49,0,0,1,.67.22.5.5,0,0,1-.23.67l-.89.45A.44.44,0,0,1,57,169Zm8.06-.15a.54.54,0,0,1-.22-.05l-.9-.44a.5.5,0,0,1-.23-.67.51.51,0,0,1,.67-.23l.9.44a.5.5,0,0,1-.22,1Zm-4.49-1.64a.5.5,0,0,1-.22-.94L61,166a.51.51,0,0,1,.45,0l.32.16a.5.5,0,0,1,.23.67.51.51,0,0,1-.67.23l-.1-.06-.35.18A.46.46,0,0,1,60.6,167.23Z"/><path class="cls-3" d="M221.17,117l-40.5-20.25V46.14l40.5-20.25,40.5,20.25V96.76Zm-39.5-20.87,39.5,19.75,39.5-19.75V46.76L221.17,27l-39.5,19.75Z"/><polygon class="cls-4" points="221.18 116.45 261.18 96.45 301.18 116.45 301.18 166.45 261.18 186.45 221.18 166.45 221.18 116.45"/><path class="cls-1" d="M221.17,257l-.22-.12-40.28-20.13V186.14L181,186l40.22-20.11.23.11,40.27,20.14v50.62l-.27.13Zm-39.5-20.87,39.5,19.75,39.5-19.75V186.76L221.17,167l-39.5,19.75Z"/><polygon class="cls-5" points="301.18 116.45 341.18 96.45 381.18 116.45 381.18 166.45 341.18 186.45 301.18 166.45 301.18 116.45"/><path class="cls-2" d="M341.17,47.45a.51.51,0,0,1-.5-.5v-.5A.5.5,0,0,1,341,46l.45-.22a.49.49,0,0,1,.67.22.5.5,0,0,1-.22.67l-.18.09V47A.5.5,0,0,1,341.17,47.45Z"/><path class="cls-2" d="M344.12,45.47a.51.51,0,0,1-.45-.27.5.5,0,0,1,.22-.67l.84-.42a.5.5,0,1,1,.44.9l-.83.41A.44.44,0,0,1,344.12,45.47Z"/><path class="cls-2" d="M347.45,43.81a.49.49,0,0,1-.45-.28.51.51,0,0,1,.22-.67l.83-.41a.51.51,0,0,1,.68.22.5.5,0,0,1-.23.67l-.83.42A.59.59,0,0,1,347.45,43.81Zm3.32-1.66a.5.5,0,0,1-.22-.95l.83-.42a.5.5,0,0,1,.67.23.49.49,0,0,1-.22.67l-.83.41A.46.46,0,0,1,350.77,42.15Zm3.33-1.67a.5.5,0,0,1-.22-.94l.83-.42a.5.5,0,0,1,.67.22.5.5,0,0,1-.22.67l-.83.42A.48.48,0,0,1,354.1,40.48Zm3.33-1.66a.5.5,0,0,1-.22-1l.83-.41a.49.49,0,0,1,.67.22.5.5,0,0,1-.22.67l-.84.42A.54.54,0,0,1,357.43,38.82Zm3.33-1.67a.51.51,0,0,1-.45-.27.5.5,0,0,1,.23-.67l.83-.42a.5.5,0,0,1,.44.9l-.83.41A.44.44,0,0,1,360.76,37.15Zm3.33-1.66a.49.49,0,0,1-.45-.28.51.51,0,0,1,.22-.67l.84-.41a.5.5,0,1,1,.44.89l-.83.42A.59.59,0,0,1,364.09,35.49Zm3.33-1.66a.49.49,0,0,1-.45-.28.49.49,0,0,1,.22-.67l.83-.42a.5.5,0,0,1,.67.23.49.49,0,0,1-.22.67l-.83.41A.46.46,0,0,1,367.42,33.83Zm3.32-1.67a.5.5,0,0,1-.22-.94l.83-.42A.5.5,0,0,1,372,31a.49.49,0,0,1-.22.67l-.83.42A.48.48,0,0,1,370.74,32.16Zm3.33-1.66a.5.5,0,0,1-.22-.95l.83-.41a.49.49,0,0,1,.67.22.5.5,0,0,1-.22.67l-.84.42A.54.54,0,0,1,374.07,30.5Zm3.33-1.67a.51.51,0,0,1-.45-.27.5.5,0,0,1,.23-.67l.83-.42a.51.51,0,0,1,.67.22.52.52,0,0,1-.22.68l-.84.41A.44.44,0,0,1,377.4,28.83Z"/><path class="cls-2" d="M381.62,27.17a.59.59,0,0,1-.22-.05l-.23-.11-.22.11a.5.5,0,0,1-.67-.23.51.51,0,0,1,.22-.67L381,26a.51.51,0,0,1,.45,0l.45.22a.51.51,0,0,1,.22.67A.5.5,0,0,1,381.62,27.17Z"/><path class="cls-2" d="M385,28.83a.44.44,0,0,1-.22,0l-.84-.41a.52.52,0,0,1-.22-.68.51.51,0,0,1,.67-.22l.83.42a.5.5,0,0,1,.23.67A.51.51,0,0,1,385,28.83Z"/><path class="cls-2" d="M418.23,45.47a.44.44,0,0,1-.22,0l-.83-.41a.5.5,0,1,1,.44-.9l.84.42a.5.5,0,0,1,.22.67A.51.51,0,0,1,418.23,45.47Zm-3.33-1.66a.59.59,0,0,1-.22-.05l-.83-.42a.5.5,0,1,1,.44-.89l.84.41a.51.51,0,0,1,.22.67A.49.49,0,0,1,414.9,43.81Zm-3.32-1.66a.46.46,0,0,1-.23-.06l-.83-.41a.49.49,0,0,1-.22-.67.5.5,0,0,1,.67-.23l.83.42a.5.5,0,0,1-.22.95Zm-3.33-1.67a.48.48,0,0,1-.23,0l-.83-.42a.49.49,0,0,1-.22-.67.5.5,0,0,1,.67-.22l.83.42a.5.5,0,0,1-.22.94Zm-3.33-1.66a.54.54,0,0,1-.22,0l-.84-.42a.5.5,0,0,1-.22-.67.49.49,0,0,1,.67-.22l.83.41a.5.5,0,0,1-.22,1Zm-3.33-1.67a.44.44,0,0,1-.22,0l-.83-.41a.5.5,0,1,1,.44-.9l.83.42a.5.5,0,0,1,.23.67A.51.51,0,0,1,401.59,37.15Zm-3.33-1.66a.59.59,0,0,1-.22-.05l-.83-.42a.5.5,0,1,1,.44-.89l.84.41a.51.51,0,0,1,.22.67A.49.49,0,0,1,398.26,35.49Zm-3.33-1.66a.46.46,0,0,1-.22-.06l-.83-.41a.49.49,0,0,1-.22-.67.5.5,0,0,1,.67-.23l.83.42a.5.5,0,0,1-.23.95Zm-3.32-1.67a.48.48,0,0,1-.23,0l-.83-.42a.49.49,0,0,1-.22-.67.5.5,0,0,1,.67-.22l.83.42a.5.5,0,0,1-.22.94Zm-3.33-1.66a.64.64,0,0,1-.23-.05l-.83-.42a.5.5,0,0,1-.22-.67.49.49,0,0,1,.67-.22l.83.41a.5.5,0,0,1-.22.95Z"/><path class="cls-2" d="M421.17,47.45a.51.51,0,0,1-.5-.5v-.19l-.17-.09a.5.5,0,0,1-.22-.67.5.5,0,0,1,.67-.22l.45.22a.49.49,0,0,1,.27.45V47A.5.5,0,0,1,421.17,47.45Z"/><path class="cls-2" d="M421.17,51.62a.51.51,0,0,1-.5-.5v-1a.51.51,0,0,1,.5-.5.5.5,0,0,1,.5.5v1A.5.5,0,0,1,421.17,51.62Z"/><path class="cls-2" d="M421.17,93.32a.5.5,0,0,1-.5-.5v-1a.5.5,0,0,1,.5-.5.5.5,0,0,1,.5.5v1A.5.5,0,0,1,421.17,93.32Zm0-4.17a.5.5,0,0,1-.5-.5v-1a.5.5,0,0,1,.5-.5.5.5,0,0,1,.5.5v1A.5.5,0,0,1,421.17,89.15Zm0-4.17a.51.51,0,0,1-.5-.5v-1a.5.5,0,0,1,.5-.5.5.5,0,0,1,.5.5v1A.5.5,0,0,1,421.17,85Zm0-4.17a.51.51,0,0,1-.5-.5v-1a.5.5,0,0,1,.5-.5.5.5,0,0,1,.5.5v1A.5.5,0,0,1,421.17,80.81Zm0-4.17a.51.51,0,0,1-.5-.5v-1a.5.5,0,0,1,.5-.5.5.5,0,0,1,.5.5v1A.5.5,0,0,1,421.17,76.64Zm0-4.17a.51.51,0,0,1-.5-.5v-1a.5.5,0,0,1,.5-.5.5.5,0,0,1,.5.5v1A.5.5,0,0,1,421.17,72.47Zm0-4.17a.51.51,0,0,1-.5-.5v-1a.5.5,0,0,1,.5-.5.5.5,0,0,1,.5.5v1A.5.5,0,0,1,421.17,68.3Zm0-4.17a.51.51,0,0,1-.5-.5V62.58a.51.51,0,0,1,.5-.5.5.5,0,0,1,.5.5v1.05A.5.5,0,0,1,421.17,64.13Zm0-4.17a.51.51,0,0,1-.5-.5V58.41a.51.51,0,0,1,.5-.5.5.5,0,0,1,.5.5v1.05A.5.5,0,0,1,421.17,60Zm0-4.17a.51.51,0,0,1-.5-.5v-1a.51.51,0,0,1,.5-.5.5.5,0,0,1,.5.5v1A.5.5,0,0,1,421.17,55.79Z"/><path class="cls-2" d="M420.73,97.17a.49.49,0,0,1-.45-.28.51.51,0,0,1,.22-.67l.17-.08V96a.5.5,0,0,1,.5-.5.5.5,0,0,1,.5.5v.5a.48.48,0,0,1-.27.44l-.45.23A.59.59,0,0,1,420.73,97.17Z"/><path class="cls-2" d="M417.4,98.83a.51.51,0,0,1-.45-.27.5.5,0,0,1,.23-.67l.83-.42a.51.51,0,0,1,.67.22.52.52,0,0,1-.22.68l-.84.41A.44.44,0,0,1,417.4,98.83Z"/><path class="cls-2" d="M384.12,115.47a.51.51,0,0,1-.45-.27.5.5,0,0,1,.22-.67l.84-.42a.5.5,0,1,1,.44.9l-.83.41A.44.44,0,0,1,384.12,115.47Zm3.33-1.66a.49.49,0,0,1-.45-.28.51.51,0,0,1,.22-.67l.83-.41a.51.51,0,0,1,.68.22.5.5,0,0,1-.23.67l-.83.42A.59.59,0,0,1,387.45,113.81Zm3.32-1.66a.5.5,0,0,1-.22-1l.83-.42a.5.5,0,0,1,.67.23.49.49,0,0,1-.22.67l-.83.41A.46.46,0,0,1,390.77,112.15Zm3.33-1.67a.5.5,0,0,1-.22-.94l.83-.42a.5.5,0,0,1,.67.22.5.5,0,0,1-.22.67l-.83.42A.48.48,0,0,1,394.1,110.48Zm3.33-1.66a.5.5,0,0,1-.22-.95l.83-.41a.49.49,0,0,1,.67.22.5.5,0,0,1-.22.67l-.84.42A.54.54,0,0,1,397.43,108.82Zm3.33-1.67a.51.51,0,0,1-.45-.27.5.5,0,0,1,.23-.67l.83-.42a.5.5,0,1,1,.44.9l-.83.41A.44.44,0,0,1,400.76,107.15Zm3.33-1.66a.49.49,0,0,1-.45-.28.51.51,0,0,1,.22-.67l.84-.41a.5.5,0,1,1,.44.89l-.83.42A.59.59,0,0,1,404.09,105.49Zm3.33-1.66a.49.49,0,0,1-.45-.28.49.49,0,0,1,.22-.67l.83-.42a.5.5,0,0,1,.67.23.49.49,0,0,1-.22.67l-.83.41A.46.46,0,0,1,407.42,103.83Zm3.32-1.67a.5.5,0,0,1-.22-.94l.83-.42a.5.5,0,0,1,.67.22.49.49,0,0,1-.22.67l-.83.42A.48.48,0,0,1,410.74,102.16Zm3.33-1.66a.5.5,0,0,1-.22-1l.83-.41a.49.49,0,0,1,.67.22.5.5,0,0,1-.22.67l-.84.42A.54.54,0,0,1,414.07,100.5Z"/><path class="cls-2" d="M381.17,117a.46.46,0,0,1-.22-.06l-.45-.22a.5.5,0,0,1-.22-.67.49.49,0,0,1,.67-.22l.22.11.23-.11a.49.49,0,0,1,.67.22.5.5,0,0,1-.22.67l-.45.22A.46.46,0,0,1,381.17,117Z"/><path class="cls-2" d="M378.23,115.47a.44.44,0,0,1-.22,0l-.83-.41a.5.5,0,0,1,.44-.9l.84.42a.5.5,0,0,1,.22.67A.51.51,0,0,1,378.23,115.47Z"/><path class="cls-2" d="M374.9,113.81a.59.59,0,0,1-.22,0l-.83-.42a.5.5,0,1,1,.44-.89l.84.41a.51.51,0,0,1,.22.67A.49.49,0,0,1,374.9,113.81Zm-3.32-1.66a.46.46,0,0,1-.23-.06l-.83-.41a.49.49,0,0,1-.22-.67.5.5,0,0,1,.67-.23l.83.42a.5.5,0,0,1-.22,1Zm-3.33-1.67a.48.48,0,0,1-.23,0l-.83-.42a.49.49,0,0,1-.22-.67.5.5,0,0,1,.67-.22l.83.42a.5.5,0,0,1-.22.94Zm-3.33-1.66a.54.54,0,0,1-.22,0l-.84-.42a.5.5,0,0,1-.22-.67.49.49,0,0,1,.67-.22l.83.41a.5.5,0,0,1-.22.95Zm-3.33-1.67a.44.44,0,0,1-.22-.05l-.83-.41a.5.5,0,1,1,.44-.9l.83.42a.5.5,0,0,1,.23.67A.51.51,0,0,1,361.59,107.15Zm-3.33-1.66a.59.59,0,0,1-.22,0l-.83-.42a.5.5,0,1,1,.44-.89l.84.41a.51.51,0,0,1,.22.67A.49.49,0,0,1,358.26,105.49Zm-3.33-1.66a.46.46,0,0,1-.22-.06l-.83-.41a.49.49,0,0,1-.22-.67.5.5,0,0,1,.67-.23l.83.42a.5.5,0,0,1-.23,1Zm-3.32-1.67a.48.48,0,0,1-.23,0l-.83-.42a.49.49,0,0,1-.22-.67.5.5,0,0,1,.67-.22l.83.42a.5.5,0,0,1-.22.94Zm-3.33-1.66a.64.64,0,0,1-.23,0l-.83-.42a.5.5,0,0,1-.22-.67.49.49,0,0,1,.67-.22l.83.41a.5.5,0,0,1-.22,1ZM345,98.83a.44.44,0,0,1-.22,0l-.84-.41a.52.52,0,0,1-.22-.68.51.51,0,0,1,.67-.22l.83.42a.5.5,0,0,1,.23.67A.51.51,0,0,1,345,98.83Z"/><path class="cls-2" d="M341.62,97.17a.59.59,0,0,1-.22,0l-.45-.23a.49.49,0,0,1-.28-.44V96a.5.5,0,0,1,.5-.5.5.5,0,0,1,.5.5v.19l.18.08a.51.51,0,0,1,.22.67A.5.5,0,0,1,341.62,97.17Z"/><path class="cls-2" d="M341.17,93.32a.5.5,0,0,1-.5-.5v-1a.5.5,0,0,1,.5-.5.5.5,0,0,1,.5.5v1A.5.5,0,0,1,341.17,93.32Z"/><path class="cls-2" d="M341.17,89.15a.5.5,0,0,1-.5-.5v-1a.5.5,0,0,1,.5-.5.5.5,0,0,1,.5.5v1A.5.5,0,0,1,341.17,89.15Zm0-4.17a.51.51,0,0,1-.5-.5v-1a.5.5,0,0,1,.5-.5.5.5,0,0,1,.5.5v1A.5.5,0,0,1,341.17,85Zm0-4.17a.51.51,0,0,1-.5-.5v-1a.5.5,0,0,1,.5-.5.5.5,0,0,1,.5.5v1A.5.5,0,0,1,341.17,80.81Zm0-4.17a.51.51,0,0,1-.5-.5v-1a.5.5,0,0,1,.5-.5.5.5,0,0,1,.5.5v1A.5.5,0,0,1,341.17,76.64Zm0-4.17a.51.51,0,0,1-.5-.5v-1a.5.5,0,0,1,.5-.5.5.5,0,0,1,.5.5v1A.5.5,0,0,1,341.17,72.47Zm0-4.17a.51.51,0,0,1-.5-.5v-1a.5.5,0,0,1,.5-.5.5.5,0,0,1,.5.5v1A.5.5,0,0,1,341.17,68.3Zm0-4.17a.51.51,0,0,1-.5-.5V62.58a.51.51,0,0,1,.5-.5.5.5,0,0,1,.5.5v1.05A.5.5,0,0,1,341.17,64.13Zm0-4.17a.51.51,0,0,1-.5-.5V58.41a.51.51,0,0,1,.5-.5.5.5,0,0,1,.5.5v1.05A.5.5,0,0,1,341.17,60Zm0-4.17a.51.51,0,0,1-.5-.5v-1a.51.51,0,0,1,.5-.5.5.5,0,0,1,.5.5v1A.5.5,0,0,1,341.17,55.79Zm0-4.17a.51.51,0,0,1-.5-.5v-1a.51.51,0,0,1,.5-.5.5.5,0,0,1,.5.5v1A.5.5,0,0,1,341.17,51.62Z"/><polygon class="cls-1" points="231.61 158.61 231.61 121.73 261.11 106.98 290.61 121.73 290.61 158.61 261.11 173.36 231.61 158.61"/><path class="cls-6" d="M261.11,107.54l29,14.5V158.3l-29,14.5-29-14.5V122l29-14.5m0-1.12-30,15v37.5l30,15,30-15v-37.5l-30-15Z"/><polygon class="cls-7" points="251.05 130.15 244.85 150.18 247.87 150.18 254.06 130.15 251.05 130.15"/><polygon class="cls-7" points="255.47 130.19 249.3 150.16 252.3 150.16 258.48 130.19 255.47 130.19"/><path class="cls-7" d="M267.34,130.16a10,10,0,1,0,3.83,19.27V145a6.19,6.19,0,1,1,2.36-4.87v10h3.83v-10h0A10,10,0,0,0,267.34,130.16Z"/><polygon class="cls-1" points="191.18 51.45 221.18 36.45 251.18 51.45 251.18 88.95 221.18 103.95 191.18 88.95 191.18 51.45"/><path class="cls-8" d="M209.43,63.68l3.2-1.28c1.16-.39,2.44-.77,1.93-2.7L211.74,52c-.77-1-1-1.54-2.57-1l-4.23,1.67a7.48,7.48,0,0,0-3.08,4.23c-2.31,9.5,11.93,32.21,21.42,34.39a7.64,7.64,0,0,0,5.13-1l3.47-2.95c1.15-1.16.77-1.67.13-2.82l-5.65-5.91c-1.54-1.28-2.44-.25-3.33.52l-2.57,2.31C215.07,78.05,210.07,70.1,209.43,63.68Z"/><path class="cls-7" d="M223.14,71.82a5.93,5.93,0,0,1-4-1.51A.24.24,0,0,1,219,70l1.05-1.49a.24.24,0,0,1,.36,0,5.08,5.08,0,0,0,2.86,1.06c1,0,1.7-.34,1.7-1s-.92-1-2-1.24c-1.55-.33-3.85-1.09-3.85-3.58,0-2.13,1.83-3.17,4.16-3.17a6.21,6.21,0,0,1,3.71,1.18.24.24,0,0,1,.08.37l-1,1.47a.27.27,0,0,1-.39.08,4.76,4.76,0,0,0-2.54-.77c-1.09,0-1.52.37-1.52.92s.64.86,2,1.16c2.13.53,3.89,1.23,3.89,3.5S225.82,71.82,223.14,71.82Z"/><path class="cls-7" d="M231.64,71.36a.24.24,0,0,1-.27.27h-1.92c-.19,0-.28-.09-.28-.27V60.94c0-.18.09-.27.28-.27h1.92a.24.24,0,0,1,.27.27Z"/><path class="cls-7" d="M238.24,60.67a3.89,3.89,0,1,1,0,7.77h-1.87v2.92a.24.24,0,0,1-.26.27h-1.94a.24.24,0,0,1-.26-.27V60.94a.24.24,0,0,1,.26-.27Zm-.34,5.49c1.17,0,1.73-.52,1.73-1.61s-.56-1.61-1.73-1.61h-1.53v3.22Z"/><polygon class="cls-1" points="351.18 191.45 381.18 176.45 411.18 191.45 411.18 228.95 381.18 243.95 351.18 228.95 351.18 191.45"/><polygon class="cls-1" points="191.29 190.89 221.29 175.89 251.29 190.89 251.29 228.39 221.29 243.39 191.29 228.39 191.29 190.89"/><rect class="cls-7" x="199.66" y="195.94" width="5.58" height="30.51" rx="2.79"/><rect class="cls-7" x="206.85" y="194.08" width="5.58" height="34.35" rx="2.79" transform="translate(130.87 -75.75) rotate(29.43)"/><rect class="cls-7" x="221.02" y="194.08" width="5.58" height="34.35" rx="2.79" transform="translate(132.7 -82.71) rotate(29.43)"/><rect class="cls-7" x="235.14" y="193.96" width="5.58" height="34.35" rx="2.79" transform="translate(134.46 -89.67) rotate(29.43)"/><rect class="cls-7" x="213.96" y="195.94" width="5.58" height="30.51" rx="2.79"/><rect class="cls-9" x="228.12" y="195.94" width="5.58" height="30.51" rx="2.79"/><path class="cls-3" d="M382.18,103.94a.51.51,0,0,1-.45-.27A.5.5,0,0,1,382,103l.89-.45a.5.5,0,1,1,.45.89l-.9.45A.44.44,0,0,1,382.18,103.94Zm-2.68-.33a.46.46,0,0,1-.23-.06l-.89-.44a.51.51,0,0,1-.23-.67.51.51,0,0,1,.68-.23l.89.45a.49.49,0,0,1,.22.67A.48.48,0,0,1,379.5,103.61Zm6.26-1.45a.51.51,0,0,1-.45-.28.5.5,0,0,1,.22-.67l.9-.45a.51.51,0,0,1,.67.22.52.52,0,0,1-.22.68l-.9.44A.46.46,0,0,1,385.76,102.16Zm-9.84-.34a.64.64,0,0,1-.23,0l-.89-.45a.49.49,0,0,1-.22-.67.5.5,0,0,1,.67-.23l.89.45a.5.5,0,0,1-.22.95Zm13.42-1.45a.49.49,0,0,1-.45-.28.49.49,0,0,1,.22-.67L390,99a.5.5,0,0,1,.44.9l-.89.44A.46.46,0,0,1,389.34,100.37Zm-17-.34a.59.59,0,0,1-.22,0l-.9-.45a.5.5,0,0,1-.22-.67.49.49,0,0,1,.67-.22l.89.44a.5.5,0,0,1-.22,1Zm20.57-1.45a.5.5,0,0,1-.22-1l.89-.45a.5.5,0,0,1,.67.23.49.49,0,0,1-.22.67l-.89.45A.64.64,0,0,1,392.91,98.58Zm-24.15-.34a.59.59,0,0,1-.22,0l-.9-.45a.5.5,0,0,1-.22-.67.5.5,0,0,1,.67-.22l.9.44a.51.51,0,0,1,.22.67A.49.49,0,0,1,368.76,98.24Zm27.73-1.45a.5.5,0,0,1-.22-1l.89-.45a.5.5,0,0,1,.67.23.49.49,0,0,1-.22.67l-.9.45A.54.54,0,0,1,396.49,96.79Zm-31.3-.34a.59.59,0,0,1-.23,0l-.89-.45a.5.5,0,1,1,.44-.89l.9.44a.5.5,0,0,1-.22,1ZM400.07,95a.49.49,0,0,1-.45-.28.51.51,0,0,1,.22-.67l.9-.44a.49.49,0,0,1,.67.22.5.5,0,0,1-.22.67l-.9.45A.59.59,0,0,1,400.07,95Zm-38.46-.34a.48.48,0,0,1-.23,0l-.89-.45a.49.49,0,0,1-.22-.67.5.5,0,0,1,.67-.22l.89.45a.5.5,0,0,1-.22.94Zm42-1.45a.49.49,0,0,1-.45-.28.5.5,0,0,1,.22-.67l.9-.44A.49.49,0,0,1,405,92a.5.5,0,0,1-.23.67l-.89.45A.59.59,0,0,1,403.65,93.21ZM358,92.87a.42.42,0,0,1-.22-.05l-.9-.45a.5.5,0,0,1,.45-.89l.89.45a.5.5,0,0,1,.23.67A.51.51,0,0,1,358,92.87Zm49.19-1.45a.49.49,0,0,1-.44-.27.5.5,0,0,1,.22-.68l.89-.44a.51.51,0,0,1,.68.22.5.5,0,0,1-.23.67l-.89.45A.46.46,0,0,1,407.22,91.42Zm-52.77-.33a.46.46,0,0,1-.22-.06l-.9-.44a.52.52,0,0,1-.22-.68.51.51,0,0,1,.67-.22l.9.45a.5.5,0,0,1,.22.67A.52.52,0,0,1,354.45,91.09Zm56.35-1.46a.51.51,0,0,1-.45-.27.5.5,0,0,1,.23-.67l.09,0v-.28a.51.51,0,0,1,.5-.5.5.5,0,0,1,.5.5V89a.48.48,0,0,1-.27.44l-.38.19A.42.42,0,0,1,410.8,89.63Zm-59.63-.52a.5.5,0,0,1-.5-.5v-1a.5.5,0,0,1,.5-.5.5.5,0,0,1,.5.5v1A.5.5,0,0,1,351.17,89.11Zm60-3.25a.5.5,0,0,1-.5-.5v-1a.51.51,0,0,1,.5-.5.5.5,0,0,1,.5.5v1A.5.5,0,0,1,411.17,85.86Zm-60-.75a.5.5,0,0,1-.5-.5v-1a.5.5,0,0,1,.5-.5.5.5,0,0,1,.5.5v1A.5.5,0,0,1,351.17,85.11Zm60-3.25a.5.5,0,0,1-.5-.5v-1a.51.51,0,0,1,.5-.5.5.5,0,0,1,.5.5v1A.5.5,0,0,1,411.17,81.86Zm-60-.75a.5.5,0,0,1-.5-.5v-1a.5.5,0,0,1,.5-.5.5.5,0,0,1,.5.5v1A.5.5,0,0,1,351.17,81.11Zm60-3.25a.5.5,0,0,1-.5-.5v-1a.51.51,0,0,1,.5-.5.5.5,0,0,1,.5.5v1A.5.5,0,0,1,411.17,77.86Zm-60-.75a.5.5,0,0,1-.5-.5v-1a.5.5,0,0,1,.5-.5.5.5,0,0,1,.5.5v1A.5.5,0,0,1,351.17,77.11Zm60-3.25a.5.5,0,0,1-.5-.5v-1a.51.51,0,0,1,.5-.5.5.5,0,0,1,.5.5v1A.5.5,0,0,1,411.17,73.86Zm-60-.75a.5.5,0,0,1-.5-.5v-1a.5.5,0,0,1,.5-.5.5.5,0,0,1,.5.5v1A.5.5,0,0,1,351.17,73.11Zm60-3.25a.5.5,0,0,1-.5-.5v-1a.51.51,0,0,1,.5-.5.5.5,0,0,1,.5.5v1A.5.5,0,0,1,411.17,69.86Zm-60-.75a.5.5,0,0,1-.5-.5v-1a.5.5,0,0,1,.5-.5.5.5,0,0,1,.5.5v1A.5.5,0,0,1,351.17,69.11Zm60-3.25a.5.5,0,0,1-.5-.5v-1a.51.51,0,0,1,.5-.5.5.5,0,0,1,.5.5v1A.5.5,0,0,1,411.17,65.86Zm-60-.75a.5.5,0,0,1-.5-.5v-1a.5.5,0,0,1,.5-.5.5.5,0,0,1,.5.5v1A.5.5,0,0,1,351.17,65.11Zm60-3.25a.5.5,0,0,1-.5-.5v-1a.51.51,0,0,1,.5-.5.5.5,0,0,1,.5.5v1A.5.5,0,0,1,411.17,61.86Zm-60-.75a.5.5,0,0,1-.5-.5v-1a.5.5,0,0,1,.5-.5.5.5,0,0,1,.5.5v1A.5.5,0,0,1,351.17,61.11Zm60-3.25a.5.5,0,0,1-.5-.5v-1a.51.51,0,0,1,.5-.5.5.5,0,0,1,.5.5v1A.5.5,0,0,1,411.17,57.86Zm-60-.75a.5.5,0,0,1-.5-.5v-1a.5.5,0,0,1,.5-.5.5.5,0,0,1,.5.5v1A.5.5,0,0,1,351.17,57.11Zm60-3.25a.5.5,0,0,1-.5-.5v-1a.51.51,0,0,1,.5-.5.5.5,0,0,1,.5.5v1A.5.5,0,0,1,411.17,53.86Zm-60-.75a.5.5,0,0,1-.5-.5v-1s0,0,0-.08A.51.51,0,0,1,351,51l.9-.45a.5.5,0,1,1,.44.9l-.62.31v.85A.5.5,0,0,1,351.17,53.11ZM409.31,51a.46.46,0,0,1-.22-.06l-.9-.44a.52.52,0,0,1-.22-.68.51.51,0,0,1,.67-.22l.9.45a.5.5,0,0,1,.22.67A.51.51,0,0,1,409.31,51Zm-54.56-.86a.48.48,0,0,1-.44-.28.49.49,0,0,1,.22-.67l.89-.45a.5.5,0,0,1,.67.23.49.49,0,0,1-.22.67l-.89.44A.49.49,0,0,1,354.75,50.16Zm51-.93a.46.46,0,0,1-.23-.06l-.89-.44a.5.5,0,1,1,.44-.9l.9.45a.5.5,0,0,1-.22.95Zm-47.41-.86a.5.5,0,0,1-.22-.95L359,47a.5.5,0,0,1,.45.9l-.9.45A.54.54,0,0,1,358.33,48.37Zm43.83-.93a.64.64,0,0,1-.23,0l-.89-.45a.49.49,0,0,1-.22-.67.5.5,0,0,1,.67-.23l.89.45a.49.49,0,0,1,.22.67A.48.48,0,0,1,402.16,47.44Zm-40.25-.86a.5.5,0,0,1-.45-.28.51.51,0,0,1,.22-.67l.9-.44a.49.49,0,0,1,.67.22.5.5,0,0,1-.22.67l-.9.45A.59.59,0,0,1,361.91,46.58Zm36.67-.93a.54.54,0,0,1-.22,0l-.9-.45a.49.49,0,0,1-.22-.67.5.5,0,0,1,.67-.23l.89.45a.5.5,0,0,1-.22.95Zm-33.09-.86a.5.5,0,0,1-.45-.27.51.51,0,0,1,.22-.68l.9-.44a.5.5,0,1,1,.44.89l-.89.45A.59.59,0,0,1,365.49,44.79ZM395,43.86a.59.59,0,0,1-.22,0l-.9-.45a.5.5,0,0,1-.22-.67.49.49,0,0,1,.67-.22l.9.44a.51.51,0,0,1,.22.67A.5.5,0,0,1,395,43.86ZM369.06,43a.5.5,0,0,1-.22-.94l.89-.45a.51.51,0,0,1,.68.22.5.5,0,0,1-.23.67l-.89.45A.48.48,0,0,1,369.06,43Zm22.36-.93a.59.59,0,0,1-.22,0l-.89-.45a.5.5,0,1,1,.44-.89l.9.44a.51.51,0,0,1,.22.67A.49.49,0,0,1,391.42,42.07Zm-18.78-.86a.51.51,0,0,1-.45-.27.5.5,0,0,1,.23-.67l.89-.45A.5.5,0,0,1,374,40a.49.49,0,0,1-.22.67l-.9.45A.42.42,0,0,1,372.64,41.21Zm15.21-.93a.48.48,0,0,1-.23-.05l-.89-.45a.5.5,0,0,1-.23-.67.51.51,0,0,1,.68-.22l.89.45a.5.5,0,0,1-.22.94Zm-11.63-.86a.51.51,0,0,1-.45-.27.5.5,0,0,1,.23-.67l.89-.45a.5.5,0,0,1,.45.89l-.9.45A.44.44,0,0,1,376.22,39.42Zm8-.93a.48.48,0,0,1-.23-.05l-.89-.45a.49.49,0,0,1-.22-.67.5.5,0,0,1,.67-.22l.89.45a.5.5,0,0,1,.23.67A.51.51,0,0,1,384.27,38.49Zm-4.47-.85a.51.51,0,0,1-.45-.28.5.5,0,0,1,.22-.67l.9-.45a.5.5,0,0,1,.44.9l-.89.44A.46.46,0,0,1,379.8,37.64Z"/><path class="cls-3" d="M422.18,173.94a.51.51,0,0,1-.45-.27A.5.5,0,0,1,422,173l.89-.45a.5.5,0,1,1,.45.89l-.9.45A.44.44,0,0,1,422.18,173.94Zm-2.68-.33a.46.46,0,0,1-.23-.06l-.89-.44a.51.51,0,0,1-.23-.67.51.51,0,0,1,.68-.23l.89.45a.49.49,0,0,1,.22.67A.48.48,0,0,1,419.5,173.61Zm6.26-1.45a.51.51,0,0,1-.45-.28.5.5,0,0,1,.22-.67l.9-.45a.51.51,0,0,1,.67.22.52.52,0,0,1-.22.68l-.9.44A.46.46,0,0,1,425.76,172.16Zm-9.84-.34a.64.64,0,0,1-.23,0l-.89-.45a.49.49,0,0,1-.22-.67.5.5,0,0,1,.67-.23l.89.45a.5.5,0,0,1-.22.95Zm13.42-1.45a.49.49,0,0,1-.45-.28.49.49,0,0,1,.22-.67l.9-.45a.5.5,0,1,1,.44.9l-.89.44A.46.46,0,0,1,429.34,170.37Zm-17-.34a.59.59,0,0,1-.22-.05l-.9-.45a.5.5,0,0,1-.22-.67.49.49,0,0,1,.67-.22l.89.44a.5.5,0,0,1-.22.95Zm20.57-1.45a.5.5,0,0,1-.22-1l.89-.45a.5.5,0,0,1,.67.23.49.49,0,0,1-.22.67l-.89.44A.49.49,0,0,1,432.91,168.58Zm-24.15-.34a.59.59,0,0,1-.22-.05l-.9-.45a.5.5,0,0,1-.22-.67.49.49,0,0,1,.67-.22l.9.44a.51.51,0,0,1,.22.67A.49.49,0,0,1,408.76,168.24Zm27.73-1.45a.5.5,0,0,1-.22-.95l.89-.45a.5.5,0,0,1,.67.23.49.49,0,0,1-.22.67l-.9.45A.54.54,0,0,1,436.49,166.79Zm-31.3-.34a.59.59,0,0,1-.23,0l-.89-.45a.5.5,0,0,1-.23-.67.49.49,0,0,1,.67-.22l.9.44a.5.5,0,0,1-.22.95ZM440.07,165a.49.49,0,0,1-.45-.28.51.51,0,0,1,.22-.67l.9-.44a.49.49,0,0,1,.67.22.5.5,0,0,1-.22.67l-.9.45A.59.59,0,0,1,440.07,165Zm-38.46-.34a.48.48,0,0,1-.23,0l-.89-.45a.49.49,0,0,1-.22-.67.5.5,0,0,1,.67-.22l.89.45a.5.5,0,0,1-.22.94Zm42-1.45a.49.49,0,0,1-.45-.28.5.5,0,0,1,.22-.67l.9-.44a.49.49,0,0,1,.67.22.5.5,0,0,1-.23.67l-.89.45A.59.59,0,0,1,443.65,163.21ZM398,162.87a.42.42,0,0,1-.22-.05l-.9-.45a.5.5,0,1,1,.45-.89l.89.45a.5.5,0,0,1,.23.67A.51.51,0,0,1,398,162.87Zm49.19-1.45a.49.49,0,0,1-.44-.27.5.5,0,0,1,.22-.68l.89-.44a.5.5,0,1,1,.45.89l-.89.45A.46.46,0,0,1,447.22,161.42Zm-52.77-.33a.46.46,0,0,1-.22-.06l-.9-.44a.52.52,0,0,1-.22-.68.5.5,0,0,1,.67-.22l.9.45a.5.5,0,0,1,.22.67A.52.52,0,0,1,394.45,161.09Zm56.35-1.46a.51.51,0,0,1-.45-.27.5.5,0,0,1,.23-.67l.09-.05v-.28a.51.51,0,0,1,.5-.5.5.5,0,0,1,.5.5V159a.48.48,0,0,1-.27.44l-.38.19A.42.42,0,0,1,450.8,159.63Zm-59.63-.52a.5.5,0,0,1-.5-.5v-1a.5.5,0,0,1,.5-.5.5.5,0,0,1,.5.5v1A.5.5,0,0,1,391.17,159.11Zm60-3.25a.5.5,0,0,1-.5-.5v-1a.51.51,0,0,1,.5-.5.5.5,0,0,1,.5.5v1A.5.5,0,0,1,451.17,155.86Zm-60-.75a.5.5,0,0,1-.5-.5v-1a.5.5,0,0,1,.5-.5.5.5,0,0,1,.5.5v1A.5.5,0,0,1,391.17,155.11Zm60-3.25a.5.5,0,0,1-.5-.5v-1a.51.51,0,0,1,.5-.5.5.5,0,0,1,.5.5v1A.5.5,0,0,1,451.17,151.86Zm-60-.75a.5.5,0,0,1-.5-.5v-1a.5.5,0,0,1,.5-.5.5.5,0,0,1,.5.5v1A.5.5,0,0,1,391.17,151.11Zm60-3.25a.5.5,0,0,1-.5-.5v-1a.51.51,0,0,1,.5-.5.5.5,0,0,1,.5.5v1A.5.5,0,0,1,451.17,147.86Zm-60-.75a.5.5,0,0,1-.5-.5v-1a.5.5,0,0,1,.5-.5.5.5,0,0,1,.5.5v1A.5.5,0,0,1,391.17,147.11Zm60-3.25a.5.5,0,0,1-.5-.5v-1a.51.51,0,0,1,.5-.5.5.5,0,0,1,.5.5v1A.5.5,0,0,1,451.17,143.86Zm-60-.75a.5.5,0,0,1-.5-.5v-1a.5.5,0,0,1,.5-.5.5.5,0,0,1,.5.5v1A.5.5,0,0,1,391.17,143.11Zm60-3.25a.5.5,0,0,1-.5-.5v-1a.51.51,0,0,1,.5-.5.5.5,0,0,1,.5.5v1A.5.5,0,0,1,451.17,139.86Zm-60-.75a.5.5,0,0,1-.5-.5v-1a.5.5,0,0,1,.5-.5.5.5,0,0,1,.5.5v1A.5.5,0,0,1,391.17,139.11Zm60-3.25a.5.5,0,0,1-.5-.5v-1a.51.51,0,0,1,.5-.5.5.5,0,0,1,.5.5v1A.5.5,0,0,1,451.17,135.86Zm-60-.75a.5.5,0,0,1-.5-.5v-1a.5.5,0,0,1,.5-.5.5.5,0,0,1,.5.5v1A.5.5,0,0,1,391.17,135.11Zm60-3.25a.5.5,0,0,1-.5-.5v-1a.51.51,0,0,1,.5-.5.5.5,0,0,1,.5.5v1A.5.5,0,0,1,451.17,131.86Zm-60-.75a.5.5,0,0,1-.5-.5v-1a.5.5,0,0,1,.5-.5.5.5,0,0,1,.5.5v1A.5.5,0,0,1,391.17,131.11Zm60-3.25a.5.5,0,0,1-.5-.5v-1a.51.51,0,0,1,.5-.5.5.5,0,0,1,.5.5v1A.5.5,0,0,1,451.17,127.86Zm-60-.75a.5.5,0,0,1-.5-.5v-1a.5.5,0,0,1,.5-.5.5.5,0,0,1,.5.5v1A.5.5,0,0,1,391.17,127.11Zm60-3.25a.5.5,0,0,1-.5-.5v-1a.51.51,0,0,1,.5-.5.5.5,0,0,1,.5.5v1A.5.5,0,0,1,451.17,123.86Zm-60-.75a.5.5,0,0,1-.5-.5v-1s0,0,0-.08A.51.51,0,0,1,391,121l.9-.45a.5.5,0,1,1,.44.9l-.62.31v.85A.5.5,0,0,1,391.17,123.11ZM449.31,121a.46.46,0,0,1-.22-.06l-.9-.44a.52.52,0,0,1-.22-.68.5.5,0,0,1,.67-.22l.9.45a.5.5,0,0,1,.22.67A.51.51,0,0,1,449.31,121Zm-54.56-.86a.48.48,0,0,1-.44-.28.49.49,0,0,1,.22-.67l.89-.45a.5.5,0,0,1,.67.23.49.49,0,0,1-.22.67l-.89.44A.49.49,0,0,1,394.75,120.16Zm51-.93a.46.46,0,0,1-.23-.06l-.89-.44a.5.5,0,1,1,.44-.9l.9.45a.5.5,0,0,1-.22,1Zm-47.41-.86a.5.5,0,0,1-.22-1L399,117a.5.5,0,0,1,.45.9l-.9.45A.54.54,0,0,1,398.33,118.37Zm43.83-.93a.64.64,0,0,1-.23,0l-.89-.45a.49.49,0,0,1-.22-.67.5.5,0,0,1,.67-.23l.89.45a.49.49,0,0,1,.22.67A.48.48,0,0,1,442.16,117.44Zm-40.25-.86a.5.5,0,0,1-.45-.28.51.51,0,0,1,.22-.67l.9-.44a.49.49,0,0,1,.67.22.5.5,0,0,1-.22.67l-.9.45A.59.59,0,0,1,401.91,116.58Zm36.67-.93a.54.54,0,0,1-.22-.05l-.9-.45a.49.49,0,0,1-.22-.67.5.5,0,0,1,.67-.23l.89.45a.5.5,0,0,1-.22,1Zm-33.09-.86a.5.5,0,0,1-.45-.27.51.51,0,0,1,.22-.68l.9-.44a.49.49,0,0,1,.67.22.5.5,0,0,1-.23.67l-.89.45A.59.59,0,0,1,405.49,114.79Zm29.51-.93a.59.59,0,0,1-.22,0l-.9-.45a.5.5,0,0,1-.22-.67.49.49,0,0,1,.67-.22l.9.44a.51.51,0,0,1,.22.67A.5.5,0,0,1,435,113.86ZM409.06,113a.5.5,0,0,1-.22-.94l.89-.45a.51.51,0,0,1,.68.22.5.5,0,0,1-.23.67l-.89.45A.48.48,0,0,1,409.06,113Zm22.36-.93a.59.59,0,0,1-.22,0l-.89-.45a.5.5,0,1,1,.44-.89l.9.44a.51.51,0,0,1,.22.67A.49.49,0,0,1,431.42,112.07Zm-18.78-.86a.51.51,0,0,1-.45-.27.5.5,0,0,1,.23-.67l.89-.45a.5.5,0,0,1,.67.22.49.49,0,0,1-.22.67l-.9.45A.42.42,0,0,1,412.64,111.21Zm15.21-.93a.48.48,0,0,1-.23,0l-.89-.45a.5.5,0,0,1-.23-.67.51.51,0,0,1,.68-.22l.89.45a.5.5,0,0,1-.22.94Zm-11.63-.86a.51.51,0,0,1-.45-.27.5.5,0,0,1,.23-.67l.89-.45a.5.5,0,0,1,.45.89l-.9.45A.44.44,0,0,1,416.22,109.42Zm8-.93a.48.48,0,0,1-.23,0l-.89-.45a.49.49,0,0,1-.22-.67.5.5,0,0,1,.67-.22l.89.45a.5.5,0,0,1,.23.67A.51.51,0,0,1,424.27,108.49Zm-4.47-.85a.51.51,0,0,1-.45-.28.5.5,0,0,1,.22-.67l.9-.45a.5.5,0,1,1,.44.9l-.89.44A.46.46,0,0,1,419.8,107.64Z"/><path class="cls-1" d="M302.18,243.94a.51.51,0,0,1-.45-.27A.5.5,0,0,1,302,243l.89-.45a.5.5,0,1,1,.45.89l-.9.45A.44.44,0,0,1,302.18,243.94Zm-2.68-.33a.46.46,0,0,1-.23-.06l-.89-.44a.51.51,0,0,1-.23-.67.51.51,0,0,1,.68-.23l.89.45a.49.49,0,0,1,.22.67A.48.48,0,0,1,299.5,243.61Zm6.26-1.45a.51.51,0,0,1-.45-.28.5.5,0,0,1,.22-.67l.9-.45a.51.51,0,0,1,.67.22.52.52,0,0,1-.22.68l-.9.44A.46.46,0,0,1,305.76,242.16Zm-9.84-.34a.64.64,0,0,1-.23,0l-.89-.45a.49.49,0,0,1-.22-.67.5.5,0,0,1,.67-.23l.89.45a.5.5,0,0,1-.22.95Zm13.42-1.45a.49.49,0,0,1-.45-.28.49.49,0,0,1,.22-.67l.9-.45a.5.5,0,1,1,.44.9l-.89.44A.46.46,0,0,1,309.34,240.37Zm-17-.34a.59.59,0,0,1-.22-.05l-.9-.45a.5.5,0,0,1-.22-.67.49.49,0,0,1,.67-.22l.89.44a.5.5,0,0,1-.22.95Zm20.57-1.45a.5.5,0,0,1-.22-1l.89-.45a.5.5,0,0,1,.67.23.49.49,0,0,1-.22.67l-.89.44A.49.49,0,0,1,312.91,238.58Zm-24.15-.34a.59.59,0,0,1-.22-.05l-.9-.45a.5.5,0,0,1-.22-.67.49.49,0,0,1,.67-.22l.9.44a.51.51,0,0,1,.22.67A.49.49,0,0,1,288.76,238.24Zm27.73-1.45a.5.5,0,0,1-.22-.95l.89-.45a.5.5,0,0,1,.67.23.49.49,0,0,1-.22.67l-.9.45A.54.54,0,0,1,316.49,236.79Zm-31.3-.34a.59.59,0,0,1-.23,0l-.89-.45a.5.5,0,0,1-.23-.67.49.49,0,0,1,.67-.22l.9.44a.5.5,0,0,1-.22.95ZM320.07,235a.49.49,0,0,1-.45-.28.51.51,0,0,1,.22-.67l.9-.44a.49.49,0,0,1,.67.22.5.5,0,0,1-.22.67l-.9.45A.59.59,0,0,1,320.07,235Zm-38.46-.34a.48.48,0,0,1-.23,0l-.89-.45a.49.49,0,0,1-.22-.67.5.5,0,0,1,.67-.22l.89.45a.5.5,0,0,1-.22.94Zm42-1.45a.49.49,0,0,1-.45-.28.5.5,0,0,1,.22-.67l.9-.44a.49.49,0,0,1,.67.22.5.5,0,0,1-.23.67l-.89.45A.59.59,0,0,1,323.65,233.21ZM278,232.87a.42.42,0,0,1-.22-.05l-.9-.45a.5.5,0,0,1,.45-.89l.89.45a.5.5,0,0,1,.23.67A.51.51,0,0,1,278,232.87Zm49.19-1.45a.49.49,0,0,1-.44-.27.5.5,0,0,1,.22-.68l.89-.44a.5.5,0,1,1,.45.89l-.89.45A.46.46,0,0,1,327.22,231.42Zm-52.77-.33a.46.46,0,0,1-.22-.06l-.9-.44a.52.52,0,0,1-.22-.68.5.5,0,0,1,.67-.22l.9.45a.5.5,0,0,1,.22.67A.52.52,0,0,1,274.45,231.09Zm56.35-1.46a.51.51,0,0,1-.45-.27.5.5,0,0,1,.23-.67l.09-.05v-.28a.51.51,0,0,1,.5-.5.5.5,0,0,1,.5.5V229a.48.48,0,0,1-.27.44l-.38.19A.42.42,0,0,1,330.8,229.63Zm-59.63-.52a.5.5,0,0,1-.5-.5v-1a.5.5,0,0,1,.5-.5.5.5,0,0,1,.5.5v1A.5.5,0,0,1,271.17,229.11Zm60-3.25a.5.5,0,0,1-.5-.5v-1a.51.51,0,0,1,.5-.5.5.5,0,0,1,.5.5v1A.5.5,0,0,1,331.17,225.86Zm-60-.75a.5.5,0,0,1-.5-.5v-1a.5.5,0,0,1,.5-.5.5.5,0,0,1,.5.5v1A.5.5,0,0,1,271.17,225.11Zm60-3.25a.5.5,0,0,1-.5-.5v-1a.51.51,0,0,1,.5-.5.5.5,0,0,1,.5.5v1A.5.5,0,0,1,331.17,221.86Zm-60-.75a.5.5,0,0,1-.5-.5v-1a.5.5,0,0,1,.5-.5.5.5,0,0,1,.5.5v1A.5.5,0,0,1,271.17,221.11Zm60-3.25a.5.5,0,0,1-.5-.5v-1a.51.51,0,0,1,.5-.5.5.5,0,0,1,.5.5v1A.5.5,0,0,1,331.17,217.86Zm-60-.75a.5.5,0,0,1-.5-.5v-1a.5.5,0,0,1,.5-.5.5.5,0,0,1,.5.5v1A.5.5,0,0,1,271.17,217.11Zm60-3.25a.5.5,0,0,1-.5-.5v-1a.51.51,0,0,1,.5-.5.5.5,0,0,1,.5.5v1A.5.5,0,0,1,331.17,213.86Zm-60-.75a.5.5,0,0,1-.5-.5v-1a.5.5,0,0,1,.5-.5.5.5,0,0,1,.5.5v1A.5.5,0,0,1,271.17,213.11Zm60-3.25a.5.5,0,0,1-.5-.5v-1a.51.51,0,0,1,.5-.5.5.5,0,0,1,.5.5v1A.5.5,0,0,1,331.17,209.86Zm-60-.75a.5.5,0,0,1-.5-.5v-1a.5.5,0,0,1,.5-.5.5.5,0,0,1,.5.5v1A.5.5,0,0,1,271.17,209.11Zm60-3.25a.5.5,0,0,1-.5-.5v-1a.51.51,0,0,1,.5-.5.5.5,0,0,1,.5.5v1A.5.5,0,0,1,331.17,205.86Zm-60-.75a.5.5,0,0,1-.5-.5v-1a.5.5,0,0,1,.5-.5.5.5,0,0,1,.5.5v1A.5.5,0,0,1,271.17,205.11Zm60-3.25a.5.5,0,0,1-.5-.5v-1a.51.51,0,0,1,.5-.5.5.5,0,0,1,.5.5v1A.5.5,0,0,1,331.17,201.86Zm-60-.75a.5.5,0,0,1-.5-.5v-1a.5.5,0,0,1,.5-.5.5.5,0,0,1,.5.5v1A.5.5,0,0,1,271.17,201.11Zm60-3.25a.5.5,0,0,1-.5-.5v-1a.51.51,0,0,1,.5-.5.5.5,0,0,1,.5.5v1A.5.5,0,0,1,331.17,197.86Zm-60-.75a.5.5,0,0,1-.5-.5v-1a.5.5,0,0,1,.5-.5.5.5,0,0,1,.5.5v1A.5.5,0,0,1,271.17,197.11Zm60-3.25a.5.5,0,0,1-.5-.5v-1a.51.51,0,0,1,.5-.5.5.5,0,0,1,.5.5v1A.5.5,0,0,1,331.17,193.86Zm-60-.75a.5.5,0,0,1-.5-.5v-1s0-.05,0-.08A.51.51,0,0,1,271,191l.9-.45a.5.5,0,0,1,.44.9l-.62.31v.85A.5.5,0,0,1,271.17,193.11ZM329.31,191a.46.46,0,0,1-.22-.06l-.9-.44a.51.51,0,0,1-.22-.67.5.5,0,0,1,.67-.23l.9.45a.5.5,0,0,1,.22.67A.51.51,0,0,1,329.31,191Zm-54.56-.86a.48.48,0,0,1-.44-.28.49.49,0,0,1,.22-.67l.89-.45a.5.5,0,0,1,.67.23.49.49,0,0,1-.22.67l-.89.44A.46.46,0,0,1,274.75,190.16Zm51-.93a.46.46,0,0,1-.23-.06l-.89-.44a.5.5,0,1,1,.44-.9l.9.45a.5.5,0,0,1-.22.95Zm-47.41-.86a.5.5,0,0,1-.22-1L279,187a.5.5,0,0,1,.45.9l-.9.45A.54.54,0,0,1,278.33,188.37Zm43.83-.93a.64.64,0,0,1-.23-.05l-.89-.45a.49.49,0,0,1-.22-.67.5.5,0,0,1,.67-.23l.89.45a.49.49,0,0,1,.22.67A.48.48,0,0,1,322.16,187.44Zm-40.25-.86a.5.5,0,0,1-.45-.28.51.51,0,0,1,.22-.67l.9-.44a.49.49,0,0,1,.67.22.5.5,0,0,1-.22.67l-.9.45A.59.59,0,0,1,281.91,186.58Zm36.67-.93a.54.54,0,0,1-.22-.05l-.9-.45a.49.49,0,0,1-.22-.67.5.5,0,0,1,.67-.23l.89.45a.5.5,0,0,1-.22,1Zm-33.09-.86a.5.5,0,0,1-.45-.27.51.51,0,0,1,.22-.68l.9-.44a.49.49,0,0,1,.67.22.5.5,0,0,1-.23.67l-.89.45A.59.59,0,0,1,285.49,184.79Zm29.51-.93a.59.59,0,0,1-.22-.05l-.9-.45a.5.5,0,0,1-.22-.67.49.49,0,0,1,.67-.22l.9.44a.51.51,0,0,1,.22.67A.5.5,0,0,1,315,183.86ZM289.06,183a.5.5,0,0,1-.22-.94l.89-.45a.5.5,0,1,1,.45.89l-.89.45A.48.48,0,0,1,289.06,183Zm22.36-.93a.44.44,0,0,1-.22,0l-.89-.45a.5.5,0,1,1,.44-.89l.9.44a.52.52,0,0,1,.22.68A.5.5,0,0,1,311.42,182.07Zm-18.78-.86a.51.51,0,0,1-.45-.27.5.5,0,0,1,.23-.67l.89-.45a.5.5,0,0,1,.67.22.49.49,0,0,1-.22.67l-.9.45A.42.42,0,0,1,292.64,181.21Zm15.21-.93a.48.48,0,0,1-.23-.05l-.89-.45a.5.5,0,0,1-.23-.67.52.52,0,0,1,.68-.22l.89.45a.5.5,0,0,1-.22.94Zm-11.63-.86a.51.51,0,0,1-.45-.27.5.5,0,0,1,.23-.67l.89-.45a.5.5,0,0,1,.67.22.52.52,0,0,1-.22.68l-.9.44A.44.44,0,0,1,296.22,179.42Zm8-.93a.48.48,0,0,1-.23-.05l-.89-.45a.49.49,0,0,1-.22-.67.5.5,0,0,1,.67-.22l.89.45a.5.5,0,0,1,.23.67A.51.51,0,0,1,304.27,178.49Zm-4.47-.85a.51.51,0,0,1-.45-.28.5.5,0,0,1,.22-.67l.9-.45a.5.5,0,1,1,.44.9l-.89.44A.46.46,0,0,1,299.8,177.64Z"/><path class="cls-3" d="M142.18,243.94a.51.51,0,0,1-.45-.27A.5.5,0,0,1,142,243l.89-.45a.5.5,0,1,1,.45.89l-.9.45A.44.44,0,0,1,142.18,243.94Zm-2.68-.33a.46.46,0,0,1-.23-.06l-.89-.44a.51.51,0,0,1-.23-.67.51.51,0,0,1,.68-.23l.89.45a.49.49,0,0,1,.22.67A.48.48,0,0,1,139.5,243.61Zm6.26-1.45a.51.51,0,0,1-.45-.28.5.5,0,0,1,.22-.67l.9-.45a.51.51,0,0,1,.67.22.52.52,0,0,1-.22.68l-.9.44A.46.46,0,0,1,145.76,242.16Zm-9.84-.34a.64.64,0,0,1-.23,0l-.89-.45a.49.49,0,0,1-.22-.67.5.5,0,0,1,.67-.23l.89.45a.5.5,0,0,1-.22.95Zm13.42-1.45a.49.49,0,0,1-.45-.28.49.49,0,0,1,.22-.67l.9-.45a.5.5,0,0,1,.44.9l-.89.44A.46.46,0,0,1,149.34,240.37Zm-17-.34a.59.59,0,0,1-.22-.05l-.9-.45a.5.5,0,0,1-.22-.67.49.49,0,0,1,.67-.22l.89.44a.5.5,0,0,1-.22.95Zm20.57-1.45a.5.5,0,0,1-.22-1l.89-.45a.5.5,0,0,1,.67.23.49.49,0,0,1-.22.67l-.89.44A.49.49,0,0,1,152.91,238.58Zm-24.15-.34a.59.59,0,0,1-.22-.05l-.9-.45a.5.5,0,0,1-.22-.67.49.49,0,0,1,.67-.22l.9.44a.51.51,0,0,1,.22.67A.49.49,0,0,1,128.76,238.24Zm27.73-1.45a.5.5,0,0,1-.22-.95l.89-.45a.5.5,0,0,1,.67.23.49.49,0,0,1-.22.67l-.9.45A.54.54,0,0,1,156.49,236.79Zm-31.3-.34a.59.59,0,0,1-.23,0l-.89-.45a.5.5,0,0,1-.23-.67.49.49,0,0,1,.67-.22l.9.44a.5.5,0,0,1-.22.95ZM160.07,235a.49.49,0,0,1-.45-.28.51.51,0,0,1,.22-.67l.9-.44a.49.49,0,0,1,.67.22.5.5,0,0,1-.22.67l-.9.45A.59.59,0,0,1,160.07,235Zm-38.46-.34a.48.48,0,0,1-.23,0l-.89-.45a.49.49,0,0,1-.22-.67.5.5,0,0,1,.67-.22l.89.45a.5.5,0,0,1-.22.94Zm42-1.45a.49.49,0,0,1-.45-.28.5.5,0,0,1,.22-.67l.9-.44a.49.49,0,0,1,.67.22.5.5,0,0,1-.23.67l-.89.45A.59.59,0,0,1,163.65,233.21ZM118,232.87a.42.42,0,0,1-.22-.05l-.9-.45a.5.5,0,0,1,.45-.89l.89.45a.5.5,0,0,1,.23.67A.51.51,0,0,1,118,232.87Zm49.19-1.45a.49.49,0,0,1-.44-.27.5.5,0,0,1,.22-.68l.89-.44a.5.5,0,1,1,.45.89l-.89.45A.46.46,0,0,1,167.22,231.42Zm-52.77-.33a.46.46,0,0,1-.22-.06l-.9-.44a.52.52,0,0,1-.22-.68.51.51,0,0,1,.67-.22l.9.45a.5.5,0,0,1,.22.67A.52.52,0,0,1,114.45,231.09Zm56.35-1.46a.51.51,0,0,1-.45-.27.5.5,0,0,1,.23-.67l.09-.05v-.28a.51.51,0,0,1,.5-.5.5.5,0,0,1,.5.5V229a.48.48,0,0,1-.27.44l-.38.19A.42.42,0,0,1,170.8,229.63Zm-59.63-.52a.5.5,0,0,1-.5-.5v-1a.5.5,0,0,1,.5-.5.5.5,0,0,1,.5.5v1A.5.5,0,0,1,111.17,229.11Zm60-3.25a.5.5,0,0,1-.5-.5v-1a.51.51,0,0,1,.5-.5.5.5,0,0,1,.5.5v1A.5.5,0,0,1,171.17,225.86Zm-60-.75a.5.5,0,0,1-.5-.5v-1a.5.5,0,0,1,.5-.5.5.5,0,0,1,.5.5v1A.5.5,0,0,1,111.17,225.11Zm60-3.25a.5.5,0,0,1-.5-.5v-1a.51.51,0,0,1,.5-.5.5.5,0,0,1,.5.5v1A.5.5,0,0,1,171.17,221.86Zm-60-.75a.5.5,0,0,1-.5-.5v-1a.5.5,0,0,1,.5-.5.5.5,0,0,1,.5.5v1A.5.5,0,0,1,111.17,221.11Zm60-3.25a.5.5,0,0,1-.5-.5v-1a.51.51,0,0,1,.5-.5.5.5,0,0,1,.5.5v1A.5.5,0,0,1,171.17,217.86Zm-60-.75a.5.5,0,0,1-.5-.5v-1a.5.5,0,0,1,.5-.5.5.5,0,0,1,.5.5v1A.5.5,0,0,1,111.17,217.11Zm60-3.25a.5.5,0,0,1-.5-.5v-1a.51.51,0,0,1,.5-.5.5.5,0,0,1,.5.5v1A.5.5,0,0,1,171.17,213.86Zm-60-.75a.5.5,0,0,1-.5-.5v-1a.5.5,0,0,1,.5-.5.5.5,0,0,1,.5.5v1A.5.5,0,0,1,111.17,213.11Zm60-3.25a.5.5,0,0,1-.5-.5v-1a.51.51,0,0,1,.5-.5.5.5,0,0,1,.5.5v1A.5.5,0,0,1,171.17,209.86Zm-60-.75a.5.5,0,0,1-.5-.5v-1a.5.5,0,0,1,.5-.5.5.5,0,0,1,.5.5v1A.5.5,0,0,1,111.17,209.11Zm60-3.25a.5.5,0,0,1-.5-.5v-1a.51.51,0,0,1,.5-.5.5.5,0,0,1,.5.5v1A.5.5,0,0,1,171.17,205.86Zm-60-.75a.5.5,0,0,1-.5-.5v-1a.5.5,0,0,1,.5-.5.5.5,0,0,1,.5.5v1A.5.5,0,0,1,111.17,205.11Zm60-3.25a.5.5,0,0,1-.5-.5v-1a.51.51,0,0,1,.5-.5.5.5,0,0,1,.5.5v1A.5.5,0,0,1,171.17,201.86Zm-60-.75a.5.5,0,0,1-.5-.5v-1a.5.5,0,0,1,.5-.5.5.5,0,0,1,.5.5v1A.5.5,0,0,1,111.17,201.11Zm60-3.25a.5.5,0,0,1-.5-.5v-1a.51.51,0,0,1,.5-.5.5.5,0,0,1,.5.5v1A.5.5,0,0,1,171.17,197.86Zm-60-.75a.5.5,0,0,1-.5-.5v-1a.5.5,0,0,1,.5-.5.5.5,0,0,1,.5.5v1A.5.5,0,0,1,111.17,197.11Zm60-3.25a.5.5,0,0,1-.5-.5v-1a.51.51,0,0,1,.5-.5.5.5,0,0,1,.5.5v1A.5.5,0,0,1,171.17,193.86Zm-60-.75a.5.5,0,0,1-.5-.5v-1s0-.05,0-.08A.51.51,0,0,1,111,191l.9-.45a.5.5,0,0,1,.44.9l-.62.31v.85A.5.5,0,0,1,111.17,193.11ZM169.31,191a.46.46,0,0,1-.22-.06l-.9-.44a.51.51,0,0,1-.22-.67.5.5,0,0,1,.67-.23l.9.45a.5.5,0,0,1,.22.67A.51.51,0,0,1,169.31,191Zm-54.56-.86a.48.48,0,0,1-.44-.28.49.49,0,0,1,.22-.67l.89-.45a.5.5,0,0,1,.67.23.49.49,0,0,1-.22.67l-.89.44A.46.46,0,0,1,114.75,190.16Zm51-.93a.46.46,0,0,1-.23-.06l-.89-.44a.5.5,0,0,1,.44-.9l.9.45a.5.5,0,0,1-.22.95Zm-47.41-.86a.5.5,0,0,1-.22-1L119,187a.5.5,0,0,1,.45.9l-.9.45A.54.54,0,0,1,118.33,188.37Zm43.83-.93a.64.64,0,0,1-.23-.05l-.89-.45a.49.49,0,0,1-.22-.67.5.5,0,0,1,.67-.23l.89.45a.49.49,0,0,1,.22.67A.48.48,0,0,1,162.16,187.44Zm-40.25-.86a.5.5,0,0,1-.45-.28.51.51,0,0,1,.22-.67l.9-.44a.49.49,0,0,1,.67.22.5.5,0,0,1-.22.67l-.9.45A.59.59,0,0,1,121.91,186.58Zm36.67-.93a.54.54,0,0,1-.22-.05l-.9-.45a.49.49,0,0,1-.22-.67.5.5,0,0,1,.67-.23l.89.45a.5.5,0,0,1-.22,1Zm-33.09-.86a.5.5,0,0,1-.45-.27.51.51,0,0,1,.22-.68l.9-.44a.49.49,0,0,1,.67.22.5.5,0,0,1-.23.67l-.89.45A.59.59,0,0,1,125.49,184.79Zm29.51-.93a.59.59,0,0,1-.22-.05l-.9-.45a.5.5,0,0,1-.22-.67.49.49,0,0,1,.67-.22l.9.44a.51.51,0,0,1,.22.67A.5.5,0,0,1,155,183.86ZM129.06,183a.5.5,0,0,1-.22-.94l.89-.45a.5.5,0,1,1,.45.89l-.89.45A.48.48,0,0,1,129.06,183Zm22.36-.93a.44.44,0,0,1-.22,0l-.89-.45a.5.5,0,1,1,.44-.89l.9.44a.52.52,0,0,1,.22.68A.5.5,0,0,1,151.42,182.07Zm-18.78-.86a.51.51,0,0,1-.45-.27.5.5,0,0,1,.23-.67l.89-.45a.5.5,0,0,1,.67.22.49.49,0,0,1-.22.67l-.9.45A.42.42,0,0,1,132.64,181.21Zm15.21-.93a.48.48,0,0,1-.23-.05l-.89-.45a.5.5,0,0,1-.23-.67.52.52,0,0,1,.68-.22l.89.45a.5.5,0,0,1-.22.94Zm-11.63-.86a.51.51,0,0,1-.45-.27.5.5,0,0,1,.23-.67l.89-.45a.5.5,0,0,1,.67.22.52.52,0,0,1-.22.68l-.9.44A.44.44,0,0,1,136.22,179.42Zm8.05-.93a.48.48,0,0,1-.23-.05l-.89-.45a.49.49,0,0,1-.22-.67.5.5,0,0,1,.67-.22l.89.45a.5.5,0,0,1,.23.67A.51.51,0,0,1,144.27,178.49Zm-4.47-.85a.51.51,0,0,1-.45-.28.5.5,0,0,1,.22-.67l.9-.45a.5.5,0,0,1,.44.9l-.89.44A.46.46,0,0,1,139.8,177.64Z"/><path class="cls-3" d="M142.18,103.94a.51.51,0,0,1-.45-.27A.5.5,0,0,1,142,103l.89-.45a.5.5,0,1,1,.45.89l-.9.45A.44.44,0,0,1,142.18,103.94Zm-2.68-.33a.46.46,0,0,1-.23-.06l-.89-.44a.51.51,0,0,1-.23-.67.51.51,0,0,1,.68-.23l.89.45a.49.49,0,0,1,.22.67A.48.48,0,0,1,139.5,103.61Zm6.26-1.45a.51.51,0,0,1-.45-.28.5.5,0,0,1,.22-.67l.9-.45a.51.51,0,0,1,.67.22.52.52,0,0,1-.22.68l-.9.44A.46.46,0,0,1,145.76,102.16Zm-9.84-.34a.64.64,0,0,1-.23,0l-.89-.45a.49.49,0,0,1-.22-.67.5.5,0,0,1,.67-.23l.89.45a.5.5,0,0,1-.22.95Zm13.42-1.45a.49.49,0,0,1-.45-.28.49.49,0,0,1,.22-.67L150,99a.5.5,0,1,1,.44.9l-.89.44A.46.46,0,0,1,149.34,100.37Zm-17-.34a.59.59,0,0,1-.22,0l-.9-.45a.5.5,0,0,1-.22-.67.49.49,0,0,1,.67-.22l.89.44a.5.5,0,0,1-.22,1Zm20.57-1.45a.5.5,0,0,1-.22-1l.89-.45a.5.5,0,0,1,.67.23.49.49,0,0,1-.22.67l-.89.45A.64.64,0,0,1,152.91,98.58Zm-24.15-.34a.59.59,0,0,1-.22,0l-.9-.45a.5.5,0,0,1-.22-.67.5.5,0,0,1,.67-.22l.9.44a.51.51,0,0,1,.22.67A.49.49,0,0,1,128.76,98.24Zm27.73-1.45a.5.5,0,0,1-.22-1l.89-.45a.5.5,0,0,1,.67.23.49.49,0,0,1-.22.67l-.9.45A.54.54,0,0,1,156.49,96.79Zm-31.3-.34a.59.59,0,0,1-.23,0l-.89-.45a.5.5,0,1,1,.44-.89l.9.44a.5.5,0,0,1-.22,1ZM160.07,95a.49.49,0,0,1-.45-.28.51.51,0,0,1,.22-.67l.9-.44a.49.49,0,0,1,.67.22.5.5,0,0,1-.22.67l-.9.45A.59.59,0,0,1,160.07,95Zm-38.46-.34a.48.48,0,0,1-.23,0l-.89-.45a.49.49,0,0,1-.22-.67.5.5,0,0,1,.67-.22l.89.45a.5.5,0,0,1-.22.94Zm42-1.45a.49.49,0,0,1-.45-.28.5.5,0,0,1,.22-.67l.9-.44A.49.49,0,0,1,165,92a.5.5,0,0,1-.23.67l-.89.45A.59.59,0,0,1,163.65,93.21ZM118,92.87a.42.42,0,0,1-.22-.05l-.9-.45a.5.5,0,0,1,.45-.89l.89.45a.5.5,0,0,1,.23.67A.51.51,0,0,1,118,92.87Zm49.19-1.45a.49.49,0,0,1-.44-.27.5.5,0,0,1,.22-.68l.89-.44a.51.51,0,0,1,.68.22.5.5,0,0,1-.23.67l-.89.45A.46.46,0,0,1,167.22,91.42Zm-52.77-.33a.46.46,0,0,1-.22-.06l-.9-.44a.52.52,0,0,1-.22-.68.51.51,0,0,1,.67-.22l.9.45a.5.5,0,0,1,.22.67A.52.52,0,0,1,114.45,91.09Zm56.35-1.46a.51.51,0,0,1-.45-.27.5.5,0,0,1,.23-.67l.09,0v-.28a.51.51,0,0,1,.5-.5.5.5,0,0,1,.5.5V89a.48.48,0,0,1-.27.44l-.38.19A.42.42,0,0,1,170.8,89.63Zm-59.63-.52a.5.5,0,0,1-.5-.5v-1a.5.5,0,0,1,.5-.5.5.5,0,0,1,.5.5v1A.5.5,0,0,1,111.17,89.11Zm60-3.25a.5.5,0,0,1-.5-.5v-1a.51.51,0,0,1,.5-.5.5.5,0,0,1,.5.5v1A.5.5,0,0,1,171.17,85.86Zm-60-.75a.5.5,0,0,1-.5-.5v-1a.5.5,0,0,1,.5-.5.5.5,0,0,1,.5.5v1A.5.5,0,0,1,111.17,85.11Zm60-3.25a.5.5,0,0,1-.5-.5v-1a.51.51,0,0,1,.5-.5.5.5,0,0,1,.5.5v1A.5.5,0,0,1,171.17,81.86Zm-60-.75a.5.5,0,0,1-.5-.5v-1a.5.5,0,0,1,.5-.5.5.5,0,0,1,.5.5v1A.5.5,0,0,1,111.17,81.11Zm60-3.25a.5.5,0,0,1-.5-.5v-1a.51.51,0,0,1,.5-.5.5.5,0,0,1,.5.5v1A.5.5,0,0,1,171.17,77.86Zm-60-.75a.5.5,0,0,1-.5-.5v-1a.5.5,0,0,1,.5-.5.5.5,0,0,1,.5.5v1A.5.5,0,0,1,111.17,77.11Zm60-3.25a.5.5,0,0,1-.5-.5v-1a.51.51,0,0,1,.5-.5.5.5,0,0,1,.5.5v1A.5.5,0,0,1,171.17,73.86Zm-60-.75a.5.5,0,0,1-.5-.5v-1a.5.5,0,0,1,.5-.5.5.5,0,0,1,.5.5v1A.5.5,0,0,1,111.17,73.11Zm60-3.25a.5.5,0,0,1-.5-.5v-1a.51.51,0,0,1,.5-.5.5.5,0,0,1,.5.5v1A.5.5,0,0,1,171.17,69.86Zm-60-.75a.5.5,0,0,1-.5-.5v-1a.5.5,0,0,1,.5-.5.5.5,0,0,1,.5.5v1A.5.5,0,0,1,111.17,69.11Zm60-3.25a.5.5,0,0,1-.5-.5v-1a.51.51,0,0,1,.5-.5.5.5,0,0,1,.5.5v1A.5.5,0,0,1,171.17,65.86Zm-60-.75a.5.5,0,0,1-.5-.5v-1a.5.5,0,0,1,.5-.5.5.5,0,0,1,.5.5v1A.5.5,0,0,1,111.17,65.11Zm60-3.25a.5.5,0,0,1-.5-.5v-1a.51.51,0,0,1,.5-.5.5.5,0,0,1,.5.5v1A.5.5,0,0,1,171.17,61.86Zm-60-.75a.5.5,0,0,1-.5-.5v-1a.5.5,0,0,1,.5-.5.5.5,0,0,1,.5.5v1A.5.5,0,0,1,111.17,61.11Zm60-3.25a.5.5,0,0,1-.5-.5v-1a.51.51,0,0,1,.5-.5.5.5,0,0,1,.5.5v1A.5.5,0,0,1,171.17,57.86Zm-60-.75a.5.5,0,0,1-.5-.5v-1a.5.5,0,0,1,.5-.5.5.5,0,0,1,.5.5v1A.5.5,0,0,1,111.17,57.11Zm60-3.25a.5.5,0,0,1-.5-.5v-1a.51.51,0,0,1,.5-.5.5.5,0,0,1,.5.5v1A.5.5,0,0,1,171.17,53.86Zm-60-.75a.5.5,0,0,1-.5-.5v-1s0,0,0-.08A.51.51,0,0,1,111,51l.9-.45a.5.5,0,1,1,.44.9l-.62.31v.85A.5.5,0,0,1,111.17,53.11ZM169.31,51a.46.46,0,0,1-.22-.06l-.9-.44a.52.52,0,0,1-.22-.68.51.51,0,0,1,.67-.22l.9.45a.5.5,0,0,1,.22.67A.51.51,0,0,1,169.31,51Zm-54.56-.86a.48.48,0,0,1-.44-.28.49.49,0,0,1,.22-.67l.89-.45a.5.5,0,0,1,.67.23.49.49,0,0,1-.22.67l-.89.44A.49.49,0,0,1,114.75,50.16Zm51-.93a.46.46,0,0,1-.23-.06l-.89-.44a.5.5,0,0,1,.44-.9l.9.45a.5.5,0,0,1-.22.95Zm-47.41-.86a.5.5,0,0,1-.22-.95L119,47a.5.5,0,0,1,.45.9l-.9.45A.54.54,0,0,1,118.33,48.37Zm43.83-.93a.64.64,0,0,1-.23,0l-.89-.45a.49.49,0,0,1-.22-.67.5.5,0,0,1,.67-.23l.89.45a.49.49,0,0,1,.22.67A.48.48,0,0,1,162.16,47.44Zm-40.25-.86a.5.5,0,0,1-.45-.28.51.51,0,0,1,.22-.67l.9-.44a.49.49,0,0,1,.67.22.5.5,0,0,1-.22.67l-.9.45A.59.59,0,0,1,121.91,46.58Zm36.67-.93a.54.54,0,0,1-.22,0l-.9-.45a.49.49,0,0,1-.22-.67.5.5,0,0,1,.67-.23l.89.45a.5.5,0,0,1-.22.95Zm-33.09-.86a.5.5,0,0,1-.45-.27.51.51,0,0,1,.22-.68l.9-.44a.5.5,0,1,1,.44.89l-.89.45A.59.59,0,0,1,125.49,44.79ZM155,43.86a.59.59,0,0,1-.22,0l-.9-.45a.5.5,0,0,1-.22-.67.49.49,0,0,1,.67-.22l.9.44a.51.51,0,0,1,.22.67A.5.5,0,0,1,155,43.86ZM129.06,43a.5.5,0,0,1-.22-.94l.89-.45a.51.51,0,0,1,.68.22.5.5,0,0,1-.23.67l-.89.45A.48.48,0,0,1,129.06,43Zm22.36-.93a.59.59,0,0,1-.22,0l-.89-.45a.5.5,0,1,1,.44-.89l.9.44a.51.51,0,0,1,.22.67A.49.49,0,0,1,151.42,42.07Zm-18.78-.86a.51.51,0,0,1-.45-.27.5.5,0,0,1,.23-.67l.89-.45A.5.5,0,0,1,134,40a.49.49,0,0,1-.22.67l-.9.45A.42.42,0,0,1,132.64,41.21Zm15.21-.93a.48.48,0,0,1-.23-.05l-.89-.45a.5.5,0,0,1-.23-.67.51.51,0,0,1,.68-.22l.89.45a.5.5,0,0,1-.22.94Zm-11.63-.86a.51.51,0,0,1-.45-.27.5.5,0,0,1,.23-.67l.89-.45a.5.5,0,1,1,.45.89l-.9.45A.44.44,0,0,1,136.22,39.42Zm8.05-.93a.48.48,0,0,1-.23-.05l-.89-.45a.49.49,0,0,1-.22-.67.5.5,0,0,1,.67-.22l.89.45a.5.5,0,0,1,.23.67A.51.51,0,0,1,144.27,38.49Zm-4.47-.85a.51.51,0,0,1-.45-.28.5.5,0,0,1,.22-.67l.9-.45a.5.5,0,0,1,.44.9l-.89.44A.46.46,0,0,1,139.8,37.64Z"/><path class="cls-3" d="M102.18,173.94a.51.51,0,0,1-.45-.27A.5.5,0,0,1,102,173l.89-.45a.5.5,0,1,1,.45.89l-.9.45A.44.44,0,0,1,102.18,173.94Zm-2.68-.33a.46.46,0,0,1-.23-.06l-.89-.44a.51.51,0,0,1-.23-.67.51.51,0,0,1,.68-.23l.89.45a.49.49,0,0,1,.22.67A.48.48,0,0,1,99.5,173.61Zm6.26-1.45a.51.51,0,0,1-.45-.28.5.5,0,0,1,.22-.67l.9-.45a.51.51,0,0,1,.67.22.52.52,0,0,1-.22.68l-.9.44A.46.46,0,0,1,105.76,172.16Zm-9.84-.34a.64.64,0,0,1-.23,0l-.89-.45a.49.49,0,0,1-.22-.67.5.5,0,0,1,.67-.23l.89.45a.5.5,0,0,1-.22.95Zm13.42-1.45a.49.49,0,0,1-.45-.28.49.49,0,0,1,.22-.67l.9-.45a.5.5,0,1,1,.44.9l-.89.44A.46.46,0,0,1,109.34,170.37Zm-17-.34a.59.59,0,0,1-.22-.05l-.9-.45a.5.5,0,0,1-.22-.67.49.49,0,0,1,.67-.22l.89.44a.5.5,0,0,1-.22.95Zm20.57-1.45a.5.5,0,0,1-.22-1l.89-.45a.5.5,0,0,1,.67.23.49.49,0,0,1-.22.67l-.89.44A.49.49,0,0,1,112.91,168.58Zm-24.15-.34a.59.59,0,0,1-.22-.05l-.9-.45a.5.5,0,0,1-.22-.67.49.49,0,0,1,.67-.22l.9.44a.51.51,0,0,1,.22.67A.49.49,0,0,1,88.76,168.24Zm27.73-1.45a.5.5,0,0,1-.22-.95l.89-.45a.5.5,0,0,1,.67.23.49.49,0,0,1-.22.67l-.9.45A.54.54,0,0,1,116.49,166.79Zm-31.3-.34a.59.59,0,0,1-.23,0l-.89-.45a.5.5,0,0,1-.23-.67.49.49,0,0,1,.67-.22l.9.44a.5.5,0,0,1-.22.95ZM120.07,165a.49.49,0,0,1-.45-.28.51.51,0,0,1,.22-.67l.9-.44a.49.49,0,0,1,.67.22.5.5,0,0,1-.22.67l-.9.45A.59.59,0,0,1,120.07,165Zm-38.46-.34a.48.48,0,0,1-.23,0l-.89-.45a.49.49,0,0,1-.22-.67.5.5,0,0,1,.67-.22l.89.45a.5.5,0,0,1-.22.94Zm42-1.45a.49.49,0,0,1-.45-.28.5.5,0,0,1,.22-.67l.9-.44a.49.49,0,0,1,.67.22.5.5,0,0,1-.23.67l-.89.45A.59.59,0,0,1,123.65,163.21ZM78,162.87a.42.42,0,0,1-.22-.05l-.9-.45a.5.5,0,1,1,.45-.89l.89.45a.5.5,0,0,1,.23.67A.51.51,0,0,1,78,162.87Zm49.19-1.45a.49.49,0,0,1-.44-.27.5.5,0,0,1,.22-.68l.89-.44a.5.5,0,1,1,.45.89l-.89.45A.46.46,0,0,1,127.22,161.42Zm-52.77-.33a.46.46,0,0,1-.22-.06l-.9-.44a.52.52,0,0,1-.22-.68.51.51,0,0,1,.67-.22l.9.45a.5.5,0,0,1,.22.67A.52.52,0,0,1,74.45,161.09Zm56.35-1.46a.51.51,0,0,1-.45-.27.5.5,0,0,1,.23-.67l.09-.05v-.28a.51.51,0,0,1,.5-.5.5.5,0,0,1,.5.5V159a.48.48,0,0,1-.27.44l-.38.19A.42.42,0,0,1,130.8,159.63Zm-59.63-.52a.5.5,0,0,1-.5-.5v-1a.5.5,0,0,1,.5-.5.5.5,0,0,1,.5.5v1A.5.5,0,0,1,71.17,159.11Zm60-3.25a.5.5,0,0,1-.5-.5v-1a.51.51,0,0,1,.5-.5.5.5,0,0,1,.5.5v1A.5.5,0,0,1,131.17,155.86Zm-60-.75a.5.5,0,0,1-.5-.5v-1a.5.5,0,0,1,.5-.5.5.5,0,0,1,.5.5v1A.5.5,0,0,1,71.17,155.11Zm60-3.25a.5.5,0,0,1-.5-.5v-1a.51.51,0,0,1,.5-.5.5.5,0,0,1,.5.5v1A.5.5,0,0,1,131.17,151.86Zm-60-.75a.5.5,0,0,1-.5-.5v-1a.5.5,0,0,1,.5-.5.5.5,0,0,1,.5.5v1A.5.5,0,0,1,71.17,151.11Zm60-3.25a.5.5,0,0,1-.5-.5v-1a.51.51,0,0,1,.5-.5.5.5,0,0,1,.5.5v1A.5.5,0,0,1,131.17,147.86Zm-60-.75a.5.5,0,0,1-.5-.5v-1a.5.5,0,0,1,.5-.5.5.5,0,0,1,.5.5v1A.5.5,0,0,1,71.17,147.11Zm60-3.25a.5.5,0,0,1-.5-.5v-1a.51.51,0,0,1,.5-.5.5.5,0,0,1,.5.5v1A.5.5,0,0,1,131.17,143.86Zm-60-.75a.5.5,0,0,1-.5-.5v-1a.5.5,0,0,1,.5-.5.5.5,0,0,1,.5.5v1A.5.5,0,0,1,71.17,143.11Zm60-3.25a.5.5,0,0,1-.5-.5v-1a.51.51,0,0,1,.5-.5.5.5,0,0,1,.5.5v1A.5.5,0,0,1,131.17,139.86Zm-60-.75a.5.5,0,0,1-.5-.5v-1a.5.5,0,0,1,.5-.5.5.5,0,0,1,.5.5v1A.5.5,0,0,1,71.17,139.11Zm60-3.25a.5.5,0,0,1-.5-.5v-1a.51.51,0,0,1,.5-.5.5.5,0,0,1,.5.5v1A.5.5,0,0,1,131.17,135.86Zm-60-.75a.5.5,0,0,1-.5-.5v-1a.5.5,0,0,1,.5-.5.5.5,0,0,1,.5.5v1A.5.5,0,0,1,71.17,135.11Zm60-3.25a.5.5,0,0,1-.5-.5v-1a.51.51,0,0,1,.5-.5.5.5,0,0,1,.5.5v1A.5.5,0,0,1,131.17,131.86Zm-60-.75a.5.5,0,0,1-.5-.5v-1a.5.5,0,0,1,.5-.5.5.5,0,0,1,.5.5v1A.5.5,0,0,1,71.17,131.11Zm60-3.25a.5.5,0,0,1-.5-.5v-1a.51.51,0,0,1,.5-.5.5.5,0,0,1,.5.5v1A.5.5,0,0,1,131.17,127.86Zm-60-.75a.5.5,0,0,1-.5-.5v-1a.5.5,0,0,1,.5-.5.5.5,0,0,1,.5.5v1A.5.5,0,0,1,71.17,127.11Zm60-3.25a.5.5,0,0,1-.5-.5v-1a.51.51,0,0,1,.5-.5.5.5,0,0,1,.5.5v1A.5.5,0,0,1,131.17,123.86Zm-60-.75a.5.5,0,0,1-.5-.5v-1s0,0,0-.08A.51.51,0,0,1,71,121l.9-.45a.5.5,0,0,1,.44.9l-.62.31v.85A.5.5,0,0,1,71.17,123.11ZM129.31,121a.46.46,0,0,1-.22-.06l-.9-.44a.52.52,0,0,1-.22-.68.51.51,0,0,1,.67-.22l.9.45a.5.5,0,0,1,.22.67A.51.51,0,0,1,129.31,121Zm-54.56-.86a.48.48,0,0,1-.44-.28.49.49,0,0,1,.22-.67l.89-.45a.5.5,0,0,1,.67.23.49.49,0,0,1-.22.67l-.89.44A.49.49,0,0,1,74.75,120.16Zm51-.93a.46.46,0,0,1-.23-.06l-.89-.44a.5.5,0,0,1,.44-.9l.9.45a.5.5,0,0,1-.22,1Zm-47.41-.86a.5.5,0,0,1-.22-1L79,117a.5.5,0,0,1,.45.9l-.9.45A.54.54,0,0,1,78.33,118.37Zm43.83-.93a.64.64,0,0,1-.23,0l-.89-.45a.49.49,0,0,1-.22-.67.5.5,0,0,1,.67-.23l.89.45a.49.49,0,0,1,.22.67A.48.48,0,0,1,122.16,117.44Zm-40.25-.86a.5.5,0,0,1-.45-.28.51.51,0,0,1,.22-.67l.9-.44a.49.49,0,0,1,.67.22.5.5,0,0,1-.22.67l-.9.45A.59.59,0,0,1,81.91,116.58Zm36.67-.93a.54.54,0,0,1-.22-.05l-.9-.45a.49.49,0,0,1-.22-.67.5.5,0,0,1,.67-.23l.89.45a.5.5,0,0,1-.22,1Zm-33.09-.86a.5.5,0,0,1-.45-.27.51.51,0,0,1,.22-.68l.9-.44a.49.49,0,0,1,.67.22.5.5,0,0,1-.23.67l-.89.45A.59.59,0,0,1,85.49,114.79Zm29.51-.93a.59.59,0,0,1-.22,0l-.9-.45a.5.5,0,0,1-.22-.67.49.49,0,0,1,.67-.22l.9.44a.51.51,0,0,1,.22.67A.5.5,0,0,1,115,113.86ZM89.06,113a.5.5,0,0,1-.22-.94l.89-.45a.51.51,0,0,1,.68.22.5.5,0,0,1-.23.67l-.89.45A.48.48,0,0,1,89.06,113Zm22.36-.93a.59.59,0,0,1-.22,0l-.89-.45a.5.5,0,1,1,.44-.89l.9.44a.51.51,0,0,1,.22.67A.49.49,0,0,1,111.42,112.07Zm-18.78-.86a.51.51,0,0,1-.45-.27.5.5,0,0,1,.23-.67l.89-.45A.5.5,0,0,1,94,110a.49.49,0,0,1-.22.67l-.9.45A.42.42,0,0,1,92.64,111.21Zm15.21-.93a.48.48,0,0,1-.23,0l-.89-.45a.5.5,0,0,1-.23-.67.51.51,0,0,1,.68-.22l.89.45a.5.5,0,0,1-.22.94Zm-11.63-.86a.51.51,0,0,1-.45-.27.5.5,0,0,1,.23-.67l.89-.45a.5.5,0,1,1,.45.89l-.9.45A.44.44,0,0,1,96.22,109.42Zm8-.93a.48.48,0,0,1-.23,0l-.89-.45a.49.49,0,0,1-.22-.67.5.5,0,0,1,.67-.22l.89.45a.5.5,0,0,1,.23.67A.51.51,0,0,1,104.27,108.49Zm-4.47-.85a.51.51,0,0,1-.45-.28.5.5,0,0,1,.22-.67l.9-.45a.5.5,0,1,1,.44.9l-.89.44A.46.46,0,0,1,99.8,107.64Z"/><path class="cls-3" d="M302.18,103.94a.51.51,0,0,1-.45-.27A.5.5,0,0,1,302,103l.89-.45a.5.5,0,0,1,.45.89l-.9.45A.44.44,0,0,1,302.18,103.94Zm-2.68-.33a.46.46,0,0,1-.23-.06l-.89-.44a.51.51,0,0,1-.23-.67.51.51,0,0,1,.68-.23l.89.45a.49.49,0,0,1,.22.67A.48.48,0,0,1,299.5,103.61Zm6.26-1.45a.51.51,0,0,1-.45-.28.5.5,0,0,1,.22-.67l.9-.45a.51.51,0,0,1,.67.22.52.52,0,0,1-.22.68l-.9.44A.46.46,0,0,1,305.76,102.16Zm-9.84-.34a.64.64,0,0,1-.23,0l-.89-.45a.49.49,0,0,1-.22-.67.5.5,0,0,1,.67-.23l.89.45a.5.5,0,0,1-.22.95Zm13.42-1.45a.49.49,0,0,1-.45-.28.49.49,0,0,1,.22-.67L310,99a.5.5,0,1,1,.44.9l-.89.44A.46.46,0,0,1,309.34,100.37Zm-17-.34a.59.59,0,0,1-.22,0l-.9-.45a.5.5,0,0,1-.22-.67.49.49,0,0,1,.67-.22l.89.44a.5.5,0,0,1-.22,1Zm20.57-1.45a.5.5,0,0,1-.22-1l.89-.45a.5.5,0,0,1,.67.23.49.49,0,0,1-.22.67l-.89.45A.64.64,0,0,1,312.91,98.58Zm-24.15-.34a.59.59,0,0,1-.22,0l-.9-.45a.5.5,0,0,1-.22-.67.5.5,0,0,1,.67-.22l.9.44a.51.51,0,0,1,.22.67A.49.49,0,0,1,288.76,98.24Zm27.73-1.45a.5.5,0,0,1-.22-1l.89-.45a.5.5,0,0,1,.67.23.49.49,0,0,1-.22.67l-.9.45A.54.54,0,0,1,316.49,96.79Zm-31.3-.34a.59.59,0,0,1-.23,0l-.89-.45a.5.5,0,1,1,.44-.89l.9.44a.5.5,0,0,1-.22,1ZM320.07,95a.49.49,0,0,1-.45-.28.51.51,0,0,1,.22-.67l.9-.44a.49.49,0,0,1,.67.22.5.5,0,0,1-.22.67l-.9.45A.59.59,0,0,1,320.07,95Zm-38.46-.34a.48.48,0,0,1-.23,0l-.89-.45a.49.49,0,0,1-.22-.67.5.5,0,0,1,.67-.22l.89.45a.5.5,0,0,1-.22.94Zm42-1.45a.49.49,0,0,1-.45-.28.5.5,0,0,1,.22-.67l.9-.44A.49.49,0,0,1,325,92a.5.5,0,0,1-.23.67l-.89.45A.59.59,0,0,1,323.65,93.21ZM278,92.87a.42.42,0,0,1-.22-.05l-.9-.45a.5.5,0,0,1,.45-.89l.89.45a.5.5,0,0,1,.23.67A.51.51,0,0,1,278,92.87Zm49.19-1.45a.49.49,0,0,1-.44-.27.5.5,0,0,1,.22-.68l.89-.44a.51.51,0,0,1,.68.22.5.5,0,0,1-.23.67l-.89.45A.46.46,0,0,1,327.22,91.42Zm-52.77-.33a.46.46,0,0,1-.22-.06l-.9-.44a.52.52,0,0,1-.22-.68.5.5,0,0,1,.67-.22l.9.45a.5.5,0,0,1,.22.67A.52.52,0,0,1,274.45,91.09Zm56.35-1.46a.51.51,0,0,1-.45-.27.5.5,0,0,1,.23-.67l.09,0v-.28a.51.51,0,0,1,.5-.5.5.5,0,0,1,.5.5V89a.48.48,0,0,1-.27.44l-.38.19A.42.42,0,0,1,330.8,89.63Zm-59.63-.52a.5.5,0,0,1-.5-.5v-1a.5.5,0,0,1,.5-.5.5.5,0,0,1,.5.5v1A.5.5,0,0,1,271.17,89.11Zm60-3.25a.5.5,0,0,1-.5-.5v-1a.51.51,0,0,1,.5-.5.5.5,0,0,1,.5.5v1A.5.5,0,0,1,331.17,85.86Zm-60-.75a.5.5,0,0,1-.5-.5v-1a.5.5,0,0,1,.5-.5.5.5,0,0,1,.5.5v1A.5.5,0,0,1,271.17,85.11Zm60-3.25a.5.5,0,0,1-.5-.5v-1a.51.51,0,0,1,.5-.5.5.5,0,0,1,.5.5v1A.5.5,0,0,1,331.17,81.86Zm-60-.75a.5.5,0,0,1-.5-.5v-1a.5.5,0,0,1,.5-.5.5.5,0,0,1,.5.5v1A.5.5,0,0,1,271.17,81.11Zm60-3.25a.5.5,0,0,1-.5-.5v-1a.51.51,0,0,1,.5-.5.5.5,0,0,1,.5.5v1A.5.5,0,0,1,331.17,77.86Zm-60-.75a.5.5,0,0,1-.5-.5v-1a.5.5,0,0,1,.5-.5.5.5,0,0,1,.5.5v1A.5.5,0,0,1,271.17,77.11Zm60-3.25a.5.5,0,0,1-.5-.5v-1a.51.51,0,0,1,.5-.5.5.5,0,0,1,.5.5v1A.5.5,0,0,1,331.17,73.86Zm-60-.75a.5.5,0,0,1-.5-.5v-1a.5.5,0,0,1,.5-.5.5.5,0,0,1,.5.5v1A.5.5,0,0,1,271.17,73.11Zm60-3.25a.5.5,0,0,1-.5-.5v-1a.51.51,0,0,1,.5-.5.5.5,0,0,1,.5.5v1A.5.5,0,0,1,331.17,69.86Zm-60-.75a.5.5,0,0,1-.5-.5v-1a.5.5,0,0,1,.5-.5.5.5,0,0,1,.5.5v1A.5.5,0,0,1,271.17,69.11Zm60-3.25a.5.5,0,0,1-.5-.5v-1a.51.51,0,0,1,.5-.5.5.5,0,0,1,.5.5v1A.5.5,0,0,1,331.17,65.86Zm-60-.75a.5.5,0,0,1-.5-.5v-1a.5.5,0,0,1,.5-.5.5.5,0,0,1,.5.5v1A.5.5,0,0,1,271.17,65.11Zm60-3.25a.5.5,0,0,1-.5-.5v-1a.51.51,0,0,1,.5-.5.5.5,0,0,1,.5.5v1A.5.5,0,0,1,331.17,61.86Zm-60-.75a.5.5,0,0,1-.5-.5v-1a.5.5,0,0,1,.5-.5.5.5,0,0,1,.5.5v1A.5.5,0,0,1,271.17,61.11Zm60-3.25a.5.5,0,0,1-.5-.5v-1a.51.51,0,0,1,.5-.5.5.5,0,0,1,.5.5v1A.5.5,0,0,1,331.17,57.86Zm-60-.75a.5.5,0,0,1-.5-.5v-1a.5.5,0,0,1,.5-.5.5.5,0,0,1,.5.5v1A.5.5,0,0,1,271.17,57.11Zm60-3.25a.5.5,0,0,1-.5-.5v-1a.51.51,0,0,1,.5-.5.5.5,0,0,1,.5.5v1A.5.5,0,0,1,331.17,53.86Zm-60-.75a.5.5,0,0,1-.5-.5v-1s0,0,0-.08A.51.51,0,0,1,271,51l.9-.45a.5.5,0,1,1,.44.9l-.62.31v.85A.5.5,0,0,1,271.17,53.11ZM329.31,51a.46.46,0,0,1-.22-.06l-.9-.44a.52.52,0,0,1-.22-.68.5.5,0,0,1,.67-.22l.9.45a.5.5,0,0,1,.22.67A.51.51,0,0,1,329.31,51Zm-54.56-.86a.48.48,0,0,1-.44-.28.49.49,0,0,1,.22-.67l.89-.45a.5.5,0,0,1,.67.23.49.49,0,0,1-.22.67l-.89.44A.49.49,0,0,1,274.75,50.16Zm51-.93a.46.46,0,0,1-.23-.06l-.89-.44a.5.5,0,0,1,.44-.9l.9.45a.5.5,0,0,1-.22.95Zm-47.41-.86a.5.5,0,0,1-.22-.95L279,47a.5.5,0,0,1,.45.9l-.9.45A.54.54,0,0,1,278.33,48.37Zm43.83-.93a.64.64,0,0,1-.23,0l-.89-.45a.49.49,0,0,1-.22-.67.5.5,0,0,1,.67-.23l.89.45a.49.49,0,0,1,.22.67A.48.48,0,0,1,322.16,47.44Zm-40.25-.86a.5.5,0,0,1-.45-.28.51.51,0,0,1,.22-.67l.9-.44a.49.49,0,0,1,.67.22.5.5,0,0,1-.22.67l-.9.45A.59.59,0,0,1,281.91,46.58Zm36.67-.93a.54.54,0,0,1-.22,0l-.9-.45a.49.49,0,0,1-.22-.67.5.5,0,0,1,.67-.23l.89.45a.5.5,0,0,1-.22.95Zm-33.09-.86a.5.5,0,0,1-.45-.27.51.51,0,0,1,.22-.68l.9-.44a.5.5,0,1,1,.44.89l-.89.45A.59.59,0,0,1,285.49,44.79ZM315,43.86a.59.59,0,0,1-.22,0l-.9-.45a.5.5,0,0,1-.22-.67.49.49,0,0,1,.67-.22l.9.44a.51.51,0,0,1,.22.67A.5.5,0,0,1,315,43.86ZM289.06,43a.5.5,0,0,1-.22-.94l.89-.45a.51.51,0,0,1,.68.22.5.5,0,0,1-.23.67l-.89.45A.48.48,0,0,1,289.06,43Zm22.36-.93a.59.59,0,0,1-.22,0l-.89-.45a.5.5,0,1,1,.44-.89l.9.44a.51.51,0,0,1,.22.67A.49.49,0,0,1,311.42,42.07Zm-18.78-.86a.51.51,0,0,1-.45-.27.5.5,0,0,1,.23-.67l.89-.45A.5.5,0,0,1,294,40a.49.49,0,0,1-.22.67l-.9.45A.42.42,0,0,1,292.64,41.21Zm15.21-.93a.48.48,0,0,1-.23-.05l-.89-.45a.5.5,0,0,1-.23-.67.51.51,0,0,1,.68-.22l.89.45a.5.5,0,0,1-.22.94Zm-11.63-.86a.51.51,0,0,1-.45-.27.5.5,0,0,1,.23-.67l.89-.45a.5.5,0,1,1,.45.89l-.9.45A.44.44,0,0,1,296.22,39.42Zm8-.93a.48.48,0,0,1-.23-.05l-.89-.45a.49.49,0,0,1-.22-.67.5.5,0,0,1,.67-.22l.89.45a.5.5,0,0,1,.23.67A.51.51,0,0,1,304.27,38.49Zm-4.47-.85a.51.51,0,0,1-.45-.28.5.5,0,0,1,.22-.67l.9-.45a.5.5,0,0,1,.44.9l-.89.44A.46.46,0,0,1,299.8,37.64Z"/><path class="cls-3" d="M421.59,96.92a.46.46,0,0,1-.23-.06l-.44-.22a.51.51,0,0,1-.23-.68.52.52,0,0,1,.68-.22l.44.23a.49.49,0,0,1,.22.67A.48.48,0,0,1,421.59,96.92Z"/><path class="cls-3" d="M424.92,98.6a.59.59,0,0,1-.23,0l-.83-.42a.5.5,0,0,1,.45-.9l.83.42a.5.5,0,0,1,.22.68A.49.49,0,0,1,424.92,98.6Z"/><path class="cls-3" d="M458.23,115.46a.49.49,0,0,1-.23-.06l-.83-.42a.5.5,0,0,1-.22-.67.49.49,0,0,1,.67-.22l.84.42a.51.51,0,0,1,.22.67A.5.5,0,0,1,458.23,115.46Zm-3.33-1.69a.64.64,0,0,1-.23,0l-.83-.42a.51.51,0,0,1-.22-.68.5.5,0,0,1,.67-.22l.84.43a.5.5,0,0,1,.22.67A.51.51,0,0,1,454.9,113.77Zm-3.33-1.68a.49.49,0,0,1-.23-.06l-.83-.42a.5.5,0,0,1,.45-.89l.83.42a.49.49,0,0,1,.22.67A.48.48,0,0,1,451.57,112.09Zm-3.33-1.69a.59.59,0,0,1-.23-.05l-.83-.42a.5.5,0,0,1,.45-.9l.83.42a.5.5,0,0,1,.22.68A.49.49,0,0,1,448.24,110.4Zm-3.33-1.69a.46.46,0,0,1-.23,0l-.83-.42a.49.49,0,0,1-.22-.67.49.49,0,0,1,.67-.22l.83.42a.49.49,0,0,1,.22.67A.5.5,0,0,1,444.91,108.71ZM441.57,107a.46.46,0,0,1-.22-.06l-.83-.42a.49.49,0,0,1-.22-.67.5.5,0,0,1,.67-.22l.83.42a.5.5,0,0,1-.23,1Zm-3.33-1.69a.44.44,0,0,1-.22,0l-.84-.42a.51.51,0,0,1-.22-.67.5.5,0,0,1,.68-.22l.83.42a.5.5,0,0,1-.23.94Zm-3.33-1.68a.46.46,0,0,1-.22-.06l-.84-.42a.5.5,0,0,1-.22-.67.49.49,0,0,1,.67-.22l.84.42a.51.51,0,0,1,.22.67A.5.5,0,0,1,434.91,103.66ZM431.58,102a.54.54,0,0,1-.22,0l-.84-.42a.5.5,0,0,1,.45-.9l.84.43a.5.5,0,0,1,.22.67A.51.51,0,0,1,431.58,102Zm-3.33-1.68a.49.49,0,0,1-.23-.06l-.83-.42a.5.5,0,0,1-.22-.67.49.49,0,0,1,.67-.22l.84.42a.51.51,0,0,1,.22.67A.5.5,0,0,1,428.25,100.29Z"/><path class="cls-3" d="M461.17,117a.46.46,0,0,1-.22-.06l-.45-.22a.5.5,0,0,1,.45-.9l.45.23a.5.5,0,0,1-.23,1Z"/><path class="cls-3" d="M181,46.65a.59.59,0,0,1-.22,0l-.89-.44a.51.51,0,0,1-.23-.67.5.5,0,0,1,.67-.23l.9.44a.51.51,0,0,1,.22.67A.48.48,0,0,1,181,46.65Zm-3.58-1.77a.54.54,0,0,1-.22-.05l-.9-.45a.5.5,0,0,1-.23-.67.51.51,0,0,1,.67-.22l.9.44a.5.5,0,0,1-.22,1Zm-3.59-1.77a.46.46,0,0,1-.22-.06l-.89-.44a.5.5,0,1,1,.44-.9l.9.45a.5.5,0,0,1,.22.67A.51.51,0,0,1,173.85,43.11Zm-3.58-1.78a.42.42,0,0,1-.22,0l-.9-.44a.5.5,0,1,1,.44-.9l.9.44a.5.5,0,0,1-.22.95Zm-3.59-1.77a.59.59,0,0,1-.22-.05l-.9-.45a.5.5,0,0,1-.22-.67.5.5,0,0,1,.67-.22l.89.44a.5.5,0,0,1,.23.67A.49.49,0,0,1,166.68,39.56Zm-3.58-1.77a.43.43,0,0,1-.22-.06l-.9-.44a.5.5,0,1,1,.44-.9l.9.45a.49.49,0,0,1,.22.67A.5.5,0,0,1,163.1,37.79ZM159.51,36a.44.44,0,0,1-.22,0l-.9-.44a.5.5,0,0,1,.45-.9l.89.45a.5.5,0,0,1,.23.67A.51.51,0,0,1,159.51,36Zm-3.59-1.77a.59.59,0,0,1-.22-.05l-.89-.44a.5.5,0,1,1,.44-.9l.9.44a.5.5,0,0,1,.22.67A.48.48,0,0,1,155.92,34.24Zm-3.58-1.77a.54.54,0,0,1-.22,0l-.9-.45a.5.5,0,0,1,.45-.89l.89.44a.5.5,0,0,1-.22.95Zm-3.59-1.78a.44.44,0,0,1-.22-.05l-.89-.44a.5.5,0,1,1,.44-.9l.9.45a.5.5,0,0,1,.22.67A.49.49,0,0,1,148.75,30.69Zm-3.58-1.77a.54.54,0,0,1-.22-.05l-.9-.44a.5.5,0,1,1,.44-.9l.9.44a.5.5,0,0,1-.22,1Zm-3.59-1.77a.59.59,0,0,1-.22,0l-.41-.21a.5.5,0,0,1-.22-.67.5.5,0,0,1,.67-.22l.4.2a.5.5,0,0,1,.23.67A.49.49,0,0,1,141.58,27.15Z"/><path class="cls-2" d="M101.17,187a.48.48,0,0,1-.44-.28A.49.49,0,0,1,101,186l.44-.22a.5.5,0,0,1,.67.22.49.49,0,0,1-.22.67l-.44.22A.46.46,0,0,1,101.17,187Zm3.13-1.56a.48.48,0,0,1-.44-.28.49.49,0,0,1,.22-.67l.9-.44a.49.49,0,0,1,.67.22.5.5,0,0,1-.23.67l-.89.45A.64.64,0,0,1,104.3,185.39Zm3.58-1.78a.48.48,0,0,1-.44-.28.49.49,0,0,1,.22-.67l.9-.45a.5.5,0,1,1,.44.9l-.89.44A.46.46,0,0,1,107.88,183.61Zm3.58-1.79a.49.49,0,0,1-.44-.27.5.5,0,0,1,.22-.67l.9-.45a.5.5,0,1,1,.44.9l-.89.44A.46.46,0,0,1,111.46,181.82ZM115,180a.48.48,0,0,1-.44-.28.5.5,0,0,1,.22-.67l.9-.44a.49.49,0,0,1,.67.22.5.5,0,0,1-.23.67l-.89.45A.59.59,0,0,1,115,180Zm3.59-1.78a.49.49,0,0,1-.45-.28.5.5,0,0,1,.22-.67l.9-.44a.49.49,0,0,1,.67.22.5.5,0,0,1-.23.67l-.89.45A.59.59,0,0,1,118.63,178.26Zm3.58-1.78a.51.51,0,0,1-.45-.28.5.5,0,0,1,.22-.67l.9-.45a.5.5,0,0,1,.67.23.51.51,0,0,1-.22.67l-.9.44A.46.46,0,0,1,122.21,176.48Zm3.58-1.79a.5.5,0,0,1-.23-.94l.9-.45a.5.5,0,0,1,.45.89l-.9.45A.44.44,0,0,1,125.79,174.69Zm3.58-1.78a.49.49,0,0,1-.45-.28.51.51,0,0,1,.23-.67l.89-.44a.49.49,0,0,1,.67.22.5.5,0,0,1-.22.67l-.9.45A.59.59,0,0,1,129.37,172.91Zm3.58-1.78a.5.5,0,0,1-.22-.95l.89-.45a.5.5,0,0,1,.45.9l-.9.44A.46.46,0,0,1,133,171.13Zm3.58-1.78a.52.52,0,0,1-.45-.28.5.5,0,0,1,.23-.67l.89-.45a.5.5,0,0,1,.67.23.49.49,0,0,1-.22.67l-.9.44A.43.43,0,0,1,136.53,169.35Zm3.58-1.79a.5.5,0,0,1-.22-.95l.89-.44a.5.5,0,0,1,.67.22.49.49,0,0,1-.22.67l-.9.45A.42.42,0,0,1,140.11,167.56Z"/><path class="cls-1" d="M141.17,257a.46.46,0,0,1-.22-.06l-.26-.13a.5.5,0,0,1-.22-.67.5.5,0,0,1,.67-.22l0,0,.41-.21a.5.5,0,0,1,.44.9l-.63.31A.46.46,0,0,1,141.17,257Zm-2.94-1.47a.46.46,0,0,1-.22-.06l-.9-.44a.51.51,0,0,1-.22-.67.5.5,0,0,1,.67-.23l.9.45a.5.5,0,0,1,.22.67A.51.51,0,0,1,138.23,255.48Zm6.27-.19a.5.5,0,0,1-.23-.94l.9-.45a.5.5,0,1,1,.44.89l-.89.45A.44.44,0,0,1,144.5,255.29Zm-9.84-1.6a.46.46,0,0,1-.23-.06l-.89-.44a.5.5,0,1,1,.44-.9l.9.45a.5.5,0,0,1-.22.95Zm13.42-.18a.49.49,0,0,1-.45-.28.51.51,0,0,1,.22-.67l.9-.44a.49.49,0,0,1,.67.22.5.5,0,0,1-.22.67l-.9.45A.59.59,0,0,1,148.08,253.51Zm-17-1.61a.64.64,0,0,1-.23-.05l-.89-.45a.49.49,0,0,1-.22-.67.5.5,0,0,1,.67-.23l.89.45a.49.49,0,0,1,.22.67A.48.48,0,0,1,131.08,251.9Zm20.58-.17a.49.49,0,0,1-.45-.28.5.5,0,0,1,.22-.67l.9-.45a.5.5,0,0,1,.45.9l-.9.45A.59.59,0,0,1,151.66,251.73Zm-24.16-1.62a.54.54,0,0,1-.22-.05l-.9-.45a.5.5,0,0,1,.45-.9l.89.45a.5.5,0,0,1-.22,1Zm27.74-.17A.49.49,0,0,1,155,249l.89-.45a.5.5,0,0,1,.67.23.51.51,0,0,1-.22.67l-.9.44A.44.44,0,0,1,155.24,249.94Zm-31.32-1.62a.59.59,0,0,1-.22,0l-.9-.45a.5.5,0,0,1-.22-.67.49.49,0,0,1,.67-.22l.9.44a.51.51,0,0,1,.22.67A.5.5,0,0,1,123.92,248.32Zm34.9-.16a.51.51,0,0,1-.45-.27.5.5,0,0,1,.23-.67l.89-.45a.5.5,0,1,1,.45.89l-.9.45A.44.44,0,0,1,158.82,248.16Zm-38.48-1.63a.44.44,0,0,1-.22-.05l-.89-.45a.5.5,0,0,1-.23-.67.49.49,0,0,1,.67-.22l.9.44a.52.52,0,0,1,.22.68A.5.5,0,0,1,120.34,246.53Zm42.06-.15a.5.5,0,0,1-.22-.95l.89-.44a.5.5,0,1,1,.45.89l-.9.45A.54.54,0,0,1,162.4,246.38Zm-45.63-1.64a.48.48,0,0,1-.23-.05l-.89-.45a.5.5,0,0,1-.23-.67.51.51,0,0,1,.68-.22l.89.45a.5.5,0,0,1-.22.94ZM166,244.6a.52.52,0,0,1-.45-.28.5.5,0,0,1,.23-.67l.89-.45a.5.5,0,0,1,.67.23.49.49,0,0,1-.22.67l-.9.44A.43.43,0,0,1,166,244.6ZM113.19,243a.48.48,0,0,1-.23,0l-.89-.45a.49.49,0,0,1-.22-.67.5.5,0,0,1,.67-.22l.89.45a.5.5,0,0,1,.23.67A.51.51,0,0,1,113.19,243Zm56.37-.14a.51.51,0,0,1-.45-.27.5.5,0,0,1,.23-.67l.89-.45a.5.5,0,0,1,.67.23.49.49,0,0,1-.22.67l-.9.44A.42.42,0,0,1,169.56,242.81Zm-59.95-1.65a.44.44,0,0,1-.22,0l-.9-.45a.5.5,0,1,1,.45-.89l.9.45a.5.5,0,0,1,.22.67A.51.51,0,0,1,109.61,241.16Zm63.53-.13a.48.48,0,0,1-.44-.28.49.49,0,0,1,.22-.67l.9-.44a.49.49,0,0,1,.67.22.5.5,0,0,1-.23.67l-.89.45A.64.64,0,0,1,173.14,241ZM106,239.38a.46.46,0,0,1-.22-.06l-.89-.44a.5.5,0,0,1,.44-.9l.9.45a.5.5,0,0,1,.22.67A.51.51,0,0,1,106,239.38Zm70.69-.13a.48.48,0,0,1-.44-.28.49.49,0,0,1,.22-.67l.9-.44a.49.49,0,0,1,.67.22.5.5,0,0,1-.23.67l-.89.45A.59.59,0,0,1,176.72,239.25Zm-74.26-1.66a.46.46,0,0,1-.23-.06l-.89-.44a.51.51,0,0,1-.23-.67.51.51,0,0,1,.68-.23l.89.45a.5.5,0,0,1-.22,1Zm77.84-.12a.5.5,0,0,1-.44-.28.49.49,0,0,1,.22-.67l.9-.45a.5.5,0,0,1,.44.9l-.89.44A.46.46,0,0,1,180.3,237.47Z"/><path class="cls-3" d="M340.82,47.09a.64.64,0,0,1-.23-.05l-.89-.46a.5.5,0,0,1-.22-.67.51.51,0,0,1,.67-.22l.89.45a.5.5,0,0,1,.22.68A.49.49,0,0,1,340.82,47.09ZM261.41,47a.49.49,0,0,1-.44-.27.5.5,0,0,1,.22-.68l.89-.45a.5.5,0,0,1,.67.23.49.49,0,0,1-.22.67l-.89.45A.59.59,0,0,1,261.41,47Zm75.84-1.72a.46.46,0,0,1-.22-.06l-.9-.45a.5.5,0,1,1,.46-.89l.89.45a.51.51,0,0,1,.22.67A.5.5,0,0,1,337.25,45.28ZM265,45.2a.5.5,0,0,1-.22-1l.89-.45a.5.5,0,0,1,.45.9l-.89.45A.59.59,0,0,1,265,45.2Zm68.71-1.73a.46.46,0,0,1-.23-.06l-.89-.45a.5.5,0,0,1,.45-.89l.89.45a.5.5,0,0,1-.22.95Zm-65.13-.07a.49.49,0,0,1-.45-.28.5.5,0,0,1,.22-.67l.89-.45a.51.51,0,0,1,.68.22.5.5,0,0,1-.23.67l-.89.45A.46.46,0,0,1,268.56,43.4Zm61.56-1.75a.48.48,0,0,1-.23,0l-.89-.45a.52.52,0,0,1-.22-.68.51.51,0,0,1,.68-.21l.89.45a.5.5,0,0,1,.22.67A.51.51,0,0,1,330.12,41.65Zm-58,0a.5.5,0,0,1-.23-1l.89-.45a.51.51,0,0,1,.68.22.5.5,0,0,1-.22.67l-.9.45A.46.46,0,0,1,272.13,41.6Zm54.42-1.76a.59.59,0,0,1-.22-.05l-.89-.45a.5.5,0,0,1,.45-.9l.89.46a.49.49,0,0,1,.22.67A.5.5,0,0,1,326.55,39.84Zm-50.85,0a.52.52,0,0,1-.45-.28.5.5,0,0,1,.22-.67l.9-.45a.49.49,0,0,1,.67.22.5.5,0,0,1-.22.67l-.9.45A.43.43,0,0,1,275.7,39.8ZM323,38a.64.64,0,0,1-.23-.05l-.89-.46a.5.5,0,0,1-.22-.67.5.5,0,0,1,.67-.22l.89.45a.5.5,0,0,1,.22.68A.49.49,0,0,1,323,38Zm-43.72,0a.51.51,0,0,1-.45-.27.5.5,0,0,1,.22-.67l.9-.45a.49.49,0,0,1,.67.22.5.5,0,0,1-.22.67l-.89.45A.48.48,0,0,1,279.27,38Zm40.15-1.77a.46.46,0,0,1-.22-.06l-.9-.45a.5.5,0,0,1-.22-.67.51.51,0,0,1,.68-.22l.89.45a.51.51,0,0,1,.22.67A.5.5,0,0,1,319.42,36.22Zm-36.58,0a.5.5,0,0,1-.22-.94l.89-.45a.49.49,0,0,1,.67.22.5.5,0,0,1-.22.67l-.89.45A.46.46,0,0,1,282.84,36.19Zm33-1.78a.46.46,0,0,1-.23-.06l-.89-.45a.5.5,0,0,1,.45-.89l.89.45a.5.5,0,0,1-.22.95Zm-29.45,0a.5.5,0,0,1-.22-.94l.89-.45a.49.49,0,0,1,.67.22.49.49,0,0,1-.22.67l-.89.45A.59.59,0,0,1,286.41,34.39Zm25.88-1.8a.48.48,0,0,1-.23-.05l-.89-.45a.52.52,0,0,1-.22-.68.51.51,0,0,1,.68-.21l.89.45a.51.51,0,0,1,.22.67A.51.51,0,0,1,312.29,32.59Zm-22.3,0a.5.5,0,0,1-.45-.27.51.51,0,0,1,.22-.68l.89-.45a.5.5,0,0,1,.45.9l-.89.45A.59.59,0,0,1,290,32.59Zm3.57-1.8a.49.49,0,0,1-.45-.28.51.51,0,0,1,.22-.67l.89-.45a.52.52,0,0,1,.68.22.51.51,0,0,1-.23.68l-.89.45A.59.59,0,0,1,293.56,30.79Zm15.16,0a.44.44,0,0,1-.22-.05l-.89-.45a.5.5,0,0,1,.45-.9l.89.46a.5.5,0,0,1,.22.67A.5.5,0,0,1,308.72,30.78ZM297.13,29a.5.5,0,0,1-.45-.28.51.51,0,0,1,.22-.67l.89-.45a.51.51,0,0,1,.68.22.5.5,0,0,1-.22.67l-.9.45A.46.46,0,0,1,297.13,29Zm8,0a.59.59,0,0,1-.23,0l-.89-.46a.49.49,0,0,1-.22-.67.51.51,0,0,1,.67-.22l.89.45a.5.5,0,0,1-.22.95Zm-4.46-1.78a.5.5,0,0,1-.23-1L301,26a.51.51,0,0,1,.45,0l.42.21a.52.52,0,0,1,.22.68.5.5,0,0,1-.67.21l-.2-.09-.25.12A.43.43,0,0,1,300.7,27.19Z"/><path class="cls-3" d="M420.79,46.88a.51.51,0,0,1-.45-.27.5.5,0,0,1,.23-.67l.9-.45a.51.51,0,0,1,.67.23.5.5,0,0,1-.23.67l-.9.44A.42.42,0,0,1,420.79,46.88Zm3.59-1.77a.49.49,0,0,1-.45-.28.51.51,0,0,1,.23-.67l.89-.44a.5.5,0,0,1,.45.9l-.9.44A.44.44,0,0,1,424.38,45.11ZM428,43.34a.48.48,0,0,1-.44-.28.5.5,0,0,1,.22-.67l.9-.44a.5.5,0,0,1,.44.9l-.89.44A.46.46,0,0,1,428,43.34Zm3.59-1.77a.5.5,0,0,1-.22-1l.9-.44a.5.5,0,0,1,.44.9l-.9.44A.42.42,0,0,1,431.55,41.57Zm3.59-1.77a.49.49,0,0,1-.45-.28.5.5,0,0,1,.23-.67l.89-.44a.5.5,0,0,1,.67.23.51.51,0,0,1-.22.67l-.9.44A.59.59,0,0,1,435.14,39.8ZM438.72,38a.48.48,0,0,1-.44-.28.5.5,0,0,1,.22-.67l.9-.44a.5.5,0,0,1,.67.23.51.51,0,0,1-.23.67L439,38A.59.59,0,0,1,438.72,38Zm3.59-1.77a.5.5,0,0,1-.22-.95l.9-.44a.5.5,0,0,1,.44.9l-.9.44A.54.54,0,0,1,442.31,36.26Zm3.59-1.77a.49.49,0,0,1-.45-.28.5.5,0,0,1,.23-.67l.89-.44a.5.5,0,0,1,.67.23A.49.49,0,0,1,447,34l-.9.45A.59.59,0,0,1,445.9,34.49Zm3.58-1.77a.48.48,0,0,1-.44-.28.5.5,0,0,1,.22-.67l.9-.44a.5.5,0,1,1,.44.89l-.89.45A.64.64,0,0,1,449.48,32.72ZM453.07,31a.5.5,0,0,1-.22-.95l.9-.44a.51.51,0,0,1,.67.22.5.5,0,0,1-.23.67l-.9.45A.54.54,0,0,1,453.07,31Zm3.59-1.77a.51.51,0,0,1-.45-.28.5.5,0,0,1,.23-.67l.89-.44A.49.49,0,0,1,458,28a.5.5,0,0,1-.22.67l-.9.44A.46.46,0,0,1,456.66,29.18Zm3.59-1.77a.5.5,0,0,1-.23-.95l.9-.44a.49.49,0,0,1,.67.22.5.5,0,0,1-.23.67l-.89.44A.46.46,0,0,1,460.25,27.41Z"/><path class="cls-1" d="M141.09,117a.59.59,0,0,1-.22,0l-.9-.45a.5.5,0,0,1,.45-.9l.9.45a.51.51,0,0,1,.22.67A.49.49,0,0,1,141.09,117Zm-79.59-.42a.51.51,0,0,1-.45-.27.5.5,0,0,1,.23-.67l.89-.45a.5.5,0,0,1,.67.22.5.5,0,0,1-.22.67l-.9.45A.44.44,0,0,1,61.5,116.61Zm-2.7-.87a.59.59,0,0,1-.22,0l-.9-.43a.5.5,0,1,1,.44-.9l.9.43a.5.5,0,0,1,.23.67A.48.48,0,0,1,58.8,115.74Zm78.72-.5a.59.59,0,0,1-.23,0l-.89-.45a.51.51,0,0,1-.23-.67.51.51,0,0,1,.68-.23l.89.45a.49.49,0,0,1,.22.67A.48.48,0,0,1,137.52,115.24Zm-72.44-.42a.5.5,0,0,1-.23-.94l.9-.45a.51.51,0,0,1,.67.22.5.5,0,0,1-.23.67l-.89.45A.44.44,0,0,1,65.08,114.82ZM55.2,114a.59.59,0,0,1-.22,0l-.9-.43a.5.5,0,1,1,.44-.9l.9.43a.5.5,0,0,1-.22,1Zm78.74-.55a.54.54,0,0,1-.22,0l-.9-.45a.49.49,0,0,1-.22-.67.5.5,0,0,1,.67-.23l.89.45a.5.5,0,0,1-.22,1ZM68.65,113a.5.5,0,0,1-.44-.28.49.49,0,0,1,.22-.67l.9-.45a.5.5,0,1,1,.44.9l-.89.44A.46.46,0,0,1,68.65,113Zm-17.05-.78a.42.42,0,0,1-.22-.05l-.9-.43a.5.5,0,0,1-.23-.67.49.49,0,0,1,.66-.23l.9.43a.5.5,0,0,1-.21,1Zm78.76-.6a.46.46,0,0,1-.22-.06l-.9-.44a.5.5,0,0,1,.45-.9l.9.45a.5.5,0,0,1-.23,1Zm-58.13-.41a.5.5,0,0,1-.22-1l.89-.45a.5.5,0,0,1,.67.23.49.49,0,0,1-.22.67l-.89.44A.49.49,0,0,1,72.23,111.25ZM48,110.52a.42.42,0,0,1-.22,0l-.9-.43a.5.5,0,1,1,.43-.9l.9.43a.5.5,0,0,1-.21,1Zm78.79-.65a.46.46,0,0,1-.23-.06l-.89-.44a.51.51,0,0,1-.23-.67.51.51,0,0,1,.68-.23l.89.45a.5.5,0,0,1-.22,1Zm-51-.41a.5.5,0,0,1-.22-.95l.89-.45a.5.5,0,0,1,.67.23.51.51,0,0,1-.22.67l-.9.45A.59.59,0,0,1,75.81,109.46Zm-31.42-.68a.47.47,0,0,1-.22,0l-.9-.43a.51.51,0,0,1-.23-.67.5.5,0,0,1,.67-.23l.9.43a.5.5,0,0,1,.23.67A.48.48,0,0,1,44.39,108.78Zm78.82-.7A.43.43,0,0,1,123,108l-.9-.44a.49.49,0,0,1-.22-.67.5.5,0,0,1,.67-.23l.89.45a.5.5,0,0,1-.22,1Zm-43.82-.41a.5.5,0,0,1-.45-.28.51.51,0,0,1,.22-.67l.9-.45a.5.5,0,0,1,.45.9l-.9.45A.59.59,0,0,1,79.39,107.67ZM40.79,107a.44.44,0,0,1-.22-.05l-.9-.43a.5.5,0,0,1,.44-.9l.9.43a.5.5,0,0,1,.23.67A.48.48,0,0,1,40.79,107Zm78.84-.75a.46.46,0,0,1-.22-.06l-.9-.44a.52.52,0,0,1-.22-.68.51.51,0,0,1,.67-.22l.9.45a.5.5,0,0,1,.22.67A.52.52,0,0,1,119.63,106.29ZM83,105.88a.5.5,0,0,1-.22-.95l.9-.44a.49.49,0,0,1,.67.22.5.5,0,0,1-.23.67l-.89.45A.59.59,0,0,1,83,105.88Zm-45.77-.58a.44.44,0,0,1-.22,0l-.9-.43a.5.5,0,1,1,.44-.9l.9.43a.5.5,0,0,1,.23.67A.49.49,0,0,1,37.19,105.3Zm78.86-.8a.46.46,0,0,1-.22-.06l-.89-.45a.5.5,0,0,1-.23-.67.51.51,0,0,1,.67-.22l.9.45a.49.49,0,0,1,.22.67A.51.51,0,0,1,116.05,104.5Zm-29.51-.41a.49.49,0,0,1-.44-.27.5.5,0,0,1,.22-.68l.89-.44a.5.5,0,0,1,.67.22.49.49,0,0,1-.22.67l-.89.45A.64.64,0,0,1,86.54,104.09Zm-52.95-.53a.42.42,0,0,1-.22,0l-.9-.43a.5.5,0,0,1,.44-.9l.9.43a.5.5,0,0,1-.22,1Zm78.89-.86a.48.48,0,0,1-.23,0l-.89-.45a.49.49,0,0,1-.22-.67.5.5,0,0,1,.67-.22l.89.45a.5.5,0,0,1,.23.67A.51.51,0,0,1,112.48,102.7Zm-22.36-.4a.51.51,0,0,1-.45-.27.5.5,0,0,1,.23-.67l.89-.45a.5.5,0,0,1,.67.22.49.49,0,0,1-.22.67l-.9.45A.42.42,0,0,1,90.12,102.3ZM30,101.82a.42.42,0,0,1-.22,0l-.9-.43a.5.5,0,1,1,.43-.9l.9.43a.5.5,0,0,1-.21.95Zm78.91-.91a.44.44,0,0,1-.22,0l-.9-.45a.5.5,0,0,1,.45-.89l.9.45a.5.5,0,0,1,.22.67A.51.51,0,0,1,108.9,100.91Zm-15.2-.4a.51.51,0,0,1-.45-.27.5.5,0,0,1,.22-.67l.9-.45a.5.5,0,1,1,.45.89l-.9.45A.44.44,0,0,1,93.7,100.51Zm-67.32-.43a.41.41,0,0,1-.21,0l-.9-.43a.5.5,0,1,1,.43-.9l.9.43a.5.5,0,0,1,.23.67A.48.48,0,0,1,26.38,100.08Zm79-1a.46.46,0,0,1-.23-.05l-.89-.45a.5.5,0,1,1,.44-.89l.9.45a.49.49,0,0,1,.22.67A.5.5,0,0,1,105.33,99.12Zm-8-.4a.5.5,0,0,1-.23-.94l.9-.45a.51.51,0,0,1,.67.22.5.5,0,0,1-.23.67l-.89.45A.44.44,0,0,1,97.28,98.72Zm-74.5-.38a.44.44,0,0,1-.22,0l-.9-.43a.51.51,0,0,1-.23-.67A.5.5,0,0,1,22.1,97l.9.43a.5.5,0,0,1,.23.67A.48.48,0,0,1,22.78,98.34Zm79-1a.48.48,0,0,1-.23,0l-.76-.38a.49.49,0,0,1-.33-.25.48.48,0,0,1,.2-.66.62.62,0,0,1,.5,0l.84.43a.5.5,0,0,1,.23.67A.51.51,0,0,1,101.75,97.33Z"/><circle class="cls-6" cx="181.37" cy="96.83" r="2.5"/><circle class="cls-6" cx="221.04" cy="26.58" r="2.5"/><circle class="cls-6" cx="341.1" cy="96.54" r="2.5"/><circle class="cls-6" cx="381.04" cy="26.51" r="2.5"/><circle class="cls-6" cx="380.95" cy="116.11" r="2.5"/><circle class="cls-6" cx="301.43" cy="116.52" r="2.5"/><circle class="cls-6" cx="301.36" cy="166.77" r="2.5"/><circle class="cls-6" cx="261.24" cy="236.69" r="2.5"/><circle class="cls-6" cx="301.26" cy="256.27" r="2.5"/><circle class="cls-6" cx="221.39" cy="255.92" r="2.5"/><circle class="cls-6" cx="181.2" cy="186.01" r="2.5"/><circle class="cls-6" cx="220.91" cy="167.02" r="2.5"/><circle class="cls-6" cx="341.1" cy="236.69" r="2.5"/><circle class="cls-6" cx="381.3" cy="256.27" r="2.5"/><circle class="cls-6" cx="420.97" cy="236.17" r="2.5"/><circle class="cls-6" cx="341.25" cy="186.7" r="2.33"/><path class="cls-6" d="M341.25,190.59a3.89,3.89,0,1,1,3.89-3.89A3.89,3.89,0,0,1,341.25,190.59Zm0-7a3.08,3.08,0,1,0,3.08,3.08A3.08,3.08,0,0,0,341.25,183.62Z"/><path class="cls-6" d="M341.25,191.7a5,5,0,1,1,5-5A5,5,0,0,1,341.25,191.7Zm0-9.46a4.46,4.46,0,1,0,4.47,4.46A4.46,4.46,0,0,0,341.25,182.24Z"/><circle class="cls-6" cx="221.07" cy="116.2" r="2.33"/><path class="cls-6" d="M221.07,120.09A3.89,3.89,0,1,1,225,116.2,3.89,3.89,0,0,1,221.07,120.09Zm0-7a3.08,3.08,0,1,0,3.08,3.07A3.08,3.08,0,0,0,221.07,113.13Z"/><path class="cls-6" d="M221.07,121.2a5,5,0,1,1,5-5A5,5,0,0,1,221.07,121.2Zm0-9.46a4.47,4.47,0,1,0,4.46,4.46A4.46,4.46,0,0,0,221.07,111.74Z"/><circle class="cls-6" cx="261.4" cy="186.41" r="2.33"/><path class="cls-6" d="M261.4,190.3a3.89,3.89,0,1,1,3.88-3.89A3.89,3.89,0,0,1,261.4,190.3Zm0-7a3.08,3.08,0,1,0,3.07,3.08A3.09,3.09,0,0,0,261.4,183.33Z"/><path class="cls-6" d="M261.4,191.41a5,5,0,1,1,5-5A5,5,0,0,1,261.4,191.41Zm0-9.46a4.46,4.46,0,1,0,4.46,4.46A4.47,4.47,0,0,0,261.4,182Z"/><circle class="cls-6" cx="381.1" cy="166.9" r="2.33"/><path class="cls-6" d="M381.1,170.78A3.89,3.89,0,1,1,385,166.9,3.89,3.89,0,0,1,381.1,170.78Zm0-7a3.08,3.08,0,1,0,3.08,3.08A3.08,3.08,0,0,0,381.1,163.82Z"/><path class="cls-6" d="M381.1,171.9a5,5,0,1,1,5-5A5,5,0,0,1,381.1,171.9Zm0-9.47a4.47,4.47,0,1,0,4.46,4.47A4.47,4.47,0,0,0,381.1,162.43Z"/><circle class="cls-6" cx="261.05" cy="96.94" r="2.33"/><path class="cls-6" d="M261.05,100.82a3.89,3.89,0,1,1,3.88-3.88A3.89,3.89,0,0,1,261.05,100.82Zm0-7a3.08,3.08,0,1,0,3.07,3.08A3.08,3.08,0,0,0,261.05,93.86Z"/><path class="cls-6" d="M261.05,101.94a5,5,0,1,1,5-5A5,5,0,0,1,261.05,101.94Zm0-9.47a4.47,4.47,0,1,0,4.46,4.47A4.48,4.48,0,0,0,261.05,92.47Z"/><circle class="cls-6" cx="340.85" cy="46.6" r="2.5"/><circle class="cls-6" cx="300.77" cy="26.85" r="2.5"/><circle class="cls-6" cx="261.41" cy="46.5" r="2.5"/><circle class="cls-6" cx="421.14" cy="96.19" r="2.5"/><circle class="cls-6" cx="420.79" cy="46.38" r="2.5"/><circle class="cls-6" cx="460.99" cy="26.64" r="2.5"/><circle class="cls-6" cx="461.16" cy="115.94" r="2.5"/><circle class="cls-6" cx="461.16" cy="166.44" r="2.5"/><circle class="cls-6" cx="500.83" cy="186.36" r="2.5"/><circle class="cls-6" cx="420.62" cy="186.36" r="2.5"/><circle class="cls-6" cx="141.01" cy="166.62" r="2.5"/><circle class="cls-6" cx="100.99" cy="186.01" r="2.5"/><circle class="cls-6" cx="61.12" cy="166.22" r="2.5"/><circle class="cls-6" cx="21.1" cy="186.32" r="2.5"/><circle class="cls-6" cx="101.34" cy="236.52" r="2.5"/><circle class="cls-6" cx="181.2" cy="236.52" r="2.5"/><circle class="cls-6" cx="141.18" cy="256.44" r="2.5"/><circle class="cls-6" cx="181.02" cy="46.15" r="2.5"/><circle class="cls-6" cx="141.09" cy="26.49" r="2.5"/><circle class="cls-6" cx="61.41" cy="115.98" r="2.5"/><circle class="cls-6" cx="141.09" cy="116.53" r="2.5"/><circle class="cls-6" cx="101.25" cy="96.02" r="2.5"/><circle class="cls-6" cx="21.39" cy="96.97" r="2.5"/><path class="cls-7" d="M381.44,211.2a2.62,2.62,0,1,0,2.61,2.62A2.62,2.62,0,0,0,381.44,211.2Zm0,3.73a1.11,1.11,0,1,1,1.11-1.11A1.12,1.12,0,0,1,381.44,214.93Z"/><path class="cls-7" d="M387.7,212l-1.54-2.65a.75.75,0,0,0-1-.28l-1.06.62-.36-.21v-1.22a.75.75,0,0,0-.75-.76H379.9a.76.76,0,0,0-.75.76v1.22l-.31.18-1-.63a.76.76,0,0,0-.57-.08.73.73,0,0,0-.46.35l-1.56,2.63a.75.75,0,0,0,.26,1l1.05.63c0,.09,0,.17,0,.26s0,.14,0,.21l-1.06.61a.74.74,0,0,0-.35.46.76.76,0,0,0,.07.57l1.54,2.65a.74.74,0,0,0,1,.27l1.07-.61a4.05,4.05,0,0,0,.35.21v1.22a.75.75,0,0,0,.75.75H383a.74.74,0,0,0,.75-.75v-1.22L384,218l1.05.63a.75.75,0,0,0,1-.27l1.57-2.64a.74.74,0,0,0-.27-1l-1.05-.63a2.26,2.26,0,0,0,0-.26,1.48,1.48,0,0,0,0-.21l1.06-.61A.76.76,0,0,0,387.7,212Zm-2.88,1.35a3.24,3.24,0,0,1,.05.5,3.74,3.74,0,0,1-.05.54.75.75,0,0,0,.36.77l.82.48-.8,1.35-.82-.49a.77.77,0,0,0-.85.06,3.16,3.16,0,0,1-.84.48.75.75,0,0,0-.47.7v.95h-1.57v-.95a.74.74,0,0,0-.47-.7,3.43,3.43,0,0,1-.87-.51.77.77,0,0,0-.85-.06l-.83.48-.78-1.36.83-.47a.76.76,0,0,0,.37-.76,3.25,3.25,0,0,1,0-.51,3.84,3.84,0,0,1,0-.55.75.75,0,0,0-.35-.76l-.83-.49.8-1.34.82.49a.77.77,0,0,0,.85-.06,3.51,3.51,0,0,1,.84-.48.75.75,0,0,0,.47-.7v-1h1.57v1a.75.75,0,0,0,.47.7,3.67,3.67,0,0,1,.88.51.76.76,0,0,0,.84.06l.83-.48.78,1.36-.83.47A.77.77,0,0,0,384.82,213.32Z"/><path class="cls-7" d="M375.6,203.32h0a.75.75,0,0,0,0-1.5h0a.75.75,0,1,0,0,1.5Z"/><path class="cls-7" d="M372.19,203.32h.05a.75.75,0,0,0,0-1.5h-.05a.75.75,0,0,0,0,1.5Z"/><path class="cls-7" d="M379,203.32h.05a.75.75,0,0,0,0-1.5H379a.75.75,0,0,0,0,1.5Z"/><path class="cls-7" d="M367.66,222.06a.74.74,0,0,0,.75.75h23.16a3.12,3.12,0,0,0,3.12-3.12V205.58h0v-6a.74.74,0,0,0-.75-.75H368.41a.74.74,0,0,0-.75.75v6h0v16.48Zm23.91-.75H369.16v-15h24v13.36A1.63,1.63,0,0,1,391.57,221.31Zm1.62-21v4.51h-24v-4.51Z"/><polygon class="cls-1" points="151.25 120.97 181.25 105.97 211.25 120.97 211.25 158.47 181.25 173.47 151.25 158.47 151.25 120.97"/><circle class="cls-10" cx="181.2" cy="124.38" r="11.83"/><circle class="cls-11" cx="166.7" cy="135.05" r="11.83"/><circle class="cls-12" cx="172.09" cy="151.8" r="11.83"/><circle class="cls-11" cx="190.3" cy="151.8" r="11.83"/><circle class="cls-13" cx="195.79" cy="135.05" r="11.83"/><path class="cls-1" d="M180.88,125.75a12.92,12.92,0,0,0-8.75,22.43,67.19,67.19,0,0,0-1.84,6.51c.18-.12,4.53-2.24,7.2-3.54a12.93,12.93,0,1,0,3.39-25.4Z"/><path class="cls-7" d="M175.59,143.37a.26.26,0,0,1-.24-.14l-1.67-2.73h-.76v2.65a.2.2,0,0,1-.22.22h-1.5c-.14,0-.21-.07-.21-.22V135a.19.19,0,0,1,.21-.22h2.92c2,0,3.19,1.12,3.19,2.89a2.52,2.52,0,0,1-1.73,2.53l1.92,2.91c.08.14,0,.25-.15.25Zm-2.67-6.8v2.25h1.14c.88,0,1.27-.34,1.27-1.12s-.39-1.13-1.27-1.13Z"/><path class="cls-7" d="M184.39,134.79c.13,0,.2.08.2.22v1.37a.18.18,0,0,1-.2.2h-2.2v6.57c0,.15-.07.22-.2.22h-1.51c-.14,0-.21-.07-.21-.22v-6.57h-2.19c-.15,0-.22-.07-.22-.2V135a.2.2,0,0,1,.22-.22Z"/><path class="cls-7" d="M188.72,143.54c-2.11,0-3.5-1.12-3.5-3.21v-2.5c0-2.09,1.4-3.19,3.46-3.19a4.54,4.54,0,0,1,2.57.77.17.17,0,0,1,.06.27l-.76,1.15c-.08.12-.17.13-.3.06a2.92,2.92,0,0,0-1.53-.43,1.38,1.38,0,0,0-1.55,1.44v2.35a1.38,1.38,0,0,0,1.56,1.45,3,3,0,0,0,1.67-.5.18.18,0,0,1,.29.05l.76,1.15c.08.11.08.2,0,.26A4.44,4.44,0,0,1,188.72,143.54Z"/><polygon class="cls-1" points="310.96 121.58 340.96 106.58 370.96 121.58 370.96 159.08 340.96 174.08 310.96 159.08 310.96 121.58"/><path class="cls-7" d="M331.92,144.63c-.16,0-.22-.09-.17-.24l2.79-8.2a.25.25,0,0,1,.23-.17h1.83a.23.23,0,0,1,.23.17l2.8,8.2c.06.15,0,.24-.17.24h-1.6a.26.26,0,0,1-.26-.18l-.44-1.47h-2.93l-.46,1.47a.24.24,0,0,1-.24.18Zm2.81-3.32h1.93c-.33-1.06-.71-2.37-1-3.18h0C335.42,138.94,335.05,140.25,334.73,141.31Z"/><path class="cls-7" d="M344,136a3.06,3.06,0,1,1,0,6.11h-1.47v2.28a.19.19,0,0,1-.21.22h-1.51c-.14,0-.21-.07-.21-.22v-8.17a.19.19,0,0,1,.21-.22Zm-.27,4.31c.92,0,1.36-.41,1.36-1.26s-.44-1.26-1.36-1.26h-1.2v2.52Z"/><path class="cls-7" d="M350.19,144.41c0,.15-.07.22-.21.22h-1.51a.2.2,0,0,1-.22-.22v-8.17a.2.2,0,0,1,.22-.22H350a.19.19,0,0,1,.21.22Z"/><path class="cls-7" d="M363,140l-3.72-.67a17.6,17.6,0,0,0-1.33-5.87c1-.67,1.94-1.39,2.94-2.05l.17-.17a.8.8,0,0,0,.16-1.16c-1.22-1.77-2.44-3.49-3.66-5.27a1,1,0,0,0-1.32-.33c-1.06.72-2.06,1.44-3.11,2.16a18.28,18.28,0,0,0-4.93-3.1c.22-1.16.39-2.38.61-3.55v-.27a.8.8,0,0,0-.72-.94c-2.11-.39-4.21-.73-6.32-1.11a1,1,0,0,0-1.22.66c-.22,1.22-.44,2.5-.66,3.71a18.69,18.69,0,0,0-5.76,1.28c-.72-1-1.39-2-2.11-3l-.17-.17a.8.8,0,0,0-1.16-.17c-1.77,1.22-3.49,2.44-5.26,3.66a1,1,0,0,0-.34,1.33c.72,1,1.44,2.11,2.22,3.16a18.46,18.46,0,0,0-3.16,4.93c-1.16-.22-2.38-.44-3.54-.61a1,1,0,0,0-1.22.67c-.39,2.1-.72,4.21-1.11,6.31a1,1,0,0,0,.66,1.22c1.22.22,2.44.45,3.72.67a18.52,18.52,0,0,0,1.27,5.76c-1,.66-1.94,1.39-2.94,2.05a1,1,0,0,0-.33,1.33c1.22,1.77,2.44,3.49,3.66,5.26a1,1,0,0,0,1.33.34c1-.72,2.05-1.44,3.05-2.16a17.66,17.66,0,0,0,5,3.21c-.22,1.22-.45,2.38-.61,3.6a1,1,0,0,0,.66,1.22c2.11.39,4.21.72,6.32,1.11a1,1,0,0,0,1.22-.67c.22-1.27.44-2.49.66-3.76a18.82,18.82,0,0,0,5.77-1.28c.66,1,1.38,2,2.05,2.94a1,1,0,0,0,1.33.33c1.77-1.22,3.49-2.44,5.26-3.66a1,1,0,0,0,.33-1.33c-.72-1.05-1.44-2.05-2.16-3.1a17.18,17.18,0,0,0,3.16-5c1.16.22,2.38.39,3.55.61a1,1,0,0,0,1.22-.66c.38-2.11.72-4.21,1.1-6.32v-.28A.68.68,0,0,0,363,140ZM341,154.08a13.75,13.75,0,1,1,13.75-13.75A13.75,13.75,0,0,1,341,154.08Z"/></svg>