<svg id="Ebene_1" data-name="Ebene 1" xmlns="http://www.w3.org/2000/svg" viewBox="0 0 528.68 261.44"><defs><style>.cls-1{fill:#fcfcf9;}.cls-2{fill:#f6f6f6;}.cls-3,.cls-4{fill:#2846a0;}.cls-4{fill-rule:evenodd;}.cls-5{fill:#fff;}.cls-6{fill:#e76000;}.cls-7{fill:none;stroke:#fff;stroke-linecap:round;stroke-linejoin:round;stroke-dasharray:1 3 1 3;}</style></defs><title>beehive</title><path class="cls-1" d="M364.43,105.26A.5.5,0,0,1,364,105a.49.49,0,0,1,.22-.67l.57-.29a.49.49,0,0,1,.67.22.5.5,0,0,1-.22.67l-.57.29A.59.59,0,0,1,364.43,105.26Zm3.24-1.64a.5.5,0,0,1-.23-1l.89-.45a.5.5,0,0,1,.68.22.51.51,0,0,1-.22.67l-.89.45A.49.49,0,0,1,367.67,103.62Zm3.57-1.82a.5.5,0,0,1-.45-.27.5.5,0,0,1,.22-.67l.89-.45a.49.49,0,0,1,.67.22.49.49,0,0,1-.22.67l-.89.45A.44.44,0,0,1,371.24,101.8ZM374.8,100a.5.5,0,0,1-.44-.27.49.49,0,0,1,.22-.67l.89-.45a.5.5,0,1,1,.45.89l-.89.45A.46.46,0,0,1,374.8,100Zm3.57-1.81a.51.51,0,0,1-.45-.27.5.5,0,0,1,.22-.67l.89-.45a.51.51,0,0,1,.68.21.52.52,0,0,1-.22.68l-.89.45A.48.48,0,0,1,378.37,98.18Zm3.57-1.81a.5.5,0,0,1-.45-.27.5.5,0,0,1,.22-.67l.89-.45a.49.49,0,0,1,.67.21.5.5,0,0,1-.22.68l-.89.45A.44.44,0,0,1,381.94,96.37Zm3.56-1.81a.5.5,0,0,1-.44-.27.49.49,0,0,1,.22-.67l.89-.46a.51.51,0,0,1,.67.22.5.5,0,0,1-.22.68l-.89.45A.46.46,0,0,1,385.5,94.56Zm3.57-1.81a.51.51,0,0,1-.45-.27.5.5,0,0,1,.22-.67l.89-.46a.51.51,0,0,1,.46.9l-.89.45A.64.64,0,0,1,389.07,92.75Zm3.57-1.81a.5.5,0,0,1-.45-.27.5.5,0,0,1,.22-.67l.89-.46a.5.5,0,0,1,.45.9l-.89.45A.59.59,0,0,1,392.64,90.94Zm3.56-1.81a.5.5,0,0,1-.44-.27.49.49,0,0,1,.22-.67l.89-.46a.51.51,0,0,1,.67.22.49.49,0,0,1-.22.67l-.89.46A.59.59,0,0,1,396.2,89.13Zm3.57-1.81a.51.51,0,0,1-.45-.27.5.5,0,0,1,.22-.67l.9-.46a.51.51,0,0,1,.67.22.5.5,0,0,1-.22.67l-.89.46A.64.64,0,0,1,399.77,87.32Zm3.57-1.81a.5.5,0,0,1-.23-1l.89-.45a.5.5,0,0,1,.67.22.49.49,0,0,1-.21.67l-.9.46A.59.59,0,0,1,403.34,85.51Z"/><path class="cls-1" d="M406.11,174.05a.49.49,0,0,1-.45-.28.5.5,0,0,1,.23-.67l.9-.44a.5.5,0,0,1,.67.23.51.51,0,0,1-.23.67l-.9.44A.59.59,0,0,1,406.11,174.05Zm3.59-1.76a.5.5,0,0,1-.22-.95l.9-.44a.5.5,0,1,1,.44.89l-.9.45A.59.59,0,0,1,409.7,172.29Zm3.59-1.77a.49.49,0,0,1-.45-.28.51.51,0,0,1,.23-.67l.9-.44a.5.5,0,0,1,.44.9l-.9.44A.44.44,0,0,1,413.29,170.52Zm3.59-1.76a.49.49,0,0,1-.45-.28.5.5,0,0,1,.23-.67l.9-.44a.5.5,0,0,1,.67.23.51.51,0,0,1-.23.67l-.9.44A.59.59,0,0,1,416.88,168.76Zm3.59-1.76a.52.52,0,0,1-.45-.28.5.5,0,0,1,.23-.67l.9-.44a.5.5,0,0,1,.67.22.51.51,0,0,1-.23.67l-.9.44A.46.46,0,0,1,420.47,167Zm3.59-1.77a.49.49,0,0,1-.45-.28.5.5,0,0,1,.23-.67l.9-.44a.5.5,0,1,1,.44.9l-.9.44A.59.59,0,0,1,424.06,165.23Zm3.59-1.76a.51.51,0,0,1-.45-.28.5.5,0,0,1,.23-.67l.9-.44a.51.51,0,0,1,.67.23.5.5,0,0,1-.23.66l-.9.45A.59.59,0,0,1,427.65,163.47Zm3.59-1.77a.5.5,0,0,1-.45-.28.49.49,0,0,1,.23-.66l.9-.45a.5.5,0,1,1,.44.9l-.9.44A.44.44,0,0,1,431.24,161.7Zm3.59-1.76a.49.49,0,0,1-.45-.28.5.5,0,0,1,.23-.67l.9-.44a.5.5,0,1,1,.44.9l-.9.44A.59.59,0,0,1,434.83,159.94Zm3.59-1.76a.51.51,0,0,1-.45-.28.5.5,0,0,1,.23-.67l.9-.44a.5.5,0,0,1,.67.22.51.51,0,0,1-.23.67l-.9.44A.46.46,0,0,1,438.42,158.18Zm3.59-1.77a.5.5,0,0,1-.22-.95l.9-.44a.51.51,0,0,1,.67.23.5.5,0,0,1-.23.67l-.9.44A.59.59,0,0,1,442,156.41Zm2.24-2.6a.5.5,0,0,1-.5-.5v-1a.5.5,0,0,1,.5-.5.5.5,0,0,1,.5.5v1A.51.51,0,0,1,444.25,153.81Zm0-4a.5.5,0,0,1-.5-.5v-1a.5.5,0,0,1,.5-.5.5.5,0,0,1,.5.5v1A.51.51,0,0,1,444.25,149.81Zm0-4a.5.5,0,0,1-.5-.5v-1a.5.5,0,0,1,.5-.5.5.5,0,0,1,.5.5v1A.51.51,0,0,1,444.25,145.81Zm0-4a.5.5,0,0,1-.5-.5v-1a.5.5,0,0,1,.5-.5.5.5,0,0,1,.5.5v1A.51.51,0,0,1,444.25,141.81Zm0-4a.5.5,0,0,1-.5-.5v-1a.5.5,0,0,1,.5-.5.5.5,0,0,1,.5.5v1A.51.51,0,0,1,444.25,137.81Zm0-4a.5.5,0,0,1-.5-.5v-1a.5.5,0,0,1,.5-.5.5.5,0,0,1,.5.5v1A.51.51,0,0,1,444.25,133.81Zm0-4a.5.5,0,0,1-.5-.5v-1a.5.5,0,0,1,.5-.5.5.5,0,0,1,.5.5v1A.51.51,0,0,1,444.25,129.81Zm0-4a.5.5,0,0,1-.5-.5v-1a.5.5,0,0,1,.5-.5.5.5,0,0,1,.5.5v1A.51.51,0,0,1,444.25,125.81Zm0-4a.5.5,0,0,1-.5-.5v-1a.5.5,0,0,1,.5-.5.5.5,0,0,1,.5.5v1A.51.51,0,0,1,444.25,121.81Zm0-4a.5.5,0,0,1-.5-.5v-1a.5.5,0,0,1,.5-.5.5.5,0,0,1,.5.5v1A.51.51,0,0,1,444.25,117.81Zm0-4a.5.5,0,0,1-.5-.5v-1a.5.5,0,0,1,.5-.5.5.5,0,0,1,.5.5v1A.51.51,0,0,1,444.25,113.81Zm0-4a.5.5,0,0,1-.5-.5v-1a.5.5,0,0,1,.5-.5.5.5,0,0,1,.5.5v1A.51.51,0,0,1,444.25,109.81Zm0-4a.5.5,0,0,1-.5-.5v-1a.5.5,0,0,1,.5-.5.5.5,0,0,1,.5.5v1A.51.51,0,0,1,444.25,105.81Z"/><polygon class="cls-2" points="293.68 110.26 323.68 95.26 353.68 110.26 353.68 147.76 323.68 162.76 293.68 147.76 293.68 110.26"/><path class="cls-3" d="M323.74,110.12a19,19,0,0,0-18.92,17.33l3.18-3.17,3.19,3.19a12.65,12.65,0,0,1,12.55-11l3.17-3.17Z"/><path class="cls-3" d="M342.61,129A19,19,0,0,0,325.27,110l3.18,3.17-3.19,3.19a12.67,12.67,0,0,1,11,12.56l3.17,3.16Z"/><path class="cls-3" d="M323.62,147.9a19,19,0,0,0,18.92-17.34l-3.18,3.18-3.19-3.19a12.67,12.67,0,0,1-12.55,11l-3.17,3.16Z"/><path class="cls-3" d="M304.75,129.06A19,19,0,0,0,322.08,148l-3.17-3.18,3.19-3.19a12.65,12.65,0,0,1-11-12.55l-3.17-3.17Z"/><path class="cls-3" d="M315.45,132.4a2.35,2.35,0,0,1-2.67-2.44v-1.91a2.35,2.35,0,0,1,2.65-2.44,3.46,3.46,0,0,1,2,.59.13.13,0,0,1,0,.21l-.58.88a.14.14,0,0,1-.22,0,2.21,2.21,0,0,0-1.18-.33,1,1,0,0,0-1.18,1.1v1.8a1,1,0,0,0,1.19,1.1,2.29,2.29,0,0,0,1.28-.38c.09-.06.16-.06.22,0l.58.87c.06.09.06.16,0,.21A3.44,3.44,0,0,1,315.45,132.4Z"/><path class="cls-3" d="M319.52,132.11c0,.11,0,.17-.16.17h-1.14a.15.15,0,0,1-.17-.17V125.9a.15.15,0,0,1,.17-.17h1.14c.11,0,.16.06.16.17Z"/><path class="cls-3" d="M321.41,132.16a.17.17,0,0,1-.18.12h-1.06c-.12,0-.16-.08-.12-.19l2.57-6.24a.17.17,0,0,1,.18-.12h1c.12,0,.18.07.12.18Z"/><path class="cls-3" d="M327,132.4A2.35,2.35,0,0,1,324.3,130v-1.91a2.35,2.35,0,0,1,2.65-2.44,3.41,3.41,0,0,1,1.95.59.13.13,0,0,1,.05.21l-.58.88c-.06.09-.13.1-.23,0A2.15,2.15,0,0,0,327,127a1,1,0,0,0-1.18,1.1v1.8A1,1,0,0,0,327,131a2.23,2.23,0,0,0,1.27-.38c.1-.06.17-.06.22,0l.59.87c.05.09.05.16,0,.21A3.46,3.46,0,0,1,327,132.4Z"/><path class="cls-3" d="M329.73,132.28c-.11,0-.16-.06-.16-.17V125.9c0-.11.05-.17.16-.17H332a2.3,2.3,0,0,1,2.59,2.55v1.46a2.29,2.29,0,0,1-2.59,2.54Zm1.31-1.39h1c.71,0,1.07-.33,1.07-1.09v-1.59c0-.76-.36-1.11-1.07-1.11h-1Z"/><polygon class="cls-2" points="254.01 39.65 284.01 24.65 314.01 39.65 314.01 77.15 284.01 92.15 254.01 77.15 254.01 39.65"/><path class="cls-3" d="M269.24,60.79a.15.15,0,0,1-.16-.16v-6a.14.14,0,0,1,.16-.15h2.19a2.22,2.22,0,0,1,2.51,2.47v1.41a2.22,2.22,0,0,1-2.51,2.47Zm1.27-1.35h.94c.68,0,1-.32,1-1V56.84c0-.74-.35-1.07-1-1.07h-.94Z"/><path class="cls-3" d="M278.8,58.79a.14.14,0,0,1-.16.15h-2.51v.14c0,.45.29.68.76.68a2.14,2.14,0,0,0,1.13-.32.13.13,0,0,1,.21,0l.46.61a.15.15,0,0,1,0,.22,2.84,2.84,0,0,1-1.81.59,1.85,1.85,0,0,1-2.09-1.85V57.93A1.83,1.83,0,0,1,276.82,56a1.77,1.77,0,0,1,2,1.89Zm-2-1.62a.62.62,0,0,0-.68.7v.19h1.37v-.19A.63.63,0,0,0,276.81,57.17Z"/><path class="cls-3" d="M280.74,60.79a.18.18,0,0,1-.17-.13l-1.49-4.32c0-.1,0-.17.12-.17h1.12c.09,0,.16,0,.17.12l.54,2c.1.3.23.77.32,1.16h0c.1-.39.23-.86.32-1.16l.55-2a.17.17,0,0,1,.18-.12h1.12c.11,0,.16.07.12.17l-1.51,4.32a.18.18,0,0,1-.18.13Z"/><path class="cls-3" d="M286.79,60.89a2.34,2.34,0,0,1-2.58-2.52V56.83a2.59,2.59,0,0,1,5.18,0v1.54A2.34,2.34,0,0,1,286.79,60.89Zm0-1.35c.76,0,1.13-.41,1.13-1.2V56.86c0-.78-.37-1.19-1.13-1.19a1,1,0,0,0-1.13,1.19v1.48C285.66,59.13,286.05,59.54,286.79,59.54Z"/><path class="cls-3" d="M292.32,56a1.93,1.93,0,0,1,2.1,2v.88a1.83,1.83,0,0,1-1.92,2,2.26,2.26,0,0,1-.82-.15v1.56c0,.11-.05.16-.15.16h-1a.14.14,0,0,1-.16-.16V56.55a.16.16,0,0,1,.12-.17A5.9,5.9,0,0,1,292.32,56Zm.73,2.92V58a.68.68,0,0,0-.76-.78,1.9,1.9,0,0,0-.61.1v2.22a1.21,1.21,0,0,0,.62.15A.67.67,0,0,0,293.05,59Z"/><path class="cls-3" d="M296.93,60.9a3.28,3.28,0,0,1-1.85-.58.15.15,0,0,1,0-.22l.42-.71c.06-.1.12-.11.21,0a2.3,2.3,0,0,0,1.27.4c.37,0,.63-.13.63-.36s-.28-.31-.64-.37c-1-.16-1.76-.57-1.76-1.5S295.94,56,297.1,56a3.32,3.32,0,0,1,1.57.41.13.13,0,0,1,.05.21l-.4.7a.15.15,0,0,1-.22.06,2.25,2.25,0,0,0-1-.26q-.57,0-.57.33c0,.25.21.32.78.41.92.16,1.66.54,1.66,1.45S298.2,60.9,296.93,60.9Z"/><path class="cls-4" d="M288.14,37.38A21.43,21.43,0,0,1,296,40.62l2.53-2.53a1.67,1.67,0,0,1,2.36,0l3.48,3.48a1.68,1.68,0,0,1,0,2.35l-2.54,2.54A21.19,21.19,0,0,1,305,54.27h3.58a1.67,1.67,0,0,1,1.67,1.67v4.91a1.67,1.67,0,0,1-1.67,1.67H305a21,21,0,0,1-3.24,7.81l2.54,2.54a1.68,1.68,0,0,1,0,2.35l-3.48,3.48a1.67,1.67,0,0,1-2.36,0L296,76.17a21.43,21.43,0,0,1-7.81,3.24V83a1.67,1.67,0,0,1-1.67,1.67h-4.92A1.66,1.66,0,0,1,279.89,83V79.41a21.41,21.41,0,0,1-7.82-3.24l-2.53,2.53a1.67,1.67,0,0,1-2.36,0l-3.47-3.48a1.66,1.66,0,0,1,0-2.35l2.53-2.54A21.36,21.36,0,0,1,263,62.52h-3.58a1.67,1.67,0,0,1-1.67-1.67V55.94a1.67,1.67,0,0,1,1.67-1.67H263a21.36,21.36,0,0,1,3.24-7.81l-2.53-2.54a1.66,1.66,0,0,1,0-2.35l3.47-3.48a1.67,1.67,0,0,1,2.36,0l2.53,2.53a21.41,21.41,0,0,1,7.82-3.24V33.8a1.66,1.66,0,0,1,1.66-1.66h4.92a1.67,1.67,0,0,1,1.67,1.66Zm-4.13,4a17,17,0,1,1-17,17A17,17,0,0,1,284,41.35Z"/><path class="cls-1" d="M44.19,104.48a.49.49,0,0,1-.45-.28.5.5,0,0,1,.22-.67l.44-.22a.51.51,0,0,1,.68.23.51.51,0,0,1-.23.67l-.44.22A.59.59,0,0,1,44.19,104.48Zm3.12-1.56a.5.5,0,0,1-.22-.94l.9-.45a.5.5,0,1,1,.44.9l-.89.44A.48.48,0,0,1,47.31,102.92Zm3.58-1.78a.48.48,0,0,1-.44-.28.49.49,0,0,1,.22-.67l.9-.44a.5.5,0,1,1,.44.89l-.89.45A.59.59,0,0,1,50.89,101.14Zm3.59-1.78a.5.5,0,0,1-.23-1l.9-.45a.5.5,0,1,1,.44.9l-.89.45A.59.59,0,0,1,54.48,99.36Zm3.58-1.78a.51.51,0,0,1-.45-.28.5.5,0,0,1,.22-.67l.9-.45a.5.5,0,1,1,.44.9l-.89.44A.46.46,0,0,1,58.06,97.58Zm3.58-1.79a.5.5,0,0,1-.45-.27.52.52,0,0,1,.22-.68l.9-.44a.5.5,0,1,1,.44.89l-.89.45A.44.44,0,0,1,61.64,95.79ZM65.22,94a.49.49,0,0,1-.45-.28.51.51,0,0,1,.22-.67l.9-.44a.49.49,0,0,1,.67.22.5.5,0,0,1-.22.67l-.9.45A.59.59,0,0,1,65.22,94Zm3.58-1.78a.49.49,0,0,1-.45-.28.5.5,0,0,1,.22-.67l.9-.45a.5.5,0,0,1,.45.9l-.9.44A.46.46,0,0,1,68.8,92.23Zm3.58-1.79a.51.51,0,0,1-.45-.27.5.5,0,0,1,.23-.67l.89-.45a.5.5,0,0,1,.67.23.51.51,0,0,1-.22.67l-.9.44A.44.44,0,0,1,72.38,90.44ZM76,88.66a.5.5,0,0,1-.22-1l.89-.44a.5.5,0,0,1,.67.22.5.5,0,0,1-.22.67l-.9.45A.59.59,0,0,1,76,88.66Zm3.58-1.78a.5.5,0,0,1-.22-.95l.89-.44a.5.5,0,1,1,.45.89l-.9.45A.54.54,0,0,1,79.54,86.88Zm3.58-1.78a.52.52,0,0,1-.45-.28.5.5,0,0,1,.23-.67l.89-.45a.5.5,0,0,1,.67.23.49.49,0,0,1-.22.67l-.9.44A.43.43,0,0,1,83.12,85.1Z"/><path class="cls-1" d="M164.46,85.7a.5.5,0,0,1-.5-.5v-.5a.5.5,0,0,1,.5-.5.5.5,0,0,1,.5.5v.5A.5.5,0,0,1,164.46,85.7Z"/><path class="cls-1" d="M164.46,82a.51.51,0,0,1-.5-.5V80.47a.5.5,0,0,1,.5-.5.5.5,0,0,1,.5.5v1.06A.5.5,0,0,1,164.46,82Z"/><path class="cls-1" d="M164.46,77.8a.5.5,0,0,1-.5-.5V76.24a.51.51,0,0,1,.5-.5.5.5,0,0,1,.5.5V77.3A.5.5,0,0,1,164.46,77.8Zm0-4.23a.5.5,0,0,1-.5-.5V72a.51.51,0,0,1,.5-.5.5.5,0,0,1,.5.5v1.06A.5.5,0,0,1,164.46,73.57Zm0-4.23a.5.5,0,0,1-.5-.5v-1a.5.5,0,0,1,.5-.5.5.5,0,0,1,.5.5v1A.5.5,0,0,1,164.46,69.34Zm0-4.22a.51.51,0,0,1-.5-.5V63.56a.5.5,0,0,1,.5-.5.5.5,0,0,1,.5.5v1.06A.5.5,0,0,1,164.46,65.12Zm0-4.23a.51.51,0,0,1-.5-.5V59.33a.5.5,0,0,1,.5-.5.5.5,0,0,1,.5.5v1.06A.5.5,0,0,1,164.46,60.89Zm0-4.23a.5.5,0,0,1-.5-.5V55.1a.51.51,0,0,1,.5-.5.5.5,0,0,1,.5.5v1.06A.5.5,0,0,1,164.46,56.66Zm0-4.23a.5.5,0,0,1-.5-.5V50.87a.51.51,0,0,1,.5-.5.5.5,0,0,1,.5.5v1.06A.5.5,0,0,1,164.46,52.43Zm0-4.23a.5.5,0,0,1-.5-.5V46.65a.5.5,0,0,1,.5-.5.5.5,0,0,1,.5.5V47.7A.5.5,0,0,1,164.46,48.2Zm0-4.22a.51.51,0,0,1-.5-.5V42.42a.5.5,0,0,1,.5-.5.5.5,0,0,1,.5.5v1.06A.5.5,0,0,1,164.46,44Zm0-4.23a.51.51,0,0,1-.5-.5V38.19a.5.5,0,0,1,.5-.5.5.5,0,0,1,.5.5v1.06A.5.5,0,0,1,164.46,39.75Z"/><path class="cls-1" d="M164.46,35.52a.5.5,0,0,1-.5-.5v-.5a.51.51,0,0,1,.28-.45l.45-.22a.5.5,0,0,1,.67.23.51.51,0,0,1-.23.67l-.17.08V35A.5.5,0,0,1,164.46,35.52Z"/><path class="cls-1" d="M167.39,33.58a.48.48,0,0,1-.45-.28.5.5,0,0,1,.22-.67l.83-.41a.5.5,0,1,1,.44.9l-.82.41A.59.59,0,0,1,167.39,33.58Z"/><path class="cls-1" d="M170.69,32a.48.48,0,0,1-.45-.28.5.5,0,0,1,.22-.67l.83-.41a.5.5,0,0,1,.44.9l-.82.41A.59.59,0,0,1,170.69,32Zm3.3-1.63a.48.48,0,0,1-.45-.28.5.5,0,0,1,.22-.67l.83-.4a.5.5,0,1,1,.44.89l-.82.41A.59.59,0,0,1,174,30.32Zm3.3-1.63a.48.48,0,0,1-.45-.28.5.5,0,0,1,.22-.67l.83-.4a.5.5,0,1,1,.44.89l-.82.41A.44.44,0,0,1,177.29,28.69Zm3.3-1.63a.5.5,0,0,1-.23-.94l.83-.41a.5.5,0,0,1,.67.23.51.51,0,0,1-.23.67l-.82.4A.47.47,0,0,1,180.59,27.06Zm3.3-1.62a.5.5,0,0,1-.23-1l.83-.41a.5.5,0,1,1,.44.9l-.82.41A.63.63,0,0,1,183.89,25.44Zm3.3-1.63a.48.48,0,0,1-.45-.28.5.5,0,0,1,.22-.67l.83-.41a.5.5,0,0,1,.44.9l-.82.41A.63.63,0,0,1,187.19,23.81Zm3.29-1.63a.48.48,0,0,1-.44-.28.5.5,0,0,1,.22-.67l.83-.4a.49.49,0,0,1,.67.22.5.5,0,0,1-.23.67l-.82.41A.64.64,0,0,1,190.48,22.18Zm3.3-1.63a.48.48,0,0,1-.44-.28.5.5,0,0,1,.22-.67l.83-.4a.5.5,0,1,1,.44.89l-.82.41A.48.48,0,0,1,193.78,20.55Zm3.3-1.63a.49.49,0,0,1-.44-.27.5.5,0,0,1,.22-.67l.83-.41a.5.5,0,0,1,.67.23.51.51,0,0,1-.23.67l-.82.4A.48.48,0,0,1,197.08,18.92Zm3.3-1.62a.5.5,0,0,1-.22-.95l.83-.41a.5.5,0,1,1,.44.9l-.82.4A.49.49,0,0,1,200.38,17.3Z"/><path class="cls-1" d="M203.68,15.67a.48.48,0,0,1-.44-.28.5.5,0,0,1,.22-.67l.45-.22a.5.5,0,0,1,.67.23.49.49,0,0,1-.23.66l-.44.23A.64.64,0,0,1,203.68,15.67Z"/><path class="cls-1" d="M205.26,244.41a.5.5,0,0,1-.22-.95l.9-.43a.49.49,0,0,1,.67.23.5.5,0,0,1-.23.67l-.9.43A.59.59,0,0,1,205.26,244.41Zm-2.7-.55a.59.59,0,0,1-.22-.05l-.9-.44a.49.49,0,0,1-.23-.66.5.5,0,0,1,.67-.24l.9.44a.5.5,0,0,1-.22,1Zm6.3-1.19a.5.5,0,0,1-.21-.95l.9-.43a.49.49,0,0,1,.66.23.5.5,0,0,1-.23.67l-.9.43A.42.42,0,0,1,208.86,242.67Zm-9.9-.55a.54.54,0,0,1-.22-.05l-.9-.43a.5.5,0,0,1-.23-.67.49.49,0,0,1,.66-.24l.9.44a.5.5,0,0,1-.21,1Zm13.51-1.18a.49.49,0,0,1-.45-.29.5.5,0,0,1,.23-.67l.9-.43a.5.5,0,1,1,.43.9l-.9.44A.54.54,0,0,1,212.47,240.94Zm-17.12-.56a.41.41,0,0,1-.21,0l-.9-.43a.5.5,0,1,1,.43-.9l.9.43a.5.5,0,0,1,.23.67A.48.48,0,0,1,195.35,240.38Zm20.72-1.18a.5.5,0,0,1-.22-.95l.9-.44a.5.5,0,0,1,.67.24.49.49,0,0,1-.23.66l-.9.44A.59.59,0,0,1,216.07,239.2Zm-24.32-.56a.44.44,0,0,1-.22,0l-.9-.43a.51.51,0,0,1-.23-.67.5.5,0,0,1,.67-.23l.9.43a.5.5,0,0,1,.23.67A.48.48,0,0,1,191.75,238.64Zm27.92-1.18a.52.52,0,0,1-.45-.28.51.51,0,0,1,.23-.67l.9-.44a.5.5,0,0,1,.67.24.49.49,0,0,1-.23.66l-.9.44A.59.59,0,0,1,219.67,237.46Zm-31.52-.56a.44.44,0,0,1-.22-.05l-.9-.43a.5.5,0,1,1,.44-.9l.9.43a.5.5,0,0,1-.22,1Zm35.12-1.18a.5.5,0,0,1-.21-.95l.9-.43a.49.49,0,0,1,.66.23.5.5,0,0,1-.23.67l-.9.43A.54.54,0,0,1,223.27,235.72Zm-38.72-.55a.54.54,0,0,1-.22,0l-.9-.44a.5.5,0,0,1,.43-.9l.9.44a.49.49,0,0,1,.24.66A.51.51,0,0,1,184.55,235.17ZM226.88,234a.48.48,0,0,1-.45-.28.5.5,0,0,1,.23-.67l.9-.43a.5.5,0,1,1,.43.9l-.9.43A.41.41,0,0,1,226.88,234Zm-45.94-.55a.54.54,0,0,1-.21-.05l-.9-.44a.5.5,0,1,1,.43-.9l.9.44a.5.5,0,0,1-.22,1Zm49.54-1.19A.48.48,0,0,1,230,232a.5.5,0,0,1,.23-.67l.9-.43a.5.5,0,0,1,.44.9l-.9.43A.44.44,0,0,1,230.48,232.24Zm-53.14-.55a.59.59,0,0,1-.22-.05l-.9-.44a.5.5,0,0,1,.44-.9l.9.44a.5.5,0,0,1-.22.95Zm56.74-1.18a.51.51,0,0,1-.45-.29.5.5,0,0,1,.23-.66l.91-.44a.5.5,0,0,1,.43.9l-.9.44A.59.59,0,0,1,234.08,230.51ZM173.74,230a.59.59,0,0,1-.22,0l-.9-.43a.51.51,0,0,1,.44-.91l.9.44a.5.5,0,0,1,.23.67A.49.49,0,0,1,173.74,230Zm63.94-1.18a.51.51,0,0,1-.45-.29.49.49,0,0,1,.24-.66l.9-.44a.5.5,0,0,1,.67.24.49.49,0,0,1-.24.66l-.9.44A.54.54,0,0,1,237.68,228.77Zm-67.54-.56a.42.42,0,0,1-.22-.05l-.9-.43a.5.5,0,0,1-.23-.67.49.49,0,0,1,.66-.23l.9.43a.5.5,0,0,1-.21,1ZM241.29,227a.48.48,0,0,1-.45-.28.5.5,0,0,1,.23-.67l.9-.44a.5.5,0,1,1,.43.91l-.9.43A.54.54,0,0,1,241.29,227Zm-74.76-.56a.41.41,0,0,1-.21-.05l-.9-.43a.5.5,0,1,1,.43-.9l.9.43a.5.5,0,0,1,.23.67A.48.48,0,0,1,166.53,226.47Zm-2.24-2.59a.5.5,0,0,1-.5-.5v-1a.5.5,0,0,1,.5-.5.51.51,0,0,1,.5.5v1A.5.5,0,0,1,164.29,223.88Zm0-4a.5.5,0,0,1-.5-.5v-1a.5.5,0,0,1,.5-.5.51.51,0,0,1,.5.5v1A.5.5,0,0,1,164.29,219.88Zm0-4a.5.5,0,0,1-.5-.5v-1a.5.5,0,0,1,.5-.5.51.51,0,0,1,.5.5v1A.5.5,0,0,1,164.29,215.88Zm0-4a.5.5,0,0,1-.5-.5v-1a.5.5,0,0,1,.5-.5.51.51,0,0,1,.5.5v1A.5.5,0,0,1,164.29,211.88Zm0-4a.5.5,0,0,1-.5-.5v-1a.5.5,0,0,1,.5-.5.51.51,0,0,1,.5.5v1A.5.5,0,0,1,164.29,207.88Zm0-4a.5.5,0,0,1-.5-.5v-1a.5.5,0,0,1,.5-.5.51.51,0,0,1,.5.5v1A.5.5,0,0,1,164.29,203.88Zm0-4a.5.5,0,0,1-.5-.5v-1a.5.5,0,0,1,.5-.5.51.51,0,0,1,.5.5v1A.5.5,0,0,1,164.29,199.88Zm0-4a.5.5,0,0,1-.5-.5v-1a.5.5,0,0,1,.5-.5.51.51,0,0,1,.5.5v1A.5.5,0,0,1,164.29,195.88Zm0-4a.5.5,0,0,1-.5-.5v-1a.5.5,0,0,1,.5-.5.51.51,0,0,1,.5.5v1A.5.5,0,0,1,164.29,191.88Zm0-4a.5.5,0,0,1-.5-.5v-1a.5.5,0,0,1,.5-.5.51.51,0,0,1,.5.5v1A.5.5,0,0,1,164.29,187.88Zm0-4a.5.5,0,0,1-.5-.5v-1a.5.5,0,0,1,.5-.5.51.51,0,0,1,.5.5v1A.5.5,0,0,1,164.29,183.88Zm0-4a.5.5,0,0,1-.5-.5v-1a.5.5,0,0,1,.5-.5.51.51,0,0,1,.5.5v1A.5.5,0,0,1,164.29,179.88Zm0-4a.5.5,0,0,1-.5-.5v-1a.5.5,0,0,1,.5-.5.51.51,0,0,1,.5.5v1A.5.5,0,0,1,164.29,175.88Z"/><path class="cls-2" d="M244.33,83.35h0a.5.5,0,0,1-.5-.5v-1a.5.5,0,0,1,.5-.5h0a.51.51,0,0,1,.5.5v1A.5.5,0,0,1,244.33,83.35Zm0-4h0a.5.5,0,0,1-.5-.5v-1a.5.5,0,0,1,.5-.5h0a.5.5,0,0,1,.5.5v1A.5.5,0,0,1,244.35,79.35Zm0-4h0a.5.5,0,0,1-.5-.5v-1a.51.51,0,0,1,.5-.5h0a.49.49,0,0,1,.49.5v1A.5.5,0,0,1,244.36,75.35Zm0-4h0a.49.49,0,0,1-.49-.5v-1a.5.5,0,0,1,.5-.5h0a.5.5,0,0,1,.5.5v1A.51.51,0,0,1,244.38,71.35Zm0-4h0a.5.5,0,0,1-.5-.5v-1a.5.5,0,0,1,.5-.5.48.48,0,0,1,.5.5v1A.5.5,0,0,1,244.39,67.35Zm0-4h0a.5.5,0,0,1-.5-.5v-1a.5.5,0,0,1,.5-.5h0a.5.5,0,0,1,.5.5v1A.5.5,0,0,1,244.4,63.35Zm0-4h0a.5.5,0,0,1-.5-.5v-1a.5.5,0,0,1,.5-.5h0a.5.5,0,0,1,.5.5v1A.5.5,0,0,1,244.42,59.35Zm0-4a.48.48,0,0,1-.5-.5v-1a.51.51,0,0,1,.5-.5h0a.49.49,0,0,1,.49.5v1A.5.5,0,0,1,244.43,55.35Zm0-4h0a.5.5,0,0,1-.5-.5v-1a.5.5,0,0,1,.5-.5h0a.5.5,0,0,1,.5.5v1A.5.5,0,0,1,244.44,51.35Zm0-4h0a.5.5,0,0,1-.5-.5v-1a.5.5,0,0,1,.5-.5h0a.5.5,0,0,1,.5.5v1A.5.5,0,0,1,244.46,47.35Zm0-4h0a.5.5,0,0,1-.5-.5v-1a.5.5,0,0,1,.5-.5h0a.51.51,0,0,1,.5.5v1A.5.5,0,0,1,244.47,43.35Zm0-4h0a.49.49,0,0,1-.49-.5v-1a.5.5,0,0,1,.5-.5h0a.5.5,0,0,1,.5.5v1A.5.5,0,0,1,244.49,39.35Zm0-4a.48.48,0,0,1-.23,0l-.89-.44a.5.5,0,0,1,.44-.9l.9.44a.5.5,0,0,1,.22.67A.48.48,0,0,1,244.49,35.36Zm-3.59-1.77a.54.54,0,0,1-.22-.05l-.9-.44a.5.5,0,1,1,.44-.9l.9.44a.5.5,0,0,1-.22,1Zm-3.59-1.77a.59.59,0,0,1-.22-.05l-.9-.44a.5.5,0,0,1,.45-.9l.89.44a.5.5,0,0,1,.23.67A.49.49,0,0,1,237.31,31.82Zm-3.59-1.77a.59.59,0,0,1-.22-.05l-.89-.44a.51.51,0,0,1-.23-.67.5.5,0,0,1,.67-.23l.9.44a.5.5,0,0,1,.22.67A.48.48,0,0,1,233.72,30.05Zm-3.58-1.77a.54.54,0,0,1-.22-.05l-.9-.44a.51.51,0,0,1-.23-.67.5.5,0,0,1,.67-.23l.9.44a.5.5,0,0,1-.22,1Zm-3.59-1.77a.59.59,0,0,1-.22-.05l-.9-.44a.5.5,0,0,1,.45-.9l.89.44a.5.5,0,0,1-.22,1ZM223,24.74a.59.59,0,0,1-.22,0l-.89-.44a.51.51,0,0,1-.23-.67.5.5,0,0,1,.67-.23l.9.44a.5.5,0,0,1,.22.67A.48.48,0,0,1,223,24.74ZM219.38,23a.54.54,0,0,1-.22,0l-.9-.44a.51.51,0,0,1-.23-.67.5.5,0,0,1,.67-.23l.9.44a.5.5,0,0,1-.22.95Zm-3.59-1.77a.59.59,0,0,1-.22-.05l-.9-.44a.5.5,0,1,1,.44-.9l.9.44a.5.5,0,0,1-.22.95Zm-3.59-1.77a.59.59,0,0,1-.22-.05l-.9-.44a.51.51,0,0,1-.22-.67.5.5,0,0,1,.67-.23l.89.44a.5.5,0,0,1,.23.67A.49.49,0,0,1,212.2,19.43Zm-3.58-1.77a.54.54,0,0,1-.22-.05l-.9-.45a.49.49,0,0,1-.23-.66.5.5,0,0,1,.67-.23l.9.44a.5.5,0,0,1,.22.67A.48.48,0,0,1,208.62,17.66ZM205,15.89a.54.54,0,0,1-.22-.05l-.9-.45a.49.49,0,0,1-.23-.66.51.51,0,0,1,.67-.23l.9.44a.5.5,0,0,1-.22,1Z"/><path class="cls-5" d="M84.33,84.28a.5.5,0,0,1-.5-.5v-1a.49.49,0,0,1,.49-.5.52.52,0,0,1,.51.5v1a.5.5,0,0,1-.49.5Zm0-4a.51.51,0,0,1-.5-.5v-1a.49.49,0,0,1,.49-.5h0a.51.51,0,0,1,.5.5v1a.49.49,0,0,1-.49.5Zm0-4a.5.5,0,0,1-.5-.5v-1a.5.5,0,0,1,.49-.5h0a.5.5,0,0,1,.5.5v1a.5.5,0,0,1-.5.5Zm0-4a.5.5,0,0,1-.5-.5v-1a.5.5,0,0,1,.5-.5h0a.5.5,0,0,1,.5.5v1a.5.5,0,0,1-.5.5Zm0-4a.5.5,0,0,1-.5-.5v-1a.5.5,0,0,1,.5-.5h0a.5.5,0,0,1,.5.5v1a.5.5,0,0,1-.5.5Zm0-4a.5.5,0,0,1-.5-.5v-1a.5.5,0,0,1,.5-.5h0a.5.5,0,0,1,.5.5v1a.5.5,0,0,1-.49.5Zm0-4a.51.51,0,0,1-.5-.5v-1a.49.49,0,0,1,.49-.5h0a.51.51,0,0,1,.5.5v1a.49.49,0,0,1-.49.5Zm0-4a.51.51,0,0,1-.5-.5v-1a.5.5,0,0,1,.49-.5h0a.5.5,0,0,1,.5.5v1a.49.49,0,0,1-.49.5Zm0-4a.5.5,0,0,1-.5-.5v-1a.5.5,0,0,1,.5-.5h0a.5.5,0,0,1,.5.5v1a.5.5,0,0,1-.5.5Zm0-4a.5.5,0,0,1-.5-.5v-1a.5.5,0,0,1,.5-.5h0a.5.5,0,0,1,.5.5v1a.5.5,0,0,1-.5.5Zm0-4a.5.5,0,0,1-.5-.49v-1a.5.5,0,0,1,.5-.51h0a.5.5,0,0,1,.5.5v1a.5.5,0,0,1-.5.5Zm0-4a.5.5,0,0,1-.5-.49v-1a.5.5,0,0,1,.49-.51h0a.51.51,0,0,1,.5.5v1a.5.5,0,0,1-.49.5Zm0-4a.51.51,0,0,1-.5-.49v-1a.5.5,0,0,1,.49-.51h0a.51.51,0,0,1,.5.5v1a.49.49,0,0,1-.49.5Z"/><path class="cls-2" d="M324,35.1a.5.5,0,0,1-.22-1l.91-.43a.49.49,0,0,1,.66.23.5.5,0,0,1-.23.67l-.9.43A.44.44,0,0,1,324,35.1Zm3.61-1.73a.52.52,0,0,1-.46-.29.49.49,0,0,1,.24-.66l.9-.44a.5.5,0,1,1,.43.9l-.9.44A.54.54,0,0,1,327.58,33.37Zm3.6-1.74a.48.48,0,0,1-.45-.28.5.5,0,0,1,.23-.67l.9-.43a.49.49,0,0,1,.67.23.51.51,0,0,1-.23.67l-.9.43A.59.59,0,0,1,331.18,31.63Zm3.6-1.74a.5.5,0,0,1-.21-.95l.9-.43a.49.49,0,0,1,.66.23.5.5,0,0,1-.23.67l-.9.43A.42.42,0,0,1,334.78,29.89Zm3.61-1.73a.5.5,0,0,1-.22-.95l.9-.44a.5.5,0,0,1,.67.24.49.49,0,0,1-.24.66l-.9.44A.54.54,0,0,1,338.39,28.16Zm3.6-1.74a.49.49,0,0,1-.45-.28.5.5,0,0,1,.23-.67l.9-.43a.5.5,0,1,1,.44.9l-.9.43A.44.44,0,0,1,342,26.42Zm3.6-1.73a.51.51,0,0,1-.45-.29.5.5,0,0,1,.24-.67l.9-.43a.5.5,0,0,1,.43.9l-.9.44A.54.54,0,0,1,345.59,24.69ZM349.2,23a.48.48,0,0,1-.45-.28A.5.5,0,0,1,349,22l.9-.43a.49.49,0,0,1,.67.23.5.5,0,0,1-.24.67l-.9.43A.54.54,0,0,1,349.2,23Zm3.6-1.74a.49.49,0,0,1-.45-.28.5.5,0,0,1,.23-.67l.9-.43a.5.5,0,0,1,.44.9l-.9.43A.44.44,0,0,1,352.8,21.21Zm3.6-1.73a.51.51,0,0,1-.45-.29.5.5,0,0,1,.24-.66l.9-.44a.49.49,0,0,1,.66.24.48.48,0,0,1-.23.66l-.9.44A.54.54,0,0,1,356.4,19.48ZM360,17.74a.48.48,0,0,1-.45-.28.5.5,0,0,1,.23-.67l.9-.43a.5.5,0,0,1,.67.23.51.51,0,0,1-.23.67l-.91.43A.41.41,0,0,1,360,17.74Zm3.6-1.73a.51.51,0,0,1-.45-.29.49.49,0,0,1,.23-.66l.9-.44a.51.51,0,0,1,.67.23.5.5,0,0,1-.23.67l-.9.44A.59.59,0,0,1,363.61,16Z"/><polygon class="cls-2" points="134.34 110.03 164.34 95.03 194.34 110.03 194.34 147.53 164.34 162.53 134.34 147.53 134.34 110.03"/><path class="cls-3" d="M191.34,144.66l-5.46-6v3.62h-5a22.35,22.35,0,0,1-6.53,4.81h11.52v3.61Z"/><path class="cls-3" d="M183.82,129.36a17.76,17.76,0,0,0-31.48-11.23h0a19.53,19.53,0,0,0-2.71,4.56c0,.13-.08.22-.12.34s-.18.48-.26.74a17.39,17.39,0,0,0-.91,5.63,17.9,17.9,0,0,0,1.17,6.28l-3.32,1.42,7.92,3.13,3.09-7.91L154,133.7a12.19,12.19,0,0,1-.77-4.3,12.81,12.81,0,1,1,12.81,12.86H136.31l2.32,2.32-2.32,2.49h29.75A17.75,17.75,0,0,0,183.82,129.36Z"/><path class="cls-3" d="M148.09,121.53a2.51,2.51,0,0,1,.34.26,19.67,19.67,0,0,1,2.54-4.26c-.13-.08-.22-.17-.35-.26a4,4,0,0,1,2.71-6.92,3.49,3.49,0,0,1,1,.13l-1.55,3.1,3.4-1.17,4.69-1.59-.13-.34-2.63-7.74L156.51,106a9.19,9.19,0,0,0-3.18-.6,8.94,8.94,0,0,0-8.94,9A9.15,9.15,0,0,0,148.09,121.53Z"/><path class="cls-3" d="M156.54,131.06c-.13,0-.18-.08-.14-.2l2.25-6.61a.2.2,0,0,1,.19-.14h1.47a.19.19,0,0,1,.19.14l2.25,6.61c.05.12,0,.2-.13.2h-1.3a.2.2,0,0,1-.2-.15l-.36-1.18H158.4l-.37,1.18a.19.19,0,0,1-.19.15Zm2.26-2.68h1.56c-.27-.86-.57-1.92-.76-2.57h0C159.36,126.46,159.06,127.52,158.8,128.38Z"/><path class="cls-3" d="M164.9,133a3.22,3.22,0,0,1-1.92-.53.16.16,0,0,1,0-.24l.51-.79a.15.15,0,0,1,.23,0,2.35,2.35,0,0,0,1.16.32c.61,0,.92-.24.91-1a3,3,0,0,1-.9.15,2,2,0,0,1-2.11-2.08v-.79a2.07,2.07,0,0,1,2.33-2.19,5.9,5.9,0,0,1,2,.39.21.21,0,0,1,.12.2v4.11C167.21,132.23,166.53,133,164.9,133Zm.15-3.36a1.18,1.18,0,0,0,.68-.17v-2.2a2,2,0,0,0-.66-.1.72.72,0,0,0-.83.83v.85A.71.71,0,0,0,165.05,129.66Z"/><path class="cls-3" d="M168.64,125.31a.8.8,0,0,1-.82-.82.79.79,0,0,1,.82-.81.78.78,0,0,1,.82.81A.79.79,0,0,1,168.64,125.31Zm-.57,5.75a.16.16,0,0,1-.18-.18v-4.71a.16.16,0,0,1,.18-.16h1.14a.15.15,0,0,1,.17.16v4.71c0,.12-.06.18-.17.18Z"/><path class="cls-3" d="M171.84,131.18a1.68,1.68,0,0,1-1.8-1.88v-5a.16.16,0,0,1,.18-.18h1.14c.11,0,.17.06.17.18v4.82c0,.49.19.71.57.71h.3a.16.16,0,0,1,.19.17v1c0,.09,0,.16-.11.17A3.57,3.57,0,0,1,171.84,131.18Z"/><path class="cls-3" d="M177.08,128.87a.15.15,0,0,1-.17.17h-2.75v.15c0,.5.32.75.83.75a2.44,2.44,0,0,0,1.24-.35.13.13,0,0,1,.22,0l.51.67a.17.17,0,0,1,0,.24,3.15,3.15,0,0,1-2,.64,2,2,0,0,1-2.29-2v-1.22a2,2,0,0,1,2.26-2.07,1.93,1.93,0,0,1,2.16,2.07Zm-2.17-1.77a.69.69,0,0,0-.75.77v.21h1.49v-.21A.69.69,0,0,0,174.91,127.1Z"/><polygon class="cls-2" points="214.7 146.98 214.7 110.1 244.2 95.35 273.7 110.1 273.7 146.98 244.2 161.73 214.7 146.98"/><path class="cls-6" d="M244.2,95.91l29,14.5v36.26l-29,14.5-29-14.5V110.41l29-14.5m0-1.12-30,15v37.5l30,15,30-15v-37.5l-30-15Z"/><path class="cls-2" d="M484,175.78a.44.44,0,0,1-.22-.05l-.6-.31a.51.51,0,0,1-.22-.68.5.5,0,0,1,.67-.21l.6.31a.49.49,0,0,1,.22.67A.5.5,0,0,1,484,175.78Zm-3.26-1.68a.46.46,0,0,1-.23-.06l-.89-.45a.51.51,0,0,1-.21-.68.49.49,0,0,1,.67-.21l.89.45a.51.51,0,0,1,.21.68A.49.49,0,0,1,480.69,174.1Zm-3.56-1.83a.46.46,0,0,1-.22-.06l-.89-.46a.49.49,0,0,1-.22-.67.5.5,0,0,1,.67-.22l.89.46a.5.5,0,0,1,.22.68A.51.51,0,0,1,477.13,172.27Zm-3.55-1.84a.46.46,0,0,1-.23-.05l-.89-.46a.5.5,0,0,1-.21-.67.49.49,0,0,1,.67-.22l.89.46a.5.5,0,0,1-.23.94ZM470,168.6a.53.53,0,0,1-.23-.06l-.88-.45a.5.5,0,1,1,.45-.89l.89.46a.5.5,0,0,1,.22.67A.51.51,0,0,1,470,168.6Zm-3.55-1.83a.46.46,0,0,1-.23-.06l-.89-.46a.48.48,0,0,1-.21-.67.5.5,0,0,1,.67-.22l.89.46a.51.51,0,0,1,.21.68A.5.5,0,0,1,466.47,166.77Zm-3.56-1.84a.5.5,0,0,1-.23-.05l-.88-.46a.5.5,0,1,1,.45-.89l.89.46a.5.5,0,0,1,.22.67A.49.49,0,0,1,462.91,164.93Zm-3.55-1.83a.59.59,0,0,1-.23,0l-.89-.46a.5.5,0,1,1,.46-.89l.89.46a.49.49,0,0,1,.21.67A.5.5,0,0,1,459.36,163.1Zm-3.56-1.83a.53.53,0,0,1-.23-.06l-.88-.46a.49.49,0,0,1-.22-.67.5.5,0,0,1,.67-.21l.89.45a.5.5,0,0,1-.23,1Zm-3.55-1.83a.46.46,0,0,1-.23-.06l-.89-.46a.5.5,0,0,1-.22-.67.51.51,0,0,1,.68-.22l.89.46a.5.5,0,0,1,.21.67A.49.49,0,0,1,452.25,159.44Zm-3.56-1.84a.64.64,0,0,1-.23,0l-.89-.46a.5.5,0,0,1-.21-.67.49.49,0,0,1,.67-.22l.89.46a.5.5,0,0,1,.22.67A.51.51,0,0,1,448.69,157.6Zm-3.55-1.83a.46.46,0,0,1-.23-.06l-.89-.45a.5.5,0,1,1,.46-.89l.89.45a.51.51,0,0,1,.21.68A.5.5,0,0,1,445.14,155.77Z"/><path class="cls-2" d="M444.25,104.81a.5.5,0,0,1-.45-.29.49.49,0,0,1,.23-.66l.9-.44a.5.5,0,0,1,.67.23.51.51,0,0,1-.23.67l-.9.43A.46.46,0,0,1,444.25,104.81Zm3.59-1.76a.5.5,0,0,1-.22-1l.9-.44a.51.51,0,0,1,.67.23.5.5,0,0,1-.23.67l-.9.44A.42.42,0,0,1,447.84,103.05Zm3.6-1.75a.5.5,0,0,1-.22-1l.9-.44a.5.5,0,0,1,.67.23.51.51,0,0,1-.23.67l-.9.44A.59.59,0,0,1,451.44,101.3ZM455,99.54a.5.5,0,0,1-.22-1l.9-.43a.5.5,0,1,1,.44.89l-.9.44A.42.42,0,0,1,455,99.54Zm3.6-1.75a.48.48,0,0,1-.45-.28.5.5,0,0,1,.23-.67l.9-.44a.5.5,0,1,1,.44.9l-.9.44A.59.59,0,0,1,458.63,97.79ZM462.22,96a.5.5,0,0,1-.45-.28.49.49,0,0,1,.23-.66l.9-.44a.49.49,0,0,1,.67.23.51.51,0,0,1-.23.67l-.9.43A.42.42,0,0,1,462.22,96Zm3.6-1.75a.48.48,0,0,1-.45-.28.5.5,0,0,1,.23-.67l.9-.44a.5.5,0,0,1,.67.23.51.51,0,0,1-.23.67l-.9.44A.59.59,0,0,1,465.82,94.28Zm3.59-1.75a.52.52,0,0,1-.45-.28.5.5,0,0,1,.23-.67l.9-.44a.5.5,0,0,1,.44.9l-.9.44A.54.54,0,0,1,469.41,92.53Zm3.6-1.76a.48.48,0,0,1-.45-.28.5.5,0,0,1,.23-.67l.9-.44a.5.5,0,0,1,.66.23.49.49,0,0,1-.23.67l-.89.44A.47.47,0,0,1,473,90.77ZM476.6,89a.52.52,0,0,1-.45-.28.5.5,0,0,1,.23-.67l.9-.44a.5.5,0,0,1,.44.9l-.9.44A.54.54,0,0,1,476.6,89Zm3.6-1.76a.48.48,0,0,1-.45-.28.5.5,0,0,1,.23-.67l.9-.43a.49.49,0,1,1,.43.89l-.89.44A.44.44,0,0,1,480.2,87.26Zm3.59-1.75a.5.5,0,0,1-.22-1l.51-.25a.5.5,0,0,1,.44.9l-.51.25A.59.59,0,0,1,483.79,85.51Z"/><path class="cls-2" d="M124.18,105.4a.46.46,0,0,1-.23-.06l-.89-.45a.51.51,0,0,1-.21-.68.49.49,0,0,1,.67-.21l.89.45a.52.52,0,0,1,.22.68A.51.51,0,0,1,124.18,105.4Zm-3.56-1.83a.46.46,0,0,1-.22-.06l-.89-.46a.49.49,0,0,1-.22-.67.51.51,0,0,1,.67-.22l.89.46a.51.51,0,0,1,.22.68A.5.5,0,0,1,120.62,103.57Zm-3.55-1.83a.46.46,0,0,1-.23-.06l-.89-.46a.5.5,0,0,1-.22-.67.52.52,0,0,1,.68-.22l.89.46a.51.51,0,0,1,.21.68A.5.5,0,0,1,117.07,101.74Zm-3.56-1.83a.46.46,0,0,1-.23-.06l-.89-.46a.49.49,0,0,1-.21-.67.5.5,0,0,1,.67-.22l.89.46a.52.52,0,0,1,.22.68A.51.51,0,0,1,113.51,99.91ZM110,98.08a.46.46,0,0,1-.22-.06l-.89-.46a.49.49,0,0,1-.22-.67.5.5,0,0,1,.67-.22l.89.46a.51.51,0,0,1,.22.68A.5.5,0,0,1,110,98.08Zm-3.55-1.83a.46.46,0,0,1-.23-.06l-.89-.46a.5.5,0,0,1-.22-.67.51.51,0,0,1,.68-.22l.89.46a.51.51,0,0,1,.21.68A.5.5,0,0,1,106.4,96.25Zm-3.56-1.83a.49.49,0,0,1-.23-.06l-.89-.46a.49.49,0,0,1-.21-.67.5.5,0,0,1,.67-.22l.89.46a.51.51,0,0,1,.22.67A.5.5,0,0,1,102.84,94.42Zm-3.56-1.83a.46.46,0,0,1-.22-.06l-.89-.46A.49.49,0,0,1,98,91.4a.5.5,0,0,1,.67-.22l.89.46a.5.5,0,0,1,.22.67A.49.49,0,0,1,99.28,92.59Zm-3.55-1.83a.46.46,0,0,1-.23-.06l-.89-.46a.5.5,0,0,1-.22-.67.51.51,0,0,1,.68-.22l.89.46a.5.5,0,0,1,.21.67A.49.49,0,0,1,95.73,90.76Zm-3.56-1.84a.48.48,0,0,1-.23,0l-.89-.46a.5.5,0,0,1,.46-.89l.89.46a.5.5,0,0,1,.22.67A.49.49,0,0,1,92.17,88.92Zm-3.56-1.83a.44.44,0,0,1-.22,0l-.89-.46a.49.49,0,0,1-.22-.67.5.5,0,0,1,.67-.22l.89.46a.49.49,0,0,1,.22.67A.48.48,0,0,1,88.61,87.09Zm-3.55-1.83a.46.46,0,0,1-.23-.05l-.72-.37a.5.5,0,1,1,.46-.89l.72.37a.5.5,0,0,1-.23.94Z"/><path class="cls-2" d="M323.87,35.44a.44.44,0,0,1-.22,0l-.89-.45a.5.5,0,0,1,.45-.9l.89.46a.49.49,0,0,1,.22.67A.5.5,0,0,1,323.87,35.44Zm-79.37-.07a.51.51,0,0,1-.45-.27.52.52,0,0,1,.22-.68l.9-.45a.51.51,0,0,1,.67.22.5.5,0,0,1-.22.67l-.89.46A.64.64,0,0,1,244.5,35.37Zm75.81-1.74a.64.64,0,0,1-.23-.05l-.89-.46a.5.5,0,0,1-.22-.67.51.51,0,0,1,.67-.22l.9.46a.49.49,0,0,1,.21.67A.49.49,0,0,1,320.31,33.63Zm-72.24-.07a.51.51,0,0,1-.45-.27.5.5,0,0,1,.22-.67l.9-.46a.51.51,0,0,1,.67.22.52.52,0,0,1-.22.68l-.89.45A.48.48,0,0,1,248.07,33.56Zm68.67-1.74a.59.59,0,0,1-.22-.05l-.89-.46a.49.49,0,0,1-.22-.67.5.5,0,0,1,.67-.22l.89.45a.5.5,0,0,1-.23.95Zm-65.1-.06a.5.5,0,0,1-.23-1l.89-.45a.5.5,0,0,1,.68.22.51.51,0,0,1-.22.67l-.9.45A.46.46,0,0,1,251.64,31.76ZM313.18,30A.46.46,0,0,1,313,30l-.89-.45a.5.5,0,0,1,.45-.89l.89.45a.5.5,0,0,1-.22,1Zm-58-.06a.49.49,0,0,1-.45-.28A.5.5,0,0,1,255,29l.89-.45a.51.51,0,0,1,.68.22.5.5,0,0,1-.22.67l-.9.45A.46.46,0,0,1,255.21,30Zm54.4-1.75a.49.49,0,0,1-.23-.06l-.89-.45a.51.51,0,0,1-.22-.67.5.5,0,0,1,.68-.22l.89.45a.5.5,0,0,1-.23.95Zm-50.83-.06a.5.5,0,0,1-.45-.27.49.49,0,0,1,.22-.67l.89-.46a.5.5,0,0,1,.45.9l-.89.45A.59.59,0,0,1,258.78,28.14ZM306,26.38a.44.44,0,0,1-.22-.05l-.89-.45a.5.5,0,0,1,.45-.9l.89.46a.49.49,0,0,1,.22.67A.5.5,0,0,1,306,26.38Zm-43.7-.05a.5.5,0,0,1-.44-.27.49.49,0,0,1,.22-.67l.89-.45a.49.49,0,0,1,.67.22.49.49,0,0,1-.22.67l-.89.45A.46.46,0,0,1,262.34,26.33Zm40.14-1.76a.59.59,0,0,1-.23-.05l-.89-.46a.5.5,0,0,1-.22-.67.51.51,0,0,1,.67-.22l.9.46a.49.49,0,0,1,.21.67A.49.49,0,0,1,302.48,24.57Zm-36.57,0a.5.5,0,0,1-.22-1l.89-.45A.5.5,0,0,1,267,24l-.89.45A.46.46,0,0,1,265.91,24.53Zm33-1.77a.59.59,0,0,1-.22-.05l-.9-.46a.5.5,0,0,1,.46-.89l.89.45a.5.5,0,0,1-.23,1Zm-29.43,0a.49.49,0,0,1-.44-.27.5.5,0,0,1,.22-.68l.89-.45a.5.5,0,0,1,.45.9l-.89.45A.64.64,0,0,1,269.48,22.72ZM295.35,21a.46.46,0,0,1-.23-.06l-.89-.45a.5.5,0,0,1,.45-.89l.89.45a.5.5,0,0,1-.22.95Zm-22.3,0a.51.51,0,0,1-.45-.27.5.5,0,0,1,.22-.67l.9-.45a.49.49,0,0,1,.67.22.51.51,0,0,1-.22.67l-.89.45A.48.48,0,0,1,273.05,20.91Zm18.73-1.77a.49.49,0,0,1-.23-.06l-.89-.45a.51.51,0,0,1-.22-.67.5.5,0,0,1,.68-.22l.89.45a.51.51,0,0,1,.22.67A.5.5,0,0,1,291.78,19.14Zm-15.16,0a.5.5,0,0,1-.45-.28.51.51,0,0,1,.22-.67l.9-.45a.49.49,0,0,1,.67.22.5.5,0,0,1-.22.67l-.9.45A.46.46,0,0,1,276.62,19.11Zm11.59-1.79a.44.44,0,0,1-.22-.05l-.89-.45a.5.5,0,0,1-.22-.68.49.49,0,0,1,.67-.21l.89.45a.5.5,0,0,1,.22.67A.5.5,0,0,1,288.21,17.32Zm-8,0a.51.51,0,0,1-.45-.27.52.52,0,0,1,.22-.68l.89-.45a.51.51,0,0,1,.46.9l-.9.45A.59.59,0,0,1,280.19,17.3Zm4.46-1.79a.59.59,0,0,1-.23,0l-.24-.12-.2.1a.5.5,0,0,1-.45-.89l.43-.22a.51.51,0,0,1,.45,0l.46.24a.5.5,0,0,1-.22.94Z"/><line class="cls-7" x1="323.93" y1="34.97" x2="324.19" y2="84.91"/><path class="cls-1" d="M244.26,175.37l-.22-.11-40.28-20.14V104.51l40.5-20.25,40.5,20.25v50.61l-.27.14Zm-39.5-20.86,39.5,19.75,39.5-19.75V105.12l-39.5-19.75-39.5,19.75Z"/><path class="cls-1" d="M164.26,175.31a.44.44,0,0,1-.22-.05l-40-20a.5.5,0,0,1-.28-.45v-50a.5.5,0,0,1,.28-.44l40-20a.51.51,0,0,1,.45,0l40,20a.49.49,0,0,1,.27.44v50a.49.49,0,0,1-.27.45l-40,20A.46.46,0,0,1,164.26,175.31Zm-39.5-20.8,39.5,19.75,39.5-19.75V105.12l-39.5-19.75-39.5,19.75Z"/><path class="cls-1" d="M284.26,245.31a.44.44,0,0,1-.22-.05l-40-20a.5.5,0,0,1-.28-.45v-50a.5.5,0,0,1,.28-.44l40-20a.51.51,0,0,1,.45,0l40,20a.49.49,0,0,1,.27.44v50a.49.49,0,0,1-.27.45l-40,20A.46.46,0,0,1,284.26,245.31Zm-39.5-20.8,39.5,19.75,39.5-19.75V175.12l-39.5-19.75-39.5,19.75Z"/><path class="cls-1" d="M324.26,175.37l-.22-.11-40.28-20.14V104.51l40.5-20.25,40.5,20.25v50.61l-.27.14Zm-39.5-20.86,39.5,19.75,39.5-19.75V105.12l-39.5-19.75-39.5,19.75Z"/><path class="cls-1" d="M324.26,175.81a.5.5,0,0,1-.5-.5v-.5a.5.5,0,0,1,.28-.44l.45-.23a.5.5,0,0,1,.44.9l-.17.08v.19A.5.5,0,0,1,324.26,175.81Z"/><path class="cls-1" d="M327.21,173.84a.5.5,0,0,1-.23-.94l.83-.42a.52.52,0,0,1,.68.22.5.5,0,0,1-.23.67l-.83.42A.44.44,0,0,1,327.21,173.84Z"/><path class="cls-1" d="M330.54,172.18a.5.5,0,0,1-.23-1l.83-.41a.5.5,0,0,1,.45.89l-.83.42A.59.59,0,0,1,330.54,172.18Zm3.32-1.66a.5.5,0,0,1-.44-.28.49.49,0,0,1,.22-.67l.83-.42a.5.5,0,0,1,.67.23.49.49,0,0,1-.22.67l-.83.41A.49.49,0,0,1,333.86,170.52Zm3.33-1.67a.5.5,0,0,1-.22-.95l.83-.41a.49.49,0,0,1,.67.22.5.5,0,0,1-.22.67l-.84.42A.54.54,0,0,1,337.19,168.85Zm3.33-1.66a.5.5,0,0,1-.22-.95l.83-.42a.5.5,0,0,1,.44.9l-.83.41A.46.46,0,0,1,340.52,167.19Zm3.33-1.67a.5.5,0,0,1-.23-.94l.84-.42a.51.51,0,0,1,.67.22.5.5,0,0,1-.23.67l-.83.42A.44.44,0,0,1,343.85,165.52Zm3.33-1.66a.5.5,0,0,1-.23-1l.83-.41a.5.5,0,0,1,.45.89l-.83.42A.59.59,0,0,1,347.18,163.86Zm3.32-1.67a.5.5,0,0,1-.22-.94l.83-.42a.5.5,0,0,1,.67.23.49.49,0,0,1-.22.67l-.83.41A.46.46,0,0,1,350.5,162.19Zm3.33-1.66a.5.5,0,0,1-.22-.95l.83-.41a.49.49,0,0,1,.67.22.5.5,0,0,1-.22.67l-.83.42A.64.64,0,0,1,353.83,160.53Zm3.33-1.66a.5.5,0,0,1-.22-1l.83-.42a.5.5,0,0,1,.67.23.51.51,0,0,1-.22.67l-.84.41A.43.43,0,0,1,357.16,158.87Zm3.33-1.67a.5.5,0,0,1-.23-.94l.84-.42a.51.51,0,0,1,.67.22.5.5,0,0,1-.23.67l-.83.42A.44.44,0,0,1,360.49,157.2Z"/><path class="cls-1" d="M364.71,155.54a.54.54,0,0,1-.22,0l-.23-.12-.22.12a.5.5,0,0,1-.67-.23.51.51,0,0,1,.22-.67l.45-.22a.51.51,0,0,1,.45,0l.44.22a.5.5,0,0,1-.22.95Z"/><path class="cls-1" d="M368,157.2a.48.48,0,0,1-.23,0l-.83-.42a.5.5,0,0,1,.45-.89l.83.42a.5.5,0,0,1,.23.67A.51.51,0,0,1,368,157.2Z"/><path class="cls-1" d="M401.32,173.84a.42.42,0,0,1-.22-.05l-.84-.42a.5.5,0,0,1,.45-.89l.83.42a.5.5,0,0,1,.23.67A.51.51,0,0,1,401.32,173.84ZM398,172.18a.59.59,0,0,1-.22-.05l-.83-.42a.5.5,0,0,1-.23-.67.49.49,0,0,1,.67-.22l.84.41a.51.51,0,0,1,.22.67A.5.5,0,0,1,398,172.18Zm-3.33-1.66a.46.46,0,0,1-.22-.06l-.83-.41a.51.51,0,0,1-.23-.67.51.51,0,0,1,.68-.23l.83.42a.5.5,0,0,1,.22.67A.51.51,0,0,1,394.66,170.52Zm-3.33-1.67a.59.59,0,0,1-.22,0l-.83-.42a.5.5,0,1,1,.45-.89l.83.41a.5.5,0,0,1-.23.95ZM388,167.19a.49.49,0,0,1-.23-.06l-.83-.41a.49.49,0,0,1-.22-.67.5.5,0,0,1,.67-.23l.83.42a.49.49,0,0,1,.22.67A.48.48,0,0,1,388,167.19Zm-3.33-1.67a.42.42,0,0,1-.22-.05l-.84-.42a.5.5,0,0,1,.45-.89l.83.42a.5.5,0,0,1,.23.67A.51.51,0,0,1,384.68,165.52Zm-3.33-1.66a.59.59,0,0,1-.22-.05l-.83-.42a.5.5,0,0,1-.23-.67.49.49,0,0,1,.67-.22l.83.41a.5.5,0,0,1-.22,1ZM378,162.19a.44.44,0,0,1-.22-.05l-.83-.41a.5.5,0,1,1,.44-.9l.84.42a.5.5,0,0,1-.23.94Zm-3.33-1.66a.59.59,0,0,1-.22-.05l-.83-.42a.5.5,0,1,1,.45-.89l.83.41a.5.5,0,0,1-.23.95Zm-3.32-1.66a.46.46,0,0,1-.23-.06l-.83-.41a.49.49,0,0,1-.22-.67.5.5,0,0,1,.67-.23l.83.42a.49.49,0,0,1,.22.67A.48.48,0,0,1,371.37,158.87Z"/><path class="cls-1" d="M404.26,175.81a.5.5,0,0,1-.5-.5v-.19l-.17-.08a.51.51,0,0,1-.22-.67.5.5,0,0,1,.67-.23l.45.23a.49.49,0,0,1,.27.44v.5A.5.5,0,0,1,404.26,175.81Z"/><path class="cls-1" d="M404.26,180a.51.51,0,0,1-.5-.5v-1.05a.51.51,0,0,1,.5-.5.5.5,0,0,1,.5.5v1.05A.5.5,0,0,1,404.26,180Z"/><path class="cls-1" d="M404.26,221.69a.51.51,0,0,1-.5-.5v-1.05a.51.51,0,0,1,.5-.5.5.5,0,0,1,.5.5v1.05A.5.5,0,0,1,404.26,221.69Zm0-4.17a.51.51,0,0,1-.5-.5V216a.51.51,0,0,1,.5-.5.5.5,0,0,1,.5.5V217A.5.5,0,0,1,404.26,217.52Zm0-4.17a.51.51,0,0,1-.5-.5v-1a.51.51,0,0,1,.5-.5.5.5,0,0,1,.5.5v1A.5.5,0,0,1,404.26,213.35Zm0-4.17a.51.51,0,0,1-.5-.5v-1.05a.51.51,0,0,1,.5-.5.5.5,0,0,1,.5.5v1.05A.5.5,0,0,1,404.26,209.18Zm0-4.17a.51.51,0,0,1-.5-.5v-1a.51.51,0,0,1,.5-.5.5.5,0,0,1,.5.5v1A.5.5,0,0,1,404.26,205Zm0-4.17a.51.51,0,0,1-.5-.5v-1.05a.51.51,0,0,1,.5-.5.5.5,0,0,1,.5.5v1.05A.5.5,0,0,1,404.26,200.84Zm0-4.17a.51.51,0,0,1-.5-.5v-1a.51.51,0,0,1,.5-.5.5.5,0,0,1,.5.5v1A.5.5,0,0,1,404.26,196.67Zm0-4.17a.51.51,0,0,1-.5-.5V191a.51.51,0,0,1,.5-.5.5.5,0,0,1,.5.5V192A.5.5,0,0,1,404.26,192.5Zm0-4.17a.51.51,0,0,1-.5-.5v-1.05a.51.51,0,0,1,.5-.5.5.5,0,0,1,.5.5v1.05A.5.5,0,0,1,404.26,188.33Zm0-4.17a.51.51,0,0,1-.5-.5v-1a.51.51,0,0,1,.5-.5.5.5,0,0,1,.5.5v1A.5.5,0,0,1,404.26,184.16Z"/><path class="cls-1" d="M403.82,225.54a.49.49,0,0,1-.45-.28.51.51,0,0,1,.22-.67l.17-.08v-.2a.51.51,0,0,1,.5-.5.5.5,0,0,1,.5.5v.5a.49.49,0,0,1-.27.45l-.45.23A.59.59,0,0,1,403.82,225.54Z"/><path class="cls-1" d="M400.49,227.2a.5.5,0,0,1-.23-.94l.84-.42a.5.5,0,1,1,.44.89l-.83.42A.44.44,0,0,1,400.49,227.2Z"/><path class="cls-1" d="M367.21,243.84a.5.5,0,0,1-.23-.94l.83-.42a.52.52,0,0,1,.68.22.5.5,0,0,1-.23.67l-.83.42A.44.44,0,0,1,367.21,243.84Zm3.33-1.66a.5.5,0,0,1-.23-1l.83-.41a.5.5,0,0,1,.45.89l-.83.42A.59.59,0,0,1,370.54,242.18Zm3.32-1.66a.5.5,0,0,1-.44-.28.49.49,0,0,1,.22-.67l.83-.42a.5.5,0,0,1,.67.23.49.49,0,0,1-.22.67l-.83.41A.49.49,0,0,1,373.86,240.52Zm3.33-1.67a.5.5,0,0,1-.22-.95l.83-.41a.5.5,0,0,1,.67.22.5.5,0,0,1-.22.67l-.84.42A.54.54,0,0,1,377.19,238.85Zm3.33-1.66a.5.5,0,0,1-.22-.95l.83-.42a.5.5,0,0,1,.44.9l-.83.41A.46.46,0,0,1,380.52,237.19Zm3.33-1.67a.5.5,0,0,1-.23-.94l.84-.42a.5.5,0,1,1,.44.89l-.83.42A.44.44,0,0,1,383.85,235.52Zm3.33-1.66a.5.5,0,0,1-.23-1l.83-.41a.5.5,0,0,1,.45.89l-.83.42A.59.59,0,0,1,387.18,233.86Zm3.32-1.67a.5.5,0,0,1-.22-.94l.83-.42a.5.5,0,0,1,.67.23.49.49,0,0,1-.22.67l-.83.41A.46.46,0,0,1,390.5,232.19Zm3.33-1.66a.5.5,0,0,1-.22-.95l.83-.41a.49.49,0,0,1,.67.22.5.5,0,0,1-.22.67l-.83.42A.64.64,0,0,1,393.83,230.53Zm3.33-1.66a.5.5,0,0,1-.22-1l.83-.42a.5.5,0,0,1,.45.9l-.84.41A.43.43,0,0,1,397.16,228.87Z"/><path class="cls-1" d="M364.26,245.31a.44.44,0,0,1-.22-.05l-.45-.22a.51.51,0,0,1-.22-.67.5.5,0,0,1,.67-.23l.22.12.23-.12a.5.5,0,0,1,.44.9l-.44.22A.46.46,0,0,1,364.26,245.31Z"/><path class="cls-1" d="M361.32,243.84a.42.42,0,0,1-.22-.05l-.84-.42a.5.5,0,1,1,.45-.89l.83.42a.5.5,0,0,1,.23.67A.51.51,0,0,1,361.32,243.84Z"/><path class="cls-1" d="M358,242.18a.59.59,0,0,1-.22-.05l-.83-.42a.5.5,0,0,1-.23-.67.49.49,0,0,1,.67-.22l.84.41a.51.51,0,0,1,.22.67A.5.5,0,0,1,358,242.18Zm-3.33-1.66a.46.46,0,0,1-.22-.06l-.83-.41a.51.51,0,0,1-.23-.67.51.51,0,0,1,.68-.23l.83.42a.5.5,0,0,1,.22.67A.51.51,0,0,1,354.66,240.52Zm-3.33-1.67a.59.59,0,0,1-.22,0l-.83-.42a.49.49,0,0,1-.22-.67.5.5,0,0,1,.67-.22l.83.41a.5.5,0,0,1-.23.95ZM348,237.19a.49.49,0,0,1-.23-.06l-.83-.41a.49.49,0,0,1-.22-.67.5.5,0,0,1,.67-.23l.83.42a.49.49,0,0,1,.22.67A.48.48,0,0,1,348,237.19Zm-3.33-1.67a.42.42,0,0,1-.22-.05l-.84-.42a.5.5,0,0,1-.22-.67.5.5,0,0,1,.67-.22l.83.42a.5.5,0,0,1,.23.67A.51.51,0,0,1,344.68,235.52Zm-3.33-1.66a.59.59,0,0,1-.22-.05l-.83-.42a.5.5,0,0,1-.23-.67.49.49,0,0,1,.67-.22l.83.41a.5.5,0,0,1-.22,1ZM338,232.19a.44.44,0,0,1-.22-.05l-.83-.41a.5.5,0,1,1,.44-.9l.84.42a.5.5,0,0,1-.23.94Zm-3.33-1.66a.59.59,0,0,1-.22-.05l-.83-.42a.5.5,0,1,1,.45-.89l.83.41a.5.5,0,0,1-.23.95Zm-3.32-1.66a.46.46,0,0,1-.23-.06l-.83-.41a.49.49,0,0,1-.22-.67.5.5,0,0,1,.67-.23l.83.42a.49.49,0,0,1,.22.67A.48.48,0,0,1,331.37,228.87ZM328,227.2a.48.48,0,0,1-.23,0l-.83-.42a.5.5,0,0,1-.22-.67.5.5,0,0,1,.67-.22l.83.42a.5.5,0,0,1,.23.67A.51.51,0,0,1,328,227.2Z"/><path class="cls-1" d="M324.71,225.54a.54.54,0,0,1-.22,0l-.45-.23a.5.5,0,0,1-.28-.45v-.5a.51.51,0,0,1,.5-.5.5.5,0,0,1,.5.5v.2l.17.08a.5.5,0,0,1-.22.95Z"/><path class="cls-1" d="M324.26,221.69a.51.51,0,0,1-.5-.5v-1.05a.51.51,0,0,1,.5-.5.5.5,0,0,1,.5.5v1.05A.5.5,0,0,1,324.26,221.69Z"/><path class="cls-1" d="M324.26,217.52a.51.51,0,0,1-.5-.5V216a.51.51,0,0,1,.5-.5.5.5,0,0,1,.5.5V217A.5.5,0,0,1,324.26,217.52Zm0-4.17a.51.51,0,0,1-.5-.5v-1a.51.51,0,0,1,.5-.5.5.5,0,0,1,.5.5v1A.5.5,0,0,1,324.26,213.35Zm0-4.17a.51.51,0,0,1-.5-.5v-1.05a.51.51,0,0,1,.5-.5.5.5,0,0,1,.5.5v1.05A.5.5,0,0,1,324.26,209.18Zm0-4.17a.51.51,0,0,1-.5-.5v-1a.51.51,0,0,1,.5-.5.5.5,0,0,1,.5.5v1A.5.5,0,0,1,324.26,205Zm0-4.17a.51.51,0,0,1-.5-.5v-1.05a.51.51,0,0,1,.5-.5.5.5,0,0,1,.5.5v1.05A.5.5,0,0,1,324.26,200.84Zm0-4.17a.51.51,0,0,1-.5-.5v-1a.51.51,0,0,1,.5-.5.5.5,0,0,1,.5.5v1A.5.5,0,0,1,324.26,196.67Zm0-4.17a.51.51,0,0,1-.5-.5V191a.51.51,0,0,1,.5-.5.5.5,0,0,1,.5.5V192A.5.5,0,0,1,324.26,192.5Zm0-4.17a.51.51,0,0,1-.5-.5v-1.05a.51.51,0,0,1,.5-.5.5.5,0,0,1,.5.5v1.05A.5.5,0,0,1,324.26,188.33Zm0-4.17a.51.51,0,0,1-.5-.5v-1a.51.51,0,0,1,.5-.5.5.5,0,0,1,.5.5v1A.5.5,0,0,1,324.26,184.16Zm0-4.18a.5.5,0,0,1-.5-.5v-1a.51.51,0,0,1,.5-.5.5.5,0,0,1,.5.5v1A.5.5,0,0,1,324.26,180Z"/><polygon class="cls-3" points="234.14 118.52 227.94 138.54 230.96 138.54 237.15 118.52 234.14 118.52"/><polygon class="cls-3" points="238.56 118.56 232.39 138.53 235.39 138.53 241.56 118.56 238.56 118.56"/><path class="cls-3" d="M250.43,118.52a10,10,0,1,0,3.83,19.28v-4.39a6.19,6.19,0,1,1,2.36-4.87v10h3.83v-10h0A10,10,0,0,0,250.43,118.52Z"/><path class="cls-2" d="M365.19,232.27a.51.51,0,0,1-.45-.27.5.5,0,0,1,.23-.67l.89-.45a.5.5,0,1,1,.45.89l-.9.45A.44.44,0,0,1,365.19,232.27Zm-2.68-.33a.46.46,0,0,1-.23-.06l-.89-.44a.5.5,0,0,1,.44-.9l.9.45a.49.49,0,0,1,.22.67A.48.48,0,0,1,362.51,231.94Zm6.26-1.45a.51.51,0,0,1-.45-.28.5.5,0,0,1,.22-.67l.9-.45a.5.5,0,1,1,.44.9l-.89.44A.46.46,0,0,1,368.77,230.49Zm-9.84-.34a.64.64,0,0,1-.23-.05l-.89-.45a.49.49,0,0,1-.22-.67.5.5,0,0,1,.67-.23l.89.45a.5.5,0,0,1-.22,1Zm13.42-1.45a.49.49,0,0,1-.45-.28.49.49,0,0,1,.22-.67l.9-.45a.5.5,0,1,1,.44.9l-.89.44A.46.46,0,0,1,372.35,228.7Zm-17-.34a.54.54,0,0,1-.22-.05l-.9-.45a.5.5,0,0,1-.22-.67.49.49,0,0,1,.67-.22l.89.44a.5.5,0,0,1-.22,1Zm20.57-1.45a.48.48,0,0,1-.44-.28.49.49,0,0,1,.22-.67l.89-.45a.5.5,0,0,1,.67.23.49.49,0,0,1-.22.67l-.89.44A.49.49,0,0,1,375.92,226.91Zm-24.15-.34a.59.59,0,0,1-.22,0l-.9-.45a.5.5,0,0,1-.22-.67.49.49,0,0,1,.67-.22l.9.44a.51.51,0,0,1,.22.67A.49.49,0,0,1,351.77,226.57Zm27.73-1.45a.5.5,0,0,1-.22-1l.89-.44a.5.5,0,1,1,.45.89l-.9.45A.54.54,0,0,1,379.5,225.12Zm-31.31-.34a.44.44,0,0,1-.22-.05l-.89-.45a.5.5,0,0,1-.23-.67.49.49,0,0,1,.67-.22l.9.44a.5.5,0,0,1-.23.95Zm34.89-1.45a.49.49,0,0,1-.45-.28.51.51,0,0,1,.22-.67l.9-.44a.49.49,0,0,1,.67.22.5.5,0,0,1-.22.67l-.9.45A.59.59,0,0,1,383.08,223.33ZM344.62,223a.48.48,0,0,1-.23-.05l-.89-.45a.49.49,0,0,1-.22-.67.5.5,0,0,1,.67-.22l.89.45a.5.5,0,0,1-.22.94Zm42-1.45a.5.5,0,0,1-.23-.95l.9-.44a.49.49,0,0,1,.67.22.5.5,0,0,1-.23.67l-.89.45A.59.59,0,0,1,386.66,221.54ZM341,221.2a.42.42,0,0,1-.22,0l-.9-.45a.49.49,0,0,1-.22-.67.5.5,0,0,1,.67-.22l.89.45a.5.5,0,0,1,.23.67A.51.51,0,0,1,341,221.2Zm49.19-1.45a.5.5,0,0,1-.22-.94l.89-.45a.5.5,0,0,1,.67.22.49.49,0,0,1-.22.67l-.89.45A.48.48,0,0,1,390.23,219.75Zm-52.77-.33a.46.46,0,0,1-.22-.06l-.9-.44a.52.52,0,0,1-.22-.68.5.5,0,0,1,.67-.22l.9.45a.5.5,0,0,1,.22.67A.51.51,0,0,1,337.46,219.42ZM393.81,218a.51.51,0,0,1-.45-.27.5.5,0,0,1,.23-.67l.09-.05v-.28a.51.51,0,0,1,.5-.5.5.5,0,0,1,.5.5v.59a.48.48,0,0,1-.27.44l-.38.19A.42.42,0,0,1,393.81,218Zm-59.63-.52a.5.5,0,0,1-.5-.5v-1a.5.5,0,0,1,.5-.5.5.5,0,0,1,.5.5v1A.5.5,0,0,1,334.18,217.44Zm60-3.25a.5.5,0,0,1-.5-.5v-1a.51.51,0,0,1,.5-.5.5.5,0,0,1,.5.5v1A.5.5,0,0,1,394.18,214.19Zm-60-.75a.5.5,0,0,1-.5-.5v-1a.5.5,0,0,1,.5-.5.5.5,0,0,1,.5.5v1A.5.5,0,0,1,334.18,213.44Zm60-3.25a.5.5,0,0,1-.5-.5v-1a.51.51,0,0,1,.5-.5.5.5,0,0,1,.5.5v1A.5.5,0,0,1,394.18,210.19Zm-60-.75a.5.5,0,0,1-.5-.5v-1a.5.5,0,0,1,.5-.5.5.5,0,0,1,.5.5v1A.5.5,0,0,1,334.18,209.44Zm60-3.25a.5.5,0,0,1-.5-.5v-1a.51.51,0,0,1,.5-.5.5.5,0,0,1,.5.5v1A.5.5,0,0,1,394.18,206.19Zm-60-.75a.5.5,0,0,1-.5-.5v-1a.5.5,0,0,1,.5-.5.5.5,0,0,1,.5.5v1A.5.5,0,0,1,334.18,205.44Zm60-3.25a.5.5,0,0,1-.5-.5v-1a.51.51,0,0,1,.5-.5.5.5,0,0,1,.5.5v1A.5.5,0,0,1,394.18,202.19Zm-60-.75a.5.5,0,0,1-.5-.5v-1a.5.5,0,0,1,.5-.5.5.5,0,0,1,.5.5v1A.5.5,0,0,1,334.18,201.44Zm60-3.25a.5.5,0,0,1-.5-.5v-1a.51.51,0,0,1,.5-.5.5.5,0,0,1,.5.5v1A.5.5,0,0,1,394.18,198.19Zm-60-.75a.5.5,0,0,1-.5-.5v-1a.5.5,0,0,1,.5-.5.5.5,0,0,1,.5.5v1A.5.5,0,0,1,334.18,197.44Zm60-3.25a.5.5,0,0,1-.5-.5v-1a.51.51,0,0,1,.5-.5.5.5,0,0,1,.5.5v1A.5.5,0,0,1,394.18,194.19Zm-60-.75a.5.5,0,0,1-.5-.5v-1a.5.5,0,0,1,.5-.5.5.5,0,0,1,.5.5v1A.5.5,0,0,1,334.18,193.44Zm60-3.25a.5.5,0,0,1-.5-.5v-1a.51.51,0,0,1,.5-.5.5.5,0,0,1,.5.5v1A.5.5,0,0,1,394.18,190.19Zm-60-.75a.5.5,0,0,1-.5-.5v-1a.5.5,0,0,1,.5-.5.5.5,0,0,1,.5.5v1A.5.5,0,0,1,334.18,189.44Zm60-3.25a.5.5,0,0,1-.5-.5v-1a.51.51,0,0,1,.5-.5.5.5,0,0,1,.5.5v1A.5.5,0,0,1,394.18,186.19Zm-60-.75a.5.5,0,0,1-.5-.5v-1a.5.5,0,0,1,.5-.5.5.5,0,0,1,.5.5v1A.5.5,0,0,1,334.18,185.44Zm60-3.25a.5.5,0,0,1-.5-.5v-1a.51.51,0,0,1,.5-.5.5.5,0,0,1,.5.5v1A.5.5,0,0,1,394.18,182.19Zm-60-.75a.5.5,0,0,1-.5-.5v-1s0-.05,0-.08a.51.51,0,0,1,.27-.53l.9-.45a.5.5,0,0,1,.44.9l-.62.31v.85A.5.5,0,0,1,334.18,181.44Zm58.14-2.09a.46.46,0,0,1-.22-.06l-.9-.44a.51.51,0,0,1-.22-.67.5.5,0,0,1,.67-.23l.9.45a.5.5,0,0,1,.22.67A.51.51,0,0,1,392.32,179.35Zm-54.56-.86a.5.5,0,0,1-.22-1l.89-.45a.5.5,0,0,1,.67.23.49.49,0,0,1-.22.67l-.89.45A.64.64,0,0,1,337.76,178.49Zm51-.93a.46.46,0,0,1-.22-.06l-.89-.44a.5.5,0,0,1,.44-.9l.9.45a.49.49,0,0,1,.22.67A.49.49,0,0,1,388.74,177.56Zm-47.4-.86a.5.5,0,0,1-.22-.95l.89-.45a.5.5,0,0,1,.67.23.49.49,0,0,1-.22.67l-.9.45A.54.54,0,0,1,341.34,176.7Zm43.83-.93a.64.64,0,0,1-.23-.05l-.89-.45a.49.49,0,0,1-.22-.67.5.5,0,0,1,.67-.23l.89.45a.49.49,0,0,1,.22.67A.48.48,0,0,1,385.17,175.77Zm-40.25-.86a.49.49,0,0,1-.45-.28.51.51,0,0,1,.22-.67l.9-.44a.49.49,0,0,1,.67.22.5.5,0,0,1-.22.67l-.9.45A.59.59,0,0,1,344.92,174.91Zm36.67-.93a.54.54,0,0,1-.22,0l-.9-.45a.49.49,0,0,1-.22-.67.5.5,0,0,1,.67-.23l.89.45a.5.5,0,0,1-.22.95Zm-33.09-.86a.5.5,0,0,1-.23-1l.9-.44a.49.49,0,0,1,.67.22.5.5,0,0,1-.23.67l-.89.45A.59.59,0,0,1,348.5,173.12Zm29.51-.93a.59.59,0,0,1-.22-.05l-.9-.45a.5.5,0,0,1-.22-.67.49.49,0,0,1,.67-.22l.9.44a.51.51,0,0,1,.22.67A.5.5,0,0,1,378,172.19Zm-25.94-.86a.5.5,0,0,1-.22-.94l.89-.45a.5.5,0,1,1,.45.89l-.89.45A.46.46,0,0,1,352.07,171.33Zm22.36-.93a.44.44,0,0,1-.22-.05l-.89-.45a.5.5,0,0,1-.23-.67.49.49,0,0,1,.67-.22l.9.44a.52.52,0,0,1,.22.68A.5.5,0,0,1,374.43,170.4Zm-18.78-.86a.51.51,0,0,1-.45-.27.5.5,0,0,1,.23-.67l.89-.45a.5.5,0,0,1,.67.22.49.49,0,0,1-.22.67l-.9.45A.42.42,0,0,1,355.65,169.54Zm15.21-.93a.46.46,0,0,1-.23-.05l-.89-.45a.5.5,0,0,1-.23-.67.51.51,0,0,1,.68-.22l.89.45a.5.5,0,0,1-.22.94Zm-11.63-.86a.51.51,0,0,1-.45-.27.5.5,0,0,1,.23-.67l.89-.45a.5.5,0,0,1,.67.22.52.52,0,0,1-.22.68l-.9.44A.44.44,0,0,1,359.23,167.75Zm8-.93a.48.48,0,0,1-.23,0l-.89-.45a.49.49,0,0,1-.22-.67.5.5,0,0,1,.67-.22l.89.45a.5.5,0,0,1,.23.67A.51.51,0,0,1,367.28,166.82Zm-4.47-.85a.51.51,0,0,1-.45-.28.5.5,0,0,1,.22-.67l.9-.45a.5.5,0,0,1,.44.9l-.89.44A.46.46,0,0,1,362.81,166Z"/><path class="cls-5" d="M45.58,231.85a.5.5,0,0,1-.23-.95l.9-.45a.5.5,0,0,1,.67.23.51.51,0,0,1-.22.67l-.9.44A.46.46,0,0,1,45.58,231.85Zm-2.69-.34a.59.59,0,0,1-.22,0l-.89-.45a.5.5,0,0,1-.23-.67.49.49,0,0,1,.67-.22l.9.44a.5.5,0,0,1-.23.95Zm6.27-1.45a.5.5,0,0,1-.23-.95l.9-.45a.5.5,0,1,1,.44.9l-.89.45A.59.59,0,0,1,49.16,230.06Zm-9.84-.34a.64.64,0,0,1-.23-.05l-.89-.45a.5.5,0,1,1,.45-.89l.89.44a.49.49,0,0,1,.22.67A.48.48,0,0,1,39.32,229.72Zm13.41-1.45a.48.48,0,0,1-.44-.28.49.49,0,0,1,.22-.67l.89-.45a.51.51,0,0,1,.68.23.5.5,0,0,1-.23.67l-.89.45A.59.59,0,0,1,52.73,228.27Zm-17-.34a.42.42,0,0,1-.22-.05l-.9-.45a.49.49,0,0,1-.22-.67.5.5,0,0,1,.67-.22L36,227a.5.5,0,0,1-.22,1Zm20.57-1.45a.5.5,0,0,1-.22-.95l.89-.44a.5.5,0,1,1,.45.89l-.89.45A.64.64,0,0,1,56.31,226.48Zm-24.15-.34a.44.44,0,0,1-.22,0l-.9-.45a.5.5,0,0,1-.22-.67.5.5,0,0,1,.67-.22l.9.45a.5.5,0,0,1,.22.67A.51.51,0,0,1,32.16,226.14Zm27.73-1.45a.5.5,0,0,1-.22-.95l.89-.44a.49.49,0,0,1,.67.22.5.5,0,0,1-.22.67l-.9.45A.44.44,0,0,1,59.89,224.69Zm-31.31-.34a.44.44,0,0,1-.22,0l-.89-.45a.5.5,0,1,1,.44-.89l.9.45a.5.5,0,0,1-.23.94Zm34.89-1.45a.5.5,0,0,1-.23-.94l.9-.45a.5.5,0,1,1,.44.89l-.89.45A.44.44,0,0,1,63.47,222.9ZM25,222.57a.46.46,0,0,1-.23-.06l-.89-.44a.51.51,0,0,1-.23-.68.52.52,0,0,1,.68-.22l.89.45a.49.49,0,0,1,.22.67A.5.5,0,0,1,25,222.57Zm42-1.46a.5.5,0,0,1-.44-.27.49.49,0,0,1,.22-.67l.9-.45a.5.5,0,1,1,.44.89l-.89.45A.46.46,0,0,1,67,221.11Zm-45.61-.33a.43.43,0,0,1-.22-.06l-.9-.44a.49.49,0,0,1-.22-.67.5.5,0,0,1,.67-.23l.89.45a.5.5,0,0,1-.22.95Zm49.19-1.46a.51.51,0,0,1-.45-.27.5.5,0,0,1,.23-.67l.89-.45a.5.5,0,0,1,.67.22.49.49,0,0,1-.22.67l-.89.45A.48.48,0,0,1,70.62,219.32ZM17.85,219a.59.59,0,0,1-.22-.05l-.9-.45a.51.51,0,0,1-.22-.67.5.5,0,0,1,.67-.23l.89.45a.5.5,0,0,1-.22,1Zm56.35-1.45a.52.52,0,0,1-.45-.28.5.5,0,0,1,.23-.67l.09-.05v-.27a.5.5,0,0,1,.5-.5.5.5,0,0,1,.5.5v.58a.5.5,0,0,1-.27.45l-.38.18A.46.46,0,0,1,74.2,217.54ZM14.57,217a.5.5,0,0,1-.5-.5v-1a.51.51,0,0,1,.5-.5.5.5,0,0,1,.5.5v1A.5.5,0,0,1,14.57,217Zm60-3.24a.51.51,0,0,1-.5-.5v-1a.5.5,0,0,1,.5-.5.5.5,0,0,1,.5.5v1A.5.5,0,0,1,74.57,213.77Zm-60-.76a.5.5,0,0,1-.5-.5v-1a.51.51,0,0,1,.5-.5.5.5,0,0,1,.5.5v1A.5.5,0,0,1,14.57,213Zm60-3.24a.51.51,0,0,1-.5-.5v-1a.5.5,0,0,1,.5-.5.5.5,0,0,1,.5.5v1A.5.5,0,0,1,74.57,209.77Zm-60-.76a.5.5,0,0,1-.5-.5v-1a.51.51,0,0,1,.5-.5.5.5,0,0,1,.5.5v1A.5.5,0,0,1,14.57,209Zm60-3.24a.51.51,0,0,1-.5-.5v-1a.5.5,0,0,1,.5-.5.5.5,0,0,1,.5.5v1A.5.5,0,0,1,74.57,205.77Zm-60-.76a.5.5,0,0,1-.5-.5v-1a.51.51,0,0,1,.5-.5.5.5,0,0,1,.5.5v1A.5.5,0,0,1,14.57,205Zm60-3.24a.51.51,0,0,1-.5-.5v-1a.5.5,0,0,1,.5-.5.5.5,0,0,1,.5.5v1A.5.5,0,0,1,74.57,201.77Zm-60-.76a.5.5,0,0,1-.5-.5v-1a.51.51,0,0,1,.5-.5.5.5,0,0,1,.5.5v1A.5.5,0,0,1,14.57,201Zm60-3.24a.51.51,0,0,1-.5-.5v-1a.5.5,0,0,1,.5-.5.5.5,0,0,1,.5.5v1A.5.5,0,0,1,74.57,197.77Zm-60-.76a.5.5,0,0,1-.5-.5v-1a.51.51,0,0,1,.5-.5.5.5,0,0,1,.5.5v1A.5.5,0,0,1,14.57,197Zm60-3.24a.51.51,0,0,1-.5-.5v-1a.5.5,0,0,1,.5-.5.5.5,0,0,1,.5.5v1A.5.5,0,0,1,74.57,193.77Zm-60-.76a.5.5,0,0,1-.5-.5v-1a.51.51,0,0,1,.5-.5.5.5,0,0,1,.5.5v1A.5.5,0,0,1,14.57,193Zm60-3.24a.51.51,0,0,1-.5-.5v-1a.5.5,0,0,1,.5-.5.5.5,0,0,1,.5.5v1A.5.5,0,0,1,74.57,189.77Zm-60-.76a.5.5,0,0,1-.5-.5v-1a.51.51,0,0,1,.5-.5.5.5,0,0,1,.5.5v1A.5.5,0,0,1,14.57,189Zm60-3.24a.51.51,0,0,1-.5-.5v-1a.5.5,0,0,1,.5-.5.5.5,0,0,1,.5.5v1A.5.5,0,0,1,74.57,185.77Zm-60-.76a.5.5,0,0,1-.5-.5v-1a.51.51,0,0,1,.5-.5.5.5,0,0,1,.5.5v1A.5.5,0,0,1,14.57,185Zm60-3.24a.51.51,0,0,1-.5-.5v-1a.5.5,0,0,1,.5-.5.5.5,0,0,1,.5.5v1A.5.5,0,0,1,74.57,181.77Zm-60-.76a.5.5,0,0,1-.5-.5v-1s0,0,0-.08a.51.51,0,0,1,.27-.53l.89-.45a.51.51,0,0,1,.68.23.5.5,0,0,1-.23.67l-.62.31v.85A.5.5,0,0,1,14.57,181Zm58.14-2.09a.59.59,0,0,1-.22,0l-.9-.45a.51.51,0,0,1-.22-.67.5.5,0,0,1,.67-.23l.9.45a.5.5,0,0,1-.23.95Zm-54.56-.86a.5.5,0,0,1-.22-.95l.89-.44a.5.5,0,0,1,.45.89l-.89.45A.64.64,0,0,1,18.15,178.06Zm51-.93a.59.59,0,0,1-.22,0l-.89-.45a.5.5,0,0,1-.23-.67.51.51,0,0,1,.67-.23l.9.45a.51.51,0,0,1,.22.67A.49.49,0,0,1,69.13,177.13Zm-47.4-.86a.5.5,0,0,1-.22-1l.89-.44a.49.49,0,0,1,.67.22.5.5,0,0,1-.22.67l-.9.45A.59.59,0,0,1,21.73,176.27Zm43.83-.93a.59.59,0,0,1-.23-.05l-.89-.45a.5.5,0,1,1,.45-.89l.89.44a.49.49,0,0,1,.22.67A.48.48,0,0,1,65.56,175.34Zm-40.25-.86a.5.5,0,0,1-.23-.94l.9-.45a.5.5,0,1,1,.44.89l-.89.45A.44.44,0,0,1,25.31,174.48ZM62,173.55a.64.64,0,0,1-.23-.05l-.89-.45a.5.5,0,1,1,.45-.89l.89.44a.5.5,0,0,1-.22,1Zm-33.09-.86a.5.5,0,0,1-.45-.27.49.49,0,0,1,.22-.67l.9-.45a.5.5,0,1,1,.44.89l-.89.45A.44.44,0,0,1,28.89,172.69Zm29.51-.93a.44.44,0,0,1-.22,0l-.9-.45a.5.5,0,0,1-.22-.67.5.5,0,0,1,.67-.22l.89.44a.5.5,0,0,1-.22.95Zm-25.94-.86a.5.5,0,0,1-.22-.94l.89-.45a.5.5,0,0,1,.67.22.49.49,0,0,1-.22.67l-.89.45A.48.48,0,0,1,32.46,170.9ZM54.82,170a.44.44,0,0,1-.22-.05l-.89-.45a.5.5,0,0,1-.23-.67.51.51,0,0,1,.67-.22l.9.45a.5.5,0,0,1-.23.94ZM36,169.12a.52.52,0,0,1-.45-.28.5.5,0,0,1,.23-.67l.89-.45a.5.5,0,0,1,.45.9l-.9.44A.43.43,0,0,1,36,169.12Zm15.2-.93a.46.46,0,0,1-.22-.06l-.89-.44a.5.5,0,1,1,.44-.9l.9.45a.49.49,0,0,1,.22.67A.51.51,0,0,1,51.24,168.19Zm-11.62-.86a.49.49,0,0,1-.45-.28.5.5,0,0,1,.22-.67l.9-.45a.5.5,0,0,1,.67.23.51.51,0,0,1-.22.67l-.9.44A.46.46,0,0,1,39.62,167.33Zm8.05-.93a.49.49,0,0,1-.23-.06l-.89-.44a.49.49,0,0,1-.22-.67A.5.5,0,0,1,47,165l.89.45a.49.49,0,0,1,.22.67A.5.5,0,0,1,47.67,166.4Zm-4.47-.86a.5.5,0,0,1-.23-.95l.9-.45a.5.5,0,0,1,.44.9l-.89.45A.59.59,0,0,1,43.2,165.54Z"/><path class="cls-2" d="M205.19,232.27a.51.51,0,0,1-.45-.27.5.5,0,0,1,.23-.67l.89-.45a.5.5,0,0,1,.45.89l-.9.45A.44.44,0,0,1,205.19,232.27Zm-2.68-.33a.46.46,0,0,1-.23-.06l-.89-.44a.5.5,0,1,1,.44-.9l.9.45a.49.49,0,0,1,.22.67A.48.48,0,0,1,202.51,231.94Zm6.26-1.45a.51.51,0,0,1-.45-.28.5.5,0,0,1,.22-.67l.9-.45a.51.51,0,0,1,.67.22.51.51,0,0,1-.23.68l-.89.44A.46.46,0,0,1,208.77,230.49Zm-9.84-.34a.64.64,0,0,1-.23-.05l-.89-.45a.49.49,0,0,1-.22-.67.5.5,0,0,1,.67-.23l.89.45a.5.5,0,0,1-.22,1Zm13.42-1.45a.49.49,0,0,1-.45-.28.49.49,0,0,1,.22-.67l.9-.45a.5.5,0,0,1,.44.9l-.89.44A.46.46,0,0,1,212.35,228.7Zm-17-.34a.54.54,0,0,1-.22-.05l-.9-.45a.5.5,0,0,1-.22-.67.49.49,0,0,1,.67-.22l.89.44a.5.5,0,0,1-.22,1Zm20.57-1.45a.48.48,0,0,1-.44-.28.49.49,0,0,1,.22-.67l.89-.45a.5.5,0,0,1,.67.23.49.49,0,0,1-.22.67l-.89.44A.49.49,0,0,1,215.92,226.91Zm-24.15-.34a.59.59,0,0,1-.22,0l-.9-.45a.5.5,0,0,1-.22-.67.49.49,0,0,1,.67-.22l.9.44a.51.51,0,0,1,.22.67A.49.49,0,0,1,191.77,226.57Zm27.73-1.45a.5.5,0,0,1-.22-1l.89-.44a.5.5,0,0,1,.45.89l-.9.45A.54.54,0,0,1,219.5,225.12Zm-31.31-.34a.44.44,0,0,1-.22-.05l-.89-.45a.5.5,0,0,1-.23-.67.49.49,0,0,1,.67-.22l.9.44a.5.5,0,0,1-.23.95Zm34.89-1.45a.49.49,0,0,1-.45-.28.51.51,0,0,1,.22-.67l.9-.44a.49.49,0,0,1,.67.22.5.5,0,0,1-.22.67l-.9.45A.59.59,0,0,1,223.08,223.33ZM184.62,223a.48.48,0,0,1-.23-.05l-.89-.45a.49.49,0,0,1-.22-.67.5.5,0,0,1,.67-.22l.89.45a.5.5,0,0,1-.22.94Zm42-1.45a.5.5,0,0,1-.23-.95l.9-.44a.49.49,0,0,1,.67.22.5.5,0,0,1-.23.67l-.89.45A.59.59,0,0,1,226.66,221.54ZM181,221.2a.42.42,0,0,1-.22,0l-.9-.45a.49.49,0,0,1-.22-.67.5.5,0,0,1,.67-.22l.89.45a.5.5,0,0,1,.23.67A.51.51,0,0,1,181,221.2Zm49.19-1.45a.5.5,0,0,1-.22-.94l.89-.45a.5.5,0,0,1,.67.22.49.49,0,0,1-.22.67l-.89.45A.48.48,0,0,1,230.23,219.75Zm-52.77-.33a.46.46,0,0,1-.22-.06l-.9-.44a.52.52,0,0,1-.22-.68.5.5,0,0,1,.67-.22l.9.45a.5.5,0,0,1,.22.67A.51.51,0,0,1,177.46,219.42ZM233.81,218a.51.51,0,0,1-.45-.27.5.5,0,0,1,.23-.67l.09-.05v-.28a.51.51,0,0,1,.5-.5.5.5,0,0,1,.5.5v.59a.48.48,0,0,1-.27.44l-.38.19A.42.42,0,0,1,233.81,218Zm-59.63-.52a.5.5,0,0,1-.5-.5v-1a.5.5,0,0,1,.5-.5.5.5,0,0,1,.5.5v1A.5.5,0,0,1,174.18,217.44Zm60-3.25a.5.5,0,0,1-.5-.5v-1a.51.51,0,0,1,.5-.5.5.5,0,0,1,.5.5v1A.5.5,0,0,1,234.18,214.19Zm-60-.75a.5.5,0,0,1-.5-.5v-1a.5.5,0,0,1,.5-.5.5.5,0,0,1,.5.5v1A.5.5,0,0,1,174.18,213.44Zm60-3.25a.5.5,0,0,1-.5-.5v-1a.51.51,0,0,1,.5-.5.5.5,0,0,1,.5.5v1A.5.5,0,0,1,234.18,210.19Zm-60-.75a.5.5,0,0,1-.5-.5v-1a.5.5,0,0,1,.5-.5.5.5,0,0,1,.5.5v1A.5.5,0,0,1,174.18,209.44Zm60-3.25a.5.5,0,0,1-.5-.5v-1a.51.51,0,0,1,.5-.5.5.5,0,0,1,.5.5v1A.5.5,0,0,1,234.18,206.19Zm-60-.75a.5.5,0,0,1-.5-.5v-1a.5.5,0,0,1,.5-.5.5.5,0,0,1,.5.5v1A.5.5,0,0,1,174.18,205.44Zm60-3.25a.5.5,0,0,1-.5-.5v-1a.51.51,0,0,1,.5-.5.5.5,0,0,1,.5.5v1A.5.5,0,0,1,234.18,202.19Zm-60-.75a.5.5,0,0,1-.5-.5v-1a.5.5,0,0,1,.5-.5.5.5,0,0,1,.5.5v1A.5.5,0,0,1,174.18,201.44Zm60-3.25a.5.5,0,0,1-.5-.5v-1a.51.51,0,0,1,.5-.5.5.5,0,0,1,.5.5v1A.5.5,0,0,1,234.18,198.19Zm-60-.75a.5.5,0,0,1-.5-.5v-1a.5.5,0,0,1,.5-.5.5.5,0,0,1,.5.5v1A.5.5,0,0,1,174.18,197.44Zm60-3.25a.5.5,0,0,1-.5-.5v-1a.51.51,0,0,1,.5-.5.5.5,0,0,1,.5.5v1A.5.5,0,0,1,234.18,194.19Zm-60-.75a.5.5,0,0,1-.5-.5v-1a.5.5,0,0,1,.5-.5.5.5,0,0,1,.5.5v1A.5.5,0,0,1,174.18,193.44Zm60-3.25a.5.5,0,0,1-.5-.5v-1a.51.51,0,0,1,.5-.5.5.5,0,0,1,.5.5v1A.5.5,0,0,1,234.18,190.19Zm-60-.75a.5.5,0,0,1-.5-.5v-1a.5.5,0,0,1,.5-.5.5.5,0,0,1,.5.5v1A.5.5,0,0,1,174.18,189.44Zm60-3.25a.5.5,0,0,1-.5-.5v-1a.51.51,0,0,1,.5-.5.5.5,0,0,1,.5.5v1A.5.5,0,0,1,234.18,186.19Zm-60-.75a.5.5,0,0,1-.5-.5v-1a.5.5,0,0,1,.5-.5.5.5,0,0,1,.5.5v1A.5.5,0,0,1,174.18,185.44Zm60-3.25a.5.5,0,0,1-.5-.5v-1a.51.51,0,0,1,.5-.5.5.5,0,0,1,.5.5v1A.5.5,0,0,1,234.18,182.19Zm-60-.75a.5.5,0,0,1-.5-.5v-1s0-.05,0-.08a.51.51,0,0,1,.27-.53l.9-.45a.5.5,0,1,1,.44.9l-.62.31v.85A.5.5,0,0,1,174.18,181.44Zm58.14-2.09a.46.46,0,0,1-.22-.06l-.9-.44a.51.51,0,0,1-.22-.67.5.5,0,0,1,.67-.23l.9.45a.5.5,0,0,1,.22.67A.51.51,0,0,1,232.32,179.35Zm-54.56-.86a.5.5,0,0,1-.22-1l.89-.45a.5.5,0,0,1,.67.23.49.49,0,0,1-.22.67l-.89.45A.64.64,0,0,1,177.76,178.49Zm51-.93a.46.46,0,0,1-.22-.06l-.89-.44a.5.5,0,0,1,.44-.9l.9.45a.49.49,0,0,1,.22.67A.49.49,0,0,1,228.74,177.56Zm-47.4-.86a.5.5,0,0,1-.22-.95l.89-.45a.5.5,0,0,1,.67.23.49.49,0,0,1-.22.67l-.9.45A.54.54,0,0,1,181.34,176.7Zm43.83-.93a.64.64,0,0,1-.23-.05l-.89-.45a.49.49,0,0,1-.22-.67.5.5,0,0,1,.67-.23l.89.45a.49.49,0,0,1,.22.67A.48.48,0,0,1,225.17,175.77Zm-40.25-.86a.49.49,0,0,1-.45-.28.51.51,0,0,1,.22-.67l.9-.44a.49.49,0,0,1,.67.22.5.5,0,0,1-.22.67l-.9.45A.59.59,0,0,1,184.92,174.91Zm36.67-.93a.54.54,0,0,1-.22,0l-.9-.45a.49.49,0,0,1-.22-.67.5.5,0,0,1,.67-.23l.89.45a.5.5,0,0,1-.22.95Zm-33.09-.86a.5.5,0,0,1-.23-1l.9-.44a.49.49,0,0,1,.67.22.5.5,0,0,1-.23.67l-.89.45A.59.59,0,0,1,188.5,173.12Zm29.51-.93a.59.59,0,0,1-.22-.05l-.9-.45a.5.5,0,0,1-.22-.67.49.49,0,0,1,.67-.22l.9.44a.51.51,0,0,1,.22.67A.5.5,0,0,1,218,172.19Zm-25.94-.86a.5.5,0,0,1-.22-.94l.89-.45a.5.5,0,1,1,.45.89l-.89.45A.46.46,0,0,1,192.07,171.33Zm22.36-.93a.44.44,0,0,1-.22-.05l-.89-.45a.5.5,0,0,1-.23-.67.49.49,0,0,1,.67-.22l.9.44a.52.52,0,0,1,.22.68A.5.5,0,0,1,214.43,170.4Zm-18.78-.86a.51.51,0,0,1-.45-.27.5.5,0,0,1,.23-.67l.89-.45a.5.5,0,0,1,.67.22.49.49,0,0,1-.22.67l-.9.45A.42.42,0,0,1,195.65,169.54Zm15.21-.93a.46.46,0,0,1-.23-.05l-.89-.45a.5.5,0,0,1-.23-.67.51.51,0,0,1,.68-.22l.89.45a.5.5,0,0,1-.22.94Zm-11.63-.86a.51.51,0,0,1-.45-.27.5.5,0,0,1,.23-.67l.89-.45a.5.5,0,0,1,.67.22.52.52,0,0,1-.22.68l-.9.44A.44.44,0,0,1,199.23,167.75Zm8.05-.93a.48.48,0,0,1-.23,0l-.89-.45a.49.49,0,0,1-.22-.67.5.5,0,0,1,.67-.22l.89.45a.5.5,0,0,1,.23.67A.51.51,0,0,1,207.28,166.82Zm-4.47-.85a.51.51,0,0,1-.45-.28.5.5,0,0,1,.22-.67l.9-.45a.5.5,0,0,1,.44.9l-.89.44A.46.46,0,0,1,202.81,166Z"/><path class="cls-5" d="M85.27,162.31a.5.5,0,0,1-.23-.94l.9-.45a.5.5,0,0,1,.67.22.5.5,0,0,1-.22.67l-.9.45A.44.44,0,0,1,85.27,162.31ZM82.58,162a.46.46,0,0,1-.22-.06l-.89-.44a.5.5,0,0,1,.44-.9l.9.45a.5.5,0,0,1,.22.67A.51.51,0,0,1,82.58,162Zm6.27-1.46a.5.5,0,0,1-.45-.27.49.49,0,0,1,.22-.67l.9-.45A.5.5,0,1,1,90,160l-.89.45A.44.44,0,0,1,88.85,160.52ZM79,160.19a.46.46,0,0,1-.23-.06l-.89-.44a.49.49,0,0,1-.22-.67.5.5,0,0,1,.67-.23l.89.45a.49.49,0,0,1,.22.67A.48.48,0,0,1,79,160.19Zm13.41-1.46a.5.5,0,0,1-.22-.94l.89-.45a.5.5,0,0,1,.67.22.49.49,0,0,1-.22.67l-.89.45A.48.48,0,0,1,92.42,158.73Zm-17-.33a.54.54,0,0,1-.22-.05l-.9-.45a.49.49,0,0,1-.22-.67.5.5,0,0,1,.67-.23l.89.45a.5.5,0,0,1-.22,1ZM96,157a.52.52,0,0,1-.45-.28.5.5,0,0,1,.23-.67l.89-.45a.5.5,0,0,1,.45.9l-.9.44A.43.43,0,0,1,96,157Zm-24.15-.34a.59.59,0,0,1-.22-.05l-.9-.45a.51.51,0,0,1-.22-.67.5.5,0,0,1,.67-.23l.89.45a.5.5,0,0,1-.22,1Zm27.73-1.45a.5.5,0,0,1-.23-.95l.9-.45a.5.5,0,0,1,.67.23.51.51,0,0,1-.22.67l-.9.44A.46.46,0,0,1,99.58,155.16Zm-31.31-.34a.59.59,0,0,1-.22,0l-.89-.45a.5.5,0,0,1-.23-.67.49.49,0,0,1,.67-.22l.9.44a.51.51,0,0,1,.22.67A.49.49,0,0,1,68.27,154.82Zm34.89-1.45a.49.49,0,0,1-.45-.28.51.51,0,0,1,.22-.67l.9-.45a.5.5,0,1,1,.44.9l-.89.45A.59.59,0,0,1,103.16,153.37ZM64.7,153a.46.46,0,0,1-.23-.05l-.89-.45a.5.5,0,0,1-.23-.67.49.49,0,0,1,.67-.22l.9.44a.5.5,0,0,1,.22.68A.49.49,0,0,1,64.7,153Zm42-1.45a.48.48,0,0,1-.44-.28.49.49,0,0,1,.22-.67l.89-.44a.5.5,0,1,1,.45.89l-.89.45A.59.59,0,0,1,106.73,151.58Zm-45.61-.34a.48.48,0,0,1-.23-.05l-.89-.45a.49.49,0,0,1-.22-.67.5.5,0,0,1,.67-.22l.89.45a.5.5,0,0,1,.23.67A.51.51,0,0,1,61.12,151.24Zm49.19-1.45a.5.5,0,0,1-.22-.95l.89-.44a.5.5,0,1,1,.45.89l-.89.45A.64.64,0,0,1,110.31,149.79Zm-52.77-.34a.42.42,0,0,1-.22,0l-.9-.45a.5.5,0,0,1,.45-.89l.89.45a.5.5,0,0,1,.23.67A.51.51,0,0,1,57.54,149.45ZM113.89,148a.5.5,0,0,1-.22-.95l.09,0v-.28a.51.51,0,0,1,.5-.5.5.5,0,0,1,.5.5v.58a.49.49,0,0,1-.27.45l-.38.19A.59.59,0,0,1,113.89,148Zm-59.63-.52a.5.5,0,0,1-.5-.5v-1a.5.5,0,0,1,.5-.5.5.5,0,0,1,.5.5v1A.5.5,0,0,1,54.26,147.48Zm60-3.25a.5.5,0,0,1-.5-.5v-1a.51.51,0,0,1,.5-.5.5.5,0,0,1,.5.5v1A.5.5,0,0,1,114.26,144.23Zm-60-.75a.5.5,0,0,1-.5-.5v-1a.5.5,0,0,1,.5-.5.5.5,0,0,1,.5.5v1A.5.5,0,0,1,54.26,143.48Zm60-3.25a.5.5,0,0,1-.5-.5v-1a.51.51,0,0,1,.5-.5.5.5,0,0,1,.5.5v1A.5.5,0,0,1,114.26,140.23Zm-60-.75a.5.5,0,0,1-.5-.5v-1a.5.5,0,0,1,.5-.5.5.5,0,0,1,.5.5v1A.5.5,0,0,1,54.26,139.48Zm60-3.25a.5.5,0,0,1-.5-.5v-1a.51.51,0,0,1,.5-.5.5.5,0,0,1,.5.5v1A.5.5,0,0,1,114.26,136.23Zm-60-.75a.5.5,0,0,1-.5-.5v-1a.5.5,0,0,1,.5-.5.5.5,0,0,1,.5.5v1A.5.5,0,0,1,54.26,135.48Zm60-3.25a.5.5,0,0,1-.5-.5v-1a.51.51,0,0,1,.5-.5.5.5,0,0,1,.5.5v1A.5.5,0,0,1,114.26,132.23Zm-60-.75a.5.5,0,0,1-.5-.5v-1a.5.5,0,0,1,.5-.5.5.5,0,0,1,.5.5v1A.5.5,0,0,1,54.26,131.48Zm60-3.25a.5.5,0,0,1-.5-.5v-1a.51.51,0,0,1,.5-.5.5.5,0,0,1,.5.5v1A.5.5,0,0,1,114.26,128.23Zm-60-.75a.5.5,0,0,1-.5-.5v-1a.5.5,0,0,1,.5-.5.5.5,0,0,1,.5.5v1A.5.5,0,0,1,54.26,127.48Zm60-3.25a.5.5,0,0,1-.5-.5v-1a.51.51,0,0,1,.5-.5.5.5,0,0,1,.5.5v1A.5.5,0,0,1,114.26,124.23Zm-60-.75a.5.5,0,0,1-.5-.5v-1a.5.5,0,0,1,.5-.5.5.5,0,0,1,.5.5v1A.5.5,0,0,1,54.26,123.48Zm60-3.25a.5.5,0,0,1-.5-.5v-1a.51.51,0,0,1,.5-.5.5.5,0,0,1,.5.5v1A.5.5,0,0,1,114.26,120.23Zm-60-.75a.5.5,0,0,1-.5-.5v-1a.5.5,0,0,1,.5-.5.5.5,0,0,1,.5.5v1A.5.5,0,0,1,54.26,119.48Zm60-3.25a.5.5,0,0,1-.5-.5v-1a.51.51,0,0,1,.5-.5.5.5,0,0,1,.5.5v1A.5.5,0,0,1,114.26,116.23Zm-60-.75a.5.5,0,0,1-.5-.5v-1a.5.5,0,0,1,.5-.5.5.5,0,0,1,.5.5v1A.5.5,0,0,1,54.26,115.48Zm60-3.25a.5.5,0,0,1-.5-.5v-1a.51.51,0,0,1,.5-.5.5.5,0,0,1,.5.5v1A.5.5,0,0,1,114.26,112.23Zm-60-.75a.5.5,0,0,1-.5-.5v-1s0-.06,0-.08a.5.5,0,0,1,.27-.53l.89-.45a.5.5,0,0,1,.67.22.49.49,0,0,1-.22.67l-.62.31V111A.5.5,0,0,1,54.26,111.48Zm58.14-2.1a.44.44,0,0,1-.22,0l-.9-.45a.5.5,0,0,1,.45-.89l.89.45a.5.5,0,0,1,.23.67A.51.51,0,0,1,112.4,109.38Zm-54.56-.85a.52.52,0,0,1-.45-.28.5.5,0,0,1,.23-.67l.89-.45a.5.5,0,0,1,.67.23A.49.49,0,0,1,59,108l-.9.44A.43.43,0,0,1,57.84,108.53Zm51-.93a.46.46,0,0,1-.22-.06l-.89-.44a.51.51,0,0,1-.23-.68.51.51,0,0,1,.67-.22l.9.45a.5.5,0,0,1,.22.67A.51.51,0,0,1,108.82,107.6Zm-47.4-.86a.5.5,0,0,1-.23-.95l.9-.45a.5.5,0,0,1,.67.23.51.51,0,0,1-.22.67l-.9.44A.46.46,0,0,1,61.42,106.74Zm43.83-.93a.46.46,0,0,1-.23-.06l-.89-.44a.5.5,0,0,1,.44-.9l.9.45a.5.5,0,0,1-.22,1ZM65,105a.49.49,0,0,1-.45-.28.5.5,0,0,1,.22-.67l.9-.45a.5.5,0,1,1,.44.9l-.89.45A.59.59,0,0,1,65,105Zm36.67-.93a.49.49,0,0,1-.23-.06l-.89-.44a.49.49,0,0,1-.22-.67.5.5,0,0,1,.67-.23l.89.45a.5.5,0,0,1-.22,1Zm-33.1-.86a.48.48,0,0,1-.44-.28.49.49,0,0,1,.22-.67l.89-.44a.5.5,0,1,1,.45.89l-.89.45A.59.59,0,0,1,68.57,103.16Zm29.52-.93a.54.54,0,0,1-.22,0l-.9-.45a.51.51,0,0,1-.22-.67.5.5,0,0,1,.67-.23l.89.45a.5.5,0,0,1-.22,1Zm-25.94-.86a.5.5,0,0,1-.22-1l.89-.44a.5.5,0,1,1,.45.89l-.89.45A.64.64,0,0,1,72.15,101.37Zm22.36-.93a.59.59,0,0,1-.22,0l-.9-.45a.5.5,0,0,1,.45-.9l.9.45a.51.51,0,0,1,.22.67A.49.49,0,0,1,94.51,100.44Zm-18.78-.86a.5.5,0,0,1-.22-1l.89-.44a.49.49,0,0,1,.67.22.5.5,0,0,1-.22.67l-.9.45A.54.54,0,0,1,75.73,99.58Zm15.2-.93a.59.59,0,0,1-.22-.05l-.89-.45a.5.5,0,0,1-.23-.67.49.49,0,0,1,.67-.22l.9.44a.5.5,0,0,1-.23,1Zm-11.62-.86a.5.5,0,0,1-.23-.94l.9-.45a.5.5,0,0,1,.67.22.5.5,0,0,1-.22.67l-.9.45A.44.44,0,0,1,79.31,97.79Zm8-.93a.64.64,0,0,1-.23,0l-.89-.45a.5.5,0,0,1,.45-.89l.89.44a.5.5,0,0,1,.22.68A.49.49,0,0,1,87.36,96.86ZM82.89,96a.5.5,0,0,1-.23-.94l.9-.45a.51.51,0,0,1,.67.22.5.5,0,0,1-.23.67l-.89.45A.44.44,0,0,1,82.89,96Z"/><path class="cls-5" d="M485.11,161.85a.5.5,0,0,1-.22-.95l.89-.45a.5.5,0,0,1,.67.23.49.49,0,0,1-.22.67l-.9.44A.43.43,0,0,1,485.11,161.85Zm-2.68-.34a.54.54,0,0,1-.22,0l-.9-.45a.5.5,0,1,1,.45-.89l.89.44a.5.5,0,0,1-.22.95Zm6.26-1.45a.5.5,0,0,1-.22-.95l.89-.45a.5.5,0,0,1,.67.23.51.51,0,0,1-.22.67l-.9.45A.59.59,0,0,1,488.69,160.06Zm-9.84-.34a.54.54,0,0,1-.22-.05l-.9-.45a.5.5,0,0,1-.22-.67.49.49,0,0,1,.67-.22l.89.44a.5.5,0,0,1-.22.95Zm13.42-1.45a.49.49,0,0,1-.45-.28.51.51,0,0,1,.22-.67l.9-.45a.5.5,0,1,1,.44.9l-.89.45A.59.59,0,0,1,492.27,158.27Zm-17-.34a.44.44,0,0,1-.22-.05l-.9-.45a.5.5,0,0,1-.22-.67.5.5,0,0,1,.67-.22l.9.44a.52.52,0,0,1,.22.68A.5.5,0,0,1,475.27,157.93Zm20.58-1.45a.5.5,0,0,1-.23-.95l.9-.44a.49.49,0,0,1,.67.22.5.5,0,0,1-.23.67l-.89.45A.59.59,0,0,1,495.85,156.48Zm-24.16-.34a.44.44,0,0,1-.22,0l-.89-.45a.5.5,0,1,1,.44-.89l.9.45a.49.49,0,0,1,.22.67A.5.5,0,0,1,471.69,156.14Zm27.73-1.45a.49.49,0,0,1-.44-.27.5.5,0,0,1,.22-.68l.89-.44a.5.5,0,0,1,.45.89l-.89.45A.48.48,0,0,1,499.42,154.69Zm-31.3-.34a.48.48,0,0,1-.23,0l-.89-.45a.49.49,0,0,1-.22-.67.5.5,0,0,1,.67-.22l.89.45a.5.5,0,0,1-.22.94ZM503,152.9a.51.51,0,0,1-.45-.27.5.5,0,0,1,.23-.67l.89-.45a.5.5,0,0,1,.67.22.49.49,0,0,1-.22.67l-.9.45A.42.42,0,0,1,503,152.9Zm-38.46-.33a.43.43,0,0,1-.22-.06l-.9-.44a.5.5,0,0,1,.45-.9l.89.45a.5.5,0,0,1,.23.67A.52.52,0,0,1,464.54,152.57Zm42-1.46a.5.5,0,0,1-.23-.94l.9-.45a.5.5,0,0,1,.45.89l-.9.45A.44.44,0,0,1,506.58,151.11ZM461,150.78a.46.46,0,0,1-.22-.06l-.9-.44a.51.51,0,0,1-.22-.67.5.5,0,0,1,.67-.23l.9.45a.5.5,0,0,1,.22.67A.49.49,0,0,1,461,150.78Zm49.2-1.46a.5.5,0,0,1-.45-.27.49.49,0,0,1,.22-.67l.9-.45a.51.51,0,0,1,.67.22.5.5,0,0,1-.23.67l-.89.45A.44.44,0,0,1,510.16,149.32ZM457.38,149a.59.59,0,0,1-.22-.05l-.89-.45a.5.5,0,0,1,.44-.9l.9.45a.5.5,0,0,1-.23,1Zm56.35-1.45a.5.5,0,0,1-.44-.28.49.49,0,0,1,.22-.67l.1-.05v-.27a.5.5,0,0,1,.5-.5.5.5,0,0,1,.5.5v.58a.51.51,0,0,1-.28.45l-.37.18A.49.49,0,0,1,513.73,147.54ZM454.11,147a.5.5,0,0,1-.5-.5v-1a.5.5,0,0,1,.5-.5.51.51,0,0,1,.5.5v1A.5.5,0,0,1,454.11,147Zm60-3.24a.5.5,0,0,1-.5-.5v-1a.5.5,0,0,1,.5-.5.5.5,0,0,1,.5.5v1A.51.51,0,0,1,514.11,143.77Zm-60-.76a.5.5,0,0,1-.5-.5v-1a.5.5,0,0,1,.5-.5.51.51,0,0,1,.5.5v1A.5.5,0,0,1,454.11,143Zm60-3.24a.5.5,0,0,1-.5-.5v-1a.5.5,0,0,1,.5-.5.5.5,0,0,1,.5.5v1A.51.51,0,0,1,514.11,139.77Zm-60-.76a.5.5,0,0,1-.5-.5v-1a.5.5,0,0,1,.5-.5.51.51,0,0,1,.5.5v1A.5.5,0,0,1,454.11,139Zm60-3.24a.5.5,0,0,1-.5-.5v-1a.5.5,0,0,1,.5-.5.5.5,0,0,1,.5.5v1A.51.51,0,0,1,514.11,135.77Zm-60-.76a.5.5,0,0,1-.5-.5v-1a.5.5,0,0,1,.5-.5.51.51,0,0,1,.5.5v1A.5.5,0,0,1,454.11,135Zm60-3.24a.5.5,0,0,1-.5-.5v-1a.5.5,0,0,1,.5-.5.5.5,0,0,1,.5.5v1A.51.51,0,0,1,514.11,131.77Zm-60-.76a.5.5,0,0,1-.5-.5v-1a.5.5,0,0,1,.5-.5.51.51,0,0,1,.5.5v1A.5.5,0,0,1,454.11,131Zm60-3.24a.5.5,0,0,1-.5-.5v-1a.5.5,0,0,1,.5-.5.5.5,0,0,1,.5.5v1A.51.51,0,0,1,514.11,127.77Zm-60-.76a.5.5,0,0,1-.5-.5v-1a.5.5,0,0,1,.5-.5.51.51,0,0,1,.5.5v1A.5.5,0,0,1,454.11,127Zm60-3.24a.5.5,0,0,1-.5-.5v-1a.5.5,0,0,1,.5-.5.5.5,0,0,1,.5.5v1A.51.51,0,0,1,514.11,123.77Zm-60-.76a.5.5,0,0,1-.5-.5v-1a.5.5,0,0,1,.5-.5.51.51,0,0,1,.5.5v1A.5.5,0,0,1,454.11,123Zm60-3.24a.5.5,0,0,1-.5-.5v-1a.5.5,0,0,1,.5-.5.5.5,0,0,1,.5.5v1A.51.51,0,0,1,514.11,119.77Zm-60-.76a.5.5,0,0,1-.5-.5v-1a.5.5,0,0,1,.5-.5.51.51,0,0,1,.5.5v1A.5.5,0,0,1,454.11,119Zm60-3.24a.5.5,0,0,1-.5-.5v-1a.5.5,0,0,1,.5-.5.5.5,0,0,1,.5.5v1A.51.51,0,0,1,514.11,115.77Zm-60-.76a.5.5,0,0,1-.5-.5v-1a.5.5,0,0,1,.5-.5.51.51,0,0,1,.5.5v1A.5.5,0,0,1,454.11,115Zm60-3.24a.5.5,0,0,1-.5-.5v-1a.5.5,0,0,1,.5-.5.5.5,0,0,1,.5.5v1A.51.51,0,0,1,514.11,111.77Zm-60-.76a.5.5,0,0,1-.5-.5v-1.08a.51.51,0,0,1,.27-.53l.9-.45a.5.5,0,0,1,.45.9l-.62.31v.85A.5.5,0,0,1,454.11,111Zm58.13-2.09a.59.59,0,0,1-.22,0l-.89-.45a.5.5,0,1,1,.44-.9l.9.45a.49.49,0,0,1,.22.67A.49.49,0,0,1,512.24,108.92Zm-54.55-.86a.48.48,0,0,1-.45-.28.49.49,0,0,1,.22-.67l.9-.44a.49.49,0,0,1,.67.22.5.5,0,0,1-.23.67l-.89.45A.59.59,0,0,1,457.69,108.06Zm51-.93a.64.64,0,0,1-.23,0l-.89-.45a.49.49,0,0,1-.22-.67.5.5,0,0,1,.67-.23l.89.45a.49.49,0,0,1,.22.67A.48.48,0,0,1,508.67,107.13Zm-47.41-.86a.5.5,0,0,1-.22-1l.89-.44a.5.5,0,0,1,.45.89l-.89.45A.64.64,0,0,1,461.26,106.27Zm43.83-.93a.54.54,0,0,1-.22,0l-.9-.45a.5.5,0,1,1,.45-.89l.89.44a.5.5,0,0,1-.22,1Zm-40.25-.86a.51.51,0,0,1-.45-.27.5.5,0,0,1,.23-.67l.89-.45a.5.5,0,0,1,.45.89l-.9.45A.42.42,0,0,1,464.84,104.48Zm36.67-.93a.59.59,0,0,1-.22,0l-.9-.45a.5.5,0,0,1-.22-.67.49.49,0,0,1,.67-.22l.9.44a.51.51,0,0,1,.22.67A.5.5,0,0,1,501.51,103.55Zm-33.09-.86a.5.5,0,0,1-.23-.94l.9-.45a.5.5,0,0,1,.45.89l-.9.45A.44.44,0,0,1,468.42,102.69Zm29.51-.93a.44.44,0,0,1-.22-.05l-.89-.45a.5.5,0,1,1,.44-.89l.9.45a.5.5,0,0,1-.23.94ZM472,100.9a.5.5,0,0,1-.45-.27.49.49,0,0,1,.22-.67l.9-.45a.51.51,0,0,1,.67.22.5.5,0,0,1-.23.67l-.89.45A.44.44,0,0,1,472,100.9Zm22.36-.93a.46.46,0,0,1-.23,0l-.89-.45a.5.5,0,0,1-.23-.67.52.52,0,0,1,.68-.22l.89.45a.5.5,0,0,1-.22.94Zm-18.79-.85a.48.48,0,0,1-.44-.28.49.49,0,0,1,.22-.67l.89-.45a.51.51,0,0,1,.68.23.51.51,0,0,1-.23.67l-.89.44A.46.46,0,0,1,475.57,99.12Zm15.21-.93a.49.49,0,0,1-.23-.06l-.89-.44a.5.5,0,0,1,.45-.9l.89.45a.5.5,0,0,1,.23.67A.52.52,0,0,1,490.78,98.19Zm-11.63-.86a.5.5,0,0,1-.22-1l.89-.45a.5.5,0,0,1,.67.23.49.49,0,0,1-.22.67l-.9.44A.43.43,0,0,1,479.15,97.33Zm8.05-.93a.46.46,0,0,1-.22-.06l-.9-.44a.51.51,0,0,1-.22-.67.5.5,0,0,1,.67-.23l.89.45a.5.5,0,0,1,.23.67A.52.52,0,0,1,487.2,96.4Zm-4.47-.86a.5.5,0,0,1-.23-1l.9-.45a.5.5,0,0,1,.67.23.51.51,0,0,1-.22.67l-.9.45A.59.59,0,0,1,482.73,95.54Z"/><path class="cls-5" d="M405.42,163.24a.5.5,0,0,1-.22-.94l.89-.45a.5.5,0,0,1,.45.9l-.89.44A.48.48,0,0,1,405.42,163.24Zm-2.68-.33a.54.54,0,0,1-.22,0l-.9-.45a.49.49,0,0,1-.22-.67.5.5,0,0,1,.67-.23l.89.45a.5.5,0,0,1-.22.95Zm6.26-1.45a.52.52,0,0,1-.45-.28.5.5,0,0,1,.23-.67l.89-.45a.5.5,0,0,1,.67.23.49.49,0,0,1-.22.67l-.9.44A.43.43,0,0,1,409,161.46Zm-9.84-.34a.59.59,0,0,1-.22-.05l-.9-.45a.5.5,0,0,1-.22-.67.49.49,0,0,1,.67-.22l.9.44a.51.51,0,0,1,.22.67A.5.5,0,0,1,399.16,161.12Zm13.42-1.45a.49.49,0,0,1-.45-.28.5.5,0,0,1,.22-.67l.9-.45a.5.5,0,0,1,.67.23.51.51,0,0,1-.22.67l-.9.44A.46.46,0,0,1,412.58,159.67Zm-17-.34a.59.59,0,0,1-.22-.05l-.89-.45a.5.5,0,0,1-.23-.67.49.49,0,0,1,.67-.22l.9.44a.51.51,0,0,1,.22.67A.49.49,0,0,1,395.58,159.33Zm20.58-1.45a.49.49,0,0,1-.45-.28.5.5,0,0,1,.22-.67l.9-.45a.5.5,0,0,1,.44.9l-.89.45A.59.59,0,0,1,416.16,157.88ZM392,157.54a.59.59,0,0,1-.23,0l-.89-.45a.5.5,0,0,1-.23-.67.49.49,0,0,1,.67-.22l.9.44a.5.5,0,0,1,.22.68A.49.49,0,0,1,392,157.54Zm27.72-1.45a.48.48,0,0,1-.44-.28.49.49,0,0,1,.22-.67l.89-.45a.5.5,0,0,1,.67.23.49.49,0,0,1-.22.67L420,156A.59.59,0,0,1,419.73,156.09Zm-31.3-.34a.48.48,0,0,1-.23-.05l-.89-.45a.49.49,0,0,1-.22-.67.5.5,0,0,1,.67-.22l.89.45a.5.5,0,0,1,.23.67A.51.51,0,0,1,388.43,155.75Zm34.88-1.45a.5.5,0,0,1-.22-1l.89-.44a.5.5,0,1,1,.45.89l-.9.45A.54.54,0,0,1,423.31,154.3ZM384.85,154a.42.42,0,0,1-.22-.05l-.9-.45a.5.5,0,0,1,.45-.89l.89.45a.5.5,0,0,1,.23.67A.51.51,0,0,1,384.85,154Zm42-1.45a.5.5,0,0,1-.22-.95l.89-.44a.5.5,0,0,1,.67.22.5.5,0,0,1-.22.67l-.9.45A.44.44,0,0,1,426.89,152.51Zm-45.62-.33a.46.46,0,0,1-.22-.06l-.9-.44a.52.52,0,0,1-.22-.68.51.51,0,0,1,.67-.22l.9.45a.5.5,0,0,1,.22.67A.51.51,0,0,1,381.27,152.18Zm49.2-1.46a.5.5,0,0,1-.23-.94l.9-.45a.5.5,0,1,1,.44.89l-.89.45A.44.44,0,0,1,430.47,150.72Zm-52.78-.33a.46.46,0,0,1-.22-.06l-.89-.44a.5.5,0,1,1,.44-.9l.9.45a.49.49,0,0,1,.22.67A.51.51,0,0,1,377.69,150.39ZM434,148.93a.5.5,0,0,1-.22-.94l.1-.05v-.27a.5.5,0,0,1,.5-.5.5.5,0,0,1,.5.5v.58a.49.49,0,0,1-.28.44l-.37.19A.46.46,0,0,1,434,148.93Zm-59.62-.52a.5.5,0,0,1-.5-.5v-1a.5.5,0,0,1,.5-.5.51.51,0,0,1,.5.5v1A.5.5,0,0,1,374.42,148.41Zm60-3.24a.5.5,0,0,1-.5-.5v-1a.5.5,0,0,1,.5-.5.51.51,0,0,1,.5.5v1A.51.51,0,0,1,434.42,145.17Zm-60-.76a.5.5,0,0,1-.5-.5v-1a.5.5,0,0,1,.5-.5.51.51,0,0,1,.5.5v1A.5.5,0,0,1,374.42,144.41Zm60-3.25a.5.5,0,0,1-.5-.5v-1a.5.5,0,0,1,.5-.5.51.51,0,0,1,.5.5v1A.5.5,0,0,1,434.42,141.16Zm-60-.75a.5.5,0,0,1-.5-.5v-1a.5.5,0,0,1,.5-.5.51.51,0,0,1,.5.5v1A.5.5,0,0,1,374.42,140.41Zm60-3.25a.5.5,0,0,1-.5-.5v-1a.5.5,0,0,1,.5-.5.51.51,0,0,1,.5.5v1A.5.5,0,0,1,434.42,137.16Zm-60-.75a.5.5,0,0,1-.5-.5v-1a.5.5,0,0,1,.5-.5.51.51,0,0,1,.5.5v1A.5.5,0,0,1,374.42,136.41Zm60-3.25a.5.5,0,0,1-.5-.5v-1a.5.5,0,0,1,.5-.5.51.51,0,0,1,.5.5v1A.5.5,0,0,1,434.42,133.16Zm-60-.75a.5.5,0,0,1-.5-.5v-1a.5.5,0,0,1,.5-.5.51.51,0,0,1,.5.5v1A.5.5,0,0,1,374.42,132.41Zm60-3.25a.5.5,0,0,1-.5-.5v-1a.5.5,0,0,1,.5-.5.51.51,0,0,1,.5.5v1A.5.5,0,0,1,434.42,129.16Zm-60-.75a.5.5,0,0,1-.5-.5v-1a.5.5,0,0,1,.5-.5.51.51,0,0,1,.5.5v1A.5.5,0,0,1,374.42,128.41Zm60-3.25a.5.5,0,0,1-.5-.5v-1a.5.5,0,0,1,.5-.5.51.51,0,0,1,.5.5v1A.5.5,0,0,1,434.42,125.16Zm-60-.75a.5.5,0,0,1-.5-.5v-1a.5.5,0,0,1,.5-.5.51.51,0,0,1,.5.5v1A.5.5,0,0,1,374.42,124.41Zm60-3.25a.5.5,0,0,1-.5-.5v-1a.5.5,0,0,1,.5-.5.51.51,0,0,1,.5.5v1A.5.5,0,0,1,434.42,121.16Zm-60-.75a.5.5,0,0,1-.5-.5v-1a.5.5,0,0,1,.5-.5.51.51,0,0,1,.5.5v1A.5.5,0,0,1,374.42,120.41Zm60-3.25a.5.5,0,0,1-.5-.5v-1a.5.5,0,0,1,.5-.5.51.51,0,0,1,.5.5v1A.5.5,0,0,1,434.42,117.16Zm-60-.75a.5.5,0,0,1-.5-.5v-1a.5.5,0,0,1,.5-.5.51.51,0,0,1,.5.5v1A.5.5,0,0,1,374.42,116.41Zm60-3.25a.5.5,0,0,1-.5-.5v-1a.5.5,0,0,1,.5-.5.51.51,0,0,1,.5.5v1A.5.5,0,0,1,434.42,113.16Zm-60-.75a.5.5,0,0,1-.5-.5v-1.08a.51.51,0,0,1,.27-.53l.9-.45a.5.5,0,0,1,.67.23.51.51,0,0,1-.22.67l-.62.31v.85A.5.5,0,0,1,374.42,112.41Zm58.13-2.09a.46.46,0,0,1-.22-.06l-.89-.44a.5.5,0,1,1,.44-.9l.9.45a.49.49,0,0,1,.22.67A.51.51,0,0,1,432.55,110.32ZM378,109.46a.49.49,0,0,1-.45-.28.49.49,0,0,1,.22-.67l.9-.45a.5.5,0,1,1,.44.9l-.89.45A.59.59,0,0,1,378,109.46Zm51-.93a.49.49,0,0,1-.23-.06l-.89-.44a.49.49,0,0,1-.22-.67.5.5,0,0,1,.67-.23l.89.45a.49.49,0,0,1,.22.67A.48.48,0,0,1,429,108.53Zm-47.41-.86a.48.48,0,0,1-.44-.28.49.49,0,0,1,.22-.67l.89-.45a.5.5,0,0,1,.67.23.49.49,0,0,1-.22.67l-.89.45A.64.64,0,0,1,381.57,107.67Zm43.83-.93a.54.54,0,0,1-.22,0l-.9-.45a.49.49,0,0,1-.22-.67.5.5,0,0,1,.67-.23l.89.45a.5.5,0,0,1-.22.95Zm-40.25-.86a.5.5,0,0,1-.22-.95l.89-.44a.5.5,0,0,1,.45.89l-.9.45A.54.54,0,0,1,385.15,105.88Zm36.67-.93a.59.59,0,0,1-.22,0l-.9-.45a.5.5,0,0,1,.45-.9l.9.45a.51.51,0,0,1,.22.67A.49.49,0,0,1,421.82,105Zm-33.09-.86a.51.51,0,0,1-.45-.27.52.52,0,0,1,.22-.68l.9-.44a.49.49,0,0,1,.67.22.5.5,0,0,1-.22.67l-.9.45A.59.59,0,0,1,388.73,104.09Zm29.51-.93a.59.59,0,0,1-.22,0l-.89-.45a.5.5,0,0,1-.23-.67.49.49,0,0,1,.67-.22l.9.44a.5.5,0,0,1-.23,1Zm-25.93-.86a.5.5,0,0,1-.23-.94l.9-.45a.5.5,0,1,1,.44.89l-.89.45A.44.44,0,0,1,392.31,102.3Zm22.36-.93a.59.59,0,0,1-.23-.05l-.89-.45A.5.5,0,1,1,414,100l.89.44a.5.5,0,0,1,.22.68A.49.49,0,0,1,414.67,101.37Zm-18.79-.86a.5.5,0,0,1-.22-.94l.89-.45a.52.52,0,0,1,.68.22.5.5,0,0,1-.23.67l-.89.45A.46.46,0,0,1,395.88,100.51Zm15.21-.93a.42.42,0,0,1-.22,0l-.9-.45a.49.49,0,0,1-.22-.67.5.5,0,0,1,.67-.22l.89.45a.5.5,0,0,1,.23.67A.51.51,0,0,1,411.09,99.58Zm-11.63-.85a.52.52,0,0,1-.45-.28.5.5,0,0,1,.23-.67l.89-.45a.5.5,0,0,1,.45.9l-.89.44A.49.49,0,0,1,399.46,98.73Zm8.05-.94a.44.44,0,0,1-.22-.05l-.9-.45a.5.5,0,0,1,.45-.89l.89.45a.5.5,0,0,1,.23.67A.51.51,0,0,1,407.51,97.79ZM403,96.94a.52.52,0,0,1-.45-.28.5.5,0,0,1,.23-.67l.89-.45a.5.5,0,0,1,.67.23.51.51,0,0,1-.22.67l-.9.44A.46.46,0,0,1,403,96.94Z"/><path class="cls-5" d="M365.81,94.27a.51.51,0,0,1-.45-.27.5.5,0,0,1,.23-.67l.89-.45a.5.5,0,0,1,.67.22.49.49,0,0,1-.22.67l-.9.45A.42.42,0,0,1,365.81,94.27Zm-2.68-.33a.49.49,0,0,1-.23-.06l-.89-.44a.49.49,0,0,1-.22-.67.5.5,0,0,1,.67-.23l.89.45a.49.49,0,0,1,.22.67A.48.48,0,0,1,363.13,93.94Zm6.26-1.45a.52.52,0,0,1-.45-.28.5.5,0,0,1,.22-.67l.9-.45a.5.5,0,0,1,.67.22.52.52,0,0,1-.22.68l-.9.44A.46.46,0,0,1,369.39,92.49Zm-9.84-.34a.54.54,0,0,1-.22-.05l-.9-.45a.49.49,0,0,1-.22-.67.5.5,0,0,1,.67-.23l.89.45a.5.5,0,0,1-.22,1ZM373,90.7a.49.49,0,0,1-.45-.28.5.5,0,0,1,.22-.67l.9-.45a.5.5,0,0,1,.44.9l-.89.44A.46.46,0,0,1,373,90.7Zm-17-.34a.59.59,0,0,1-.22,0l-.9-.45a.5.5,0,0,1,.45-.9l.9.45a.51.51,0,0,1,.22.67A.49.49,0,0,1,356,90.36Zm20.57-1.45a.48.48,0,0,1-.44-.28.49.49,0,0,1,.22-.67l.89-.45a.51.51,0,0,1,.68.23.51.51,0,0,1-.23.67l-.89.44A.46.46,0,0,1,376.54,88.91Zm-24.15-.34a.59.59,0,0,1-.22,0l-.89-.45a.5.5,0,0,1-.23-.67.49.49,0,0,1,.67-.22l.9.44a.51.51,0,0,1,.22.67A.49.49,0,0,1,352.39,88.57Zm27.73-1.45a.5.5,0,0,1-.22-1l.89-.45a.5.5,0,0,1,.67.23.49.49,0,0,1-.22.67l-.89.45A.64.64,0,0,1,380.12,87.12Zm-31.3-.34a.59.59,0,0,1-.23,0l-.89-.45a.5.5,0,1,1,.45-.89l.89.44a.5.5,0,0,1,.22.68A.49.49,0,0,1,348.82,86.78Zm34.88-1.45a.5.5,0,0,1-.22-1l.89-.44a.49.49,0,0,1,.67.22.5.5,0,0,1-.22.67l-.9.45A.59.59,0,0,1,383.7,85.33ZM345.24,85a.42.42,0,0,1-.22,0l-.9-.45a.49.49,0,0,1-.22-.67.5.5,0,0,1,.67-.22l.89.45a.5.5,0,0,1,.23.67A.51.51,0,0,1,345.24,85Zm42-1.45a.49.49,0,0,1-.45-.28.51.51,0,0,1,.22-.67l.9-.44a.49.49,0,0,1,.67.22.5.5,0,0,1-.22.67l-.9.45A.59.59,0,0,1,387.28,83.54Zm-45.62-.34a.44.44,0,0,1-.22,0l-.9-.45a.5.5,0,0,1,.45-.89l.89.45a.5.5,0,0,1,.23.67A.51.51,0,0,1,341.66,83.2Zm49.19-1.45a.5.5,0,0,1-.22-1l.9-.44a.49.49,0,0,1,.67.22.5.5,0,0,1-.23.67l-.89.45A.59.59,0,0,1,390.85,81.75Zm-52.77-.34a.44.44,0,0,1-.22,0l-.89-.45a.5.5,0,0,1-.23-.67.51.51,0,0,1,.67-.22l.9.45a.5.5,0,0,1-.23.94ZM394.43,80a.51.51,0,0,1-.45-.27.5.5,0,0,1,.23-.67l.1,0v-.28a.5.5,0,0,1,.5-.5.51.51,0,0,1,.5.5v.59a.49.49,0,0,1-.28.44l-.37.19A.48.48,0,0,1,394.43,80Zm-59.62-.52a.5.5,0,0,1-.5-.5v-1a.5.5,0,0,1,.5-.5.5.5,0,0,1,.5.5v1A.5.5,0,0,1,334.81,79.44Zm60-3.25a.5.5,0,0,1-.5-.5v-1a.5.5,0,0,1,.5-.5.51.51,0,0,1,.5.5v1A.5.5,0,0,1,394.81,76.19Zm-60-.75a.5.5,0,0,1-.5-.5v-1a.5.5,0,0,1,.5-.5.5.5,0,0,1,.5.5v1A.5.5,0,0,1,334.81,75.44Zm60-3.25a.5.5,0,0,1-.5-.5v-1a.5.5,0,0,1,.5-.5.51.51,0,0,1,.5.5v1A.5.5,0,0,1,394.81,72.19Zm-60-.75a.5.5,0,0,1-.5-.5v-1a.5.5,0,0,1,.5-.5.5.5,0,0,1,.5.5v1A.5.5,0,0,1,334.81,71.44Zm60-3.25a.5.5,0,0,1-.5-.5v-1a.5.5,0,0,1,.5-.5.51.51,0,0,1,.5.5v1A.5.5,0,0,1,394.81,68.19Zm-60-.75a.5.5,0,0,1-.5-.5v-1a.5.5,0,0,1,.5-.5.5.5,0,0,1,.5.5v1A.5.5,0,0,1,334.81,67.44Zm60-3.25a.5.5,0,0,1-.5-.5v-1a.5.5,0,0,1,.5-.5.51.51,0,0,1,.5.5v1A.5.5,0,0,1,394.81,64.19Zm-60-.75a.5.5,0,0,1-.5-.5v-1a.5.5,0,0,1,.5-.5.5.5,0,0,1,.5.5v1A.5.5,0,0,1,334.81,63.44Zm60-3.25a.5.5,0,0,1-.5-.5v-1a.5.5,0,0,1,.5-.5.51.51,0,0,1,.5.5v1A.5.5,0,0,1,394.81,60.19Zm-60-.75a.5.5,0,0,1-.5-.5v-1a.5.5,0,0,1,.5-.5.5.5,0,0,1,.5.5v1A.5.5,0,0,1,334.81,59.44Zm60-3.25a.5.5,0,0,1-.5-.5v-1a.5.5,0,0,1,.5-.5.51.51,0,0,1,.5.5v1A.5.5,0,0,1,394.81,56.19Zm-60-.75a.5.5,0,0,1-.5-.5v-1a.5.5,0,0,1,.5-.5.5.5,0,0,1,.5.5v1A.5.5,0,0,1,334.81,55.44Zm60-3.25a.5.5,0,0,1-.5-.5v-1a.5.5,0,0,1,.5-.5.51.51,0,0,1,.5.5v1A.5.5,0,0,1,394.81,52.19Zm-60-.75a.5.5,0,0,1-.5-.5v-1a.5.5,0,0,1,.5-.5.5.5,0,0,1,.5.5v1A.5.5,0,0,1,334.81,51.44Zm60-3.25a.5.5,0,0,1-.5-.5v-1a.5.5,0,0,1,.5-.5.51.51,0,0,1,.5.5v1A.5.5,0,0,1,394.81,48.19Zm-60-.75a.5.5,0,0,1-.5-.5v-1a.5.5,0,0,1,.5-.5.5.5,0,0,1,.5.5v1A.5.5,0,0,1,334.81,47.44Zm60-3.25a.5.5,0,0,1-.5-.5v-1a.5.5,0,0,1,.5-.5.51.51,0,0,1,.5.5v1A.5.5,0,0,1,394.81,44.19Zm-60-.75a.5.5,0,0,1-.5-.5V41.86a.51.51,0,0,1,.27-.53l.9-.45a.5.5,0,0,1,.44.9l-.61.31v.85A.5.5,0,0,1,334.81,43.44Zm58.13-2.09a.46.46,0,0,1-.22-.06l-.89-.44a.5.5,0,1,1,.44-.9l.9.45a.5.5,0,0,1,.22.67A.51.51,0,0,1,392.94,41.35Zm-54.56-.86a.48.48,0,0,1-.44-.28.49.49,0,0,1,.22-.67l.89-.45a.51.51,0,0,1,.68.23.51.51,0,0,1-.23.67l-.89.44A.46.46,0,0,1,338.38,40.49Zm51-.93a.46.46,0,0,1-.23-.06l-.89-.44a.51.51,0,0,1-.23-.67.51.51,0,0,1,.68-.23l.89.45a.49.49,0,0,1,.22.67A.48.48,0,0,1,389.37,39.56ZM342,38.7a.5.5,0,0,1-.22-1l.89-.45a.5.5,0,0,1,.67.23.49.49,0,0,1-.22.67l-.89.45A.64.64,0,0,1,342,38.7Zm43.83-.93a.49.49,0,0,1-.23-.06l-.89-.44a.49.49,0,0,1-.22-.67.5.5,0,0,1,.67-.23l.89.45a.5.5,0,0,1-.22,1Zm-40.25-.86a.5.5,0,0,1-.22-.95l.89-.44a.49.49,0,0,1,.67.22.5.5,0,0,1-.22.67l-.9.45A.59.59,0,0,1,345.54,36.91ZM382.21,36a.59.59,0,0,1-.22,0l-.9-.45a.51.51,0,0,1-.22-.67.5.5,0,0,1,.67-.23l.89.45a.5.5,0,0,1-.22.95Zm-33.09-.86a.49.49,0,0,1-.45-.28.51.51,0,0,1,.22-.67l.9-.44a.49.49,0,0,1,.67.22.5.5,0,0,1-.23.67l-.89.45A.59.59,0,0,1,349.12,35.12Zm29.51-.93a.59.59,0,0,1-.22,0l-.89-.45a.5.5,0,0,1-.23-.67.49.49,0,0,1,.67-.22l.9.44a.51.51,0,0,1,.22.67A.49.49,0,0,1,378.63,34.19Zm-25.93-.86a.5.5,0,0,1-.23-.95l.9-.44a.49.49,0,0,1,.67.22.5.5,0,0,1-.23.67l-.89.45A.59.59,0,0,1,352.7,33.33Zm22.35-.93a.59.59,0,0,1-.22,0l-.89-.45a.5.5,0,0,1-.23-.67.49.49,0,0,1,.67-.22l.9.44a.5.5,0,0,1-.23.95Zm-18.78-.86a.5.5,0,0,1-.22-.94l.89-.45a.5.5,0,0,1,.67.22.49.49,0,0,1-.22.67l-.89.45A.48.48,0,0,1,356.27,31.54Zm15.21-.93a.48.48,0,0,1-.23-.05l-.89-.45a.49.49,0,0,1-.22-.67.5.5,0,0,1,.67-.22l.89.44a.5.5,0,0,1,.22.68A.49.49,0,0,1,371.48,30.61Zm-11.63-.86a.51.51,0,0,1-.45-.27.5.5,0,0,1,.23-.67l.89-.45a.5.5,0,0,1,.67.22.49.49,0,0,1-.22.67l-.9.45A.42.42,0,0,1,359.85,29.75Zm8-.93a.42.42,0,0,1-.22-.05l-.9-.45a.49.49,0,0,1-.22-.67.5.5,0,0,1,.67-.22l.89.45a.5.5,0,0,1,.23.67A.51.51,0,0,1,367.9,28.82ZM363.43,28a.51.51,0,0,1-.45-.28.5.5,0,0,1,.22-.67l.9-.45a.5.5,0,0,1,.67.22.52.52,0,0,1-.22.68l-.9.44A.46.46,0,0,1,363.43,28Z"/><path class="cls-5" d="M404.67,85.28a.44.44,0,0,1-.22,0L404,85a.5.5,0,0,1-.22-.67.52.52,0,0,1,.68-.22l.44.23a.49.49,0,0,1,.22.67A.5.5,0,0,1,404.67,85.28Z"/><path class="cls-5" d="M408,87a.59.59,0,0,1-.23,0l-.83-.43a.49.49,0,0,1-.22-.67.5.5,0,0,1,.67-.22l.83.42a.5.5,0,0,1-.22,1Z"/><path class="cls-5" d="M441.32,103.83a.49.49,0,0,1-.23-.06l-.83-.42a.5.5,0,0,1-.22-.67.49.49,0,0,1,.67-.22l.83.42a.49.49,0,0,1,.22.67A.48.48,0,0,1,441.32,103.83ZM438,102.14a.59.59,0,0,1-.23,0l-.83-.43a.49.49,0,0,1-.22-.67.51.51,0,0,1,.67-.22l.83.42a.5.5,0,0,1,.22.68A.49.49,0,0,1,438,102.14Zm-3.33-1.69a.46.46,0,0,1-.23,0l-.83-.42a.49.49,0,0,1-.22-.67.49.49,0,0,1,.67-.22l.83.42a.49.49,0,0,1,.22.67A.5.5,0,0,1,434.66,100.45Zm-3.34-1.68a.46.46,0,0,1-.22-.06l-.83-.42a.49.49,0,0,1-.22-.67.5.5,0,0,1,.67-.22l.83.42a.5.5,0,0,1-.23,1ZM428,97.08a.44.44,0,0,1-.22,0l-.83-.42a.5.5,0,1,1,.45-.89l.83.42a.5.5,0,0,1,.22.67A.5.5,0,0,1,428,97.08Zm-3.33-1.68a.46.46,0,0,1-.22-.06l-.84-.42a.5.5,0,0,1-.22-.67.51.51,0,0,1,.68-.22l.83.42a.51.51,0,0,1,.22.67A.5.5,0,0,1,424.66,95.4Zm-3.33-1.69a.59.59,0,0,1-.22,0l-.84-.42a.52.52,0,0,1-.22-.68.51.51,0,0,1,.67-.22l.84.43a.5.5,0,0,1,.22.67A.51.51,0,0,1,421.33,93.71ZM418,92a.49.49,0,0,1-.23-.06l-.83-.42a.5.5,0,0,1-.22-.67.49.49,0,0,1,.67-.22l.84.42a.51.51,0,0,1,.22.67A.5.5,0,0,1,418,92Zm-3.33-1.69a.64.64,0,0,1-.23,0l-.83-.42a.51.51,0,0,1-.22-.68.5.5,0,0,1,.67-.22l.83.42a.5.5,0,0,1-.22,1Zm-3.33-1.68a.46.46,0,0,1-.23-.06l-.83-.42a.5.5,0,1,1,.45-.89l.83.42a.49.49,0,0,1,.22.67A.48.48,0,0,1,411.34,88.66Z"/><path class="cls-5" d="M444.26,105.31a.44.44,0,0,1-.22,0l-.45-.22a.5.5,0,0,1,.45-.9l.45.23a.5.5,0,0,1,.22.67A.5.5,0,0,1,444.26,105.31Z"/><line class="cls-7" x1="164.11" y1="34.52" x2="124.26" y2="14.82"/><path class="cls-1" d="M84.26,175.31a.5.5,0,0,1-.22-.94l.44-.22a.5.5,0,1,1,.45.89l-.44.22A.48.48,0,0,1,84.26,175.31Zm3.13-1.55a.5.5,0,0,1-.22-.95l.89-.45a.5.5,0,0,1,.67.23.49.49,0,0,1-.22.67l-.9.45A.54.54,0,0,1,87.39,173.76ZM91,172a.52.52,0,0,1-.45-.28.5.5,0,0,1,.23-.67l.89-.45a.5.5,0,0,1,.67.23.49.49,0,0,1-.22.67l-.9.44A.43.43,0,0,1,91,172Zm3.58-1.79a.51.51,0,0,1-.45-.27.5.5,0,0,1,.23-.67l.89-.45a.5.5,0,0,1,.67.22.49.49,0,0,1-.22.67l-.89.45A.48.48,0,0,1,94.55,170.19Zm3.58-1.78a.48.48,0,0,1-.44-.28.49.49,0,0,1,.22-.67l.9-.44a.49.49,0,0,1,.67.22.5.5,0,0,1-.23.67l-.89.45A.64.64,0,0,1,98.13,168.41Zm3.58-1.78a.48.48,0,0,1-.44-.28.49.49,0,0,1,.22-.67l.9-.45a.51.51,0,0,1,.67.23.5.5,0,0,1-.23.67l-.89.44A.46.46,0,0,1,101.71,166.63Zm3.58-1.78a.5.5,0,0,1-.44-.28.49.49,0,0,1,.22-.67l.9-.45a.5.5,0,0,1,.67.23.51.51,0,0,1-.23.67l-.89.44A.46.46,0,0,1,105.29,164.85Zm3.59-1.79a.49.49,0,0,1-.45-.28.5.5,0,0,1,.22-.67l.9-.44a.5.5,0,1,1,.44.89l-.89.45A.44.44,0,0,1,108.88,163.06Zm3.58-1.78A.49.49,0,0,1,112,161a.51.51,0,0,1,.22-.67l.9-.44a.49.49,0,0,1,.67.22.5.5,0,0,1-.23.67l-.89.45A.59.59,0,0,1,112.46,161.28ZM116,159.5a.51.51,0,0,1-.45-.28.5.5,0,0,1,.22-.67l.9-.45a.5.5,0,1,1,.44.9l-.89.44A.46.46,0,0,1,116,159.5Zm3.58-1.79a.5.5,0,0,1-.23-.94l.9-.45a.5.5,0,0,1,.67.23.51.51,0,0,1-.22.67l-.9.44A.44.44,0,0,1,119.62,157.71Zm3.58-1.78a.5.5,0,0,1-.22-1l.89-.44a.5.5,0,0,1,.67.22.5.5,0,0,1-.22.67l-.9.45A.59.59,0,0,1,123.2,155.93Z"/><circle class="cls-6" cx="363.79" cy="15.13" r="2.5"/><circle class="cls-6" cx="164.46" cy="85.2" r="2.5"/><circle class="cls-6" cx="204.13" cy="14.95" r="2.5"/><circle class="cls-6" cx="284.03" cy="15.09" r="2.5"/><circle class="cls-6" cx="324.19" cy="84.91" r="2.5"/><circle class="cls-6" cx="244.33" cy="84.79" r="2.5"/><circle class="cls-6" cx="284.45" cy="155.13" r="2.5"/><circle class="cls-6" cx="244.33" cy="225.06" r="2.5"/><circle class="cls-6" cx="284.35" cy="244.64" r="2.5"/><circle class="cls-6" cx="204.48" cy="244.29" r="2.5"/><circle class="cls-6" cx="164.29" cy="174.38" r="2.5"/><circle class="cls-6" cx="203.99" cy="155.39" r="2.5"/><circle class="cls-6" cx="324.19" cy="225.06" r="2.5"/><circle class="cls-6" cx="364.38" cy="244.64" r="2.5"/><circle class="cls-6" cx="364.34" cy="155.48" r="2.5"/><circle class="cls-6" cx="404.05" cy="224.54" r="2.5"/><circle class="cls-6" cx="324.34" cy="175.07" r="2.33"/><path class="cls-6" d="M324.34,179a3.89,3.89,0,1,1,3.89-3.89A3.89,3.89,0,0,1,324.34,179Zm0-7a3.08,3.08,0,1,0,3.08,3.08A3.08,3.08,0,0,0,324.34,172Z"/><path class="cls-6" d="M324.34,180.07a5,5,0,1,1,5-5A5,5,0,0,1,324.34,180.07Zm0-9.46a4.46,4.46,0,1,0,4.46,4.46A4.46,4.46,0,0,0,324.34,170.61Z"/><circle class="cls-6" cx="204.16" cy="104.57" r="2.33"/><path class="cls-6" d="M204.16,108.46a3.89,3.89,0,1,1,3.88-3.89A3.89,3.89,0,0,1,204.16,108.46Zm0-7a3.08,3.08,0,1,0,3.07,3.08A3.09,3.09,0,0,0,204.16,101.49Z"/><path class="cls-6" d="M204.16,109.57a5,5,0,1,1,5-5A5,5,0,0,1,204.16,109.57Zm0-9.46a4.46,4.46,0,1,0,4.46,4.46A4.47,4.47,0,0,0,204.16,100.11Z"/><circle class="cls-6" cx="244.48" cy="174.78" r="2.33"/><path class="cls-6" d="M244.48,178.67a3.89,3.89,0,1,1,3.89-3.89A3.89,3.89,0,0,1,244.48,178.67Zm0-7a3.08,3.08,0,1,0,3.08,3.08A3.08,3.08,0,0,0,244.48,171.7Z"/><path class="cls-6" d="M244.48,179.78a5,5,0,1,1,5-5A5,5,0,0,1,244.48,179.78Zm0-9.46a4.46,4.46,0,1,0,4.47,4.46A4.46,4.46,0,0,0,244.48,170.32Z"/><circle class="cls-6" cx="284.5" cy="104.53" r="2.33"/><path class="cls-6" d="M284.5,108.41a3.89,3.89,0,1,1,3.89-3.88A3.88,3.88,0,0,1,284.5,108.41Zm0-7a3.08,3.08,0,1,0,3.08,3.08A3.09,3.09,0,0,0,284.5,101.45Z"/><path class="cls-6" d="M284.5,109.53a5,5,0,1,1,5-5A5,5,0,0,1,284.5,109.53Zm0-9.46a4.46,4.46,0,1,0,4.46,4.46A4.46,4.46,0,0,0,284.5,100.07Z"/><circle class="cls-6" cx="364.42" cy="104.76" r="2.33"/><path class="cls-6" d="M364.42,108.65a3.89,3.89,0,1,1,3.89-3.89A3.89,3.89,0,0,1,364.42,108.65Zm0-7a3.08,3.08,0,1,0,3.08,3.08A3.08,3.08,0,0,0,364.42,101.68Z"/><path class="cls-6" d="M364.42,109.76a5,5,0,1,1,5-5A5,5,0,0,1,364.42,109.76Zm0-9.46a4.46,4.46,0,1,0,4.47,4.46A4.46,4.46,0,0,0,364.42,100.3Z"/><circle class="cls-6" cx="244.5" cy="34.87" r="2.5"/><circle class="cls-6" cx="444.25" cy="104.31" r="2.5"/><circle class="cls-6" cx="444.25" cy="154.81" r="2.5"/><circle class="cls-6" cx="484.55" cy="84.51" r="2.5"/><circle class="cls-6" cx="483.85" cy="175.38" r="2.5"/><circle class="cls-6" cx="403.7" cy="174.73" r="2.5"/><circle class="cls-6" cx="124.09" cy="154.99" r="2.5"/><circle class="cls-6" cx="84.07" cy="174.38" r="2.5"/><circle class="cls-6" cx="164.29" cy="224.89" r="2.5"/><circle class="cls-6" cx="164.11" cy="34.52" r="2.5"/><circle class="cls-6" cx="124.18" cy="14.86" r="2.5"/><circle class="cls-6" cx="124.18" cy="104.9" r="2.5"/><circle class="cls-6" cx="84.34" cy="84.39" r="2.5"/><circle class="cls-6" cx="44.22" cy="103.88" r="2.5"/><circle class="cls-6" cx="323.93" cy="34.97" r="2.5"/><circle class="cls-6" cx="404.23" cy="84.56" r="2.5"/><circle class="cls-6" cx="83.99" cy="34.78" r="2.5"/><path class="cls-2" d="M205.19,92.27a.51.51,0,0,1-.45-.27.5.5,0,0,1,.23-.67l.89-.45a.5.5,0,0,1,.45.89l-.9.45A.44.44,0,0,1,205.19,92.27Zm-2.68-.33a.46.46,0,0,1-.23-.06l-.89-.44a.5.5,0,0,1,.44-.9l.9.45a.49.49,0,0,1,.22.67A.48.48,0,0,1,202.51,91.94Zm6.26-1.45a.51.51,0,0,1-.45-.28.5.5,0,0,1,.22-.67l.9-.45a.51.51,0,0,1,.67.22.51.51,0,0,1-.23.68l-.89.44A.46.46,0,0,1,208.77,90.49Zm-9.84-.34a.64.64,0,0,1-.23-.05l-.89-.45a.49.49,0,0,1-.22-.67.5.5,0,0,1,.67-.23l.89.45a.5.5,0,0,1-.22,1Zm13.42-1.45a.49.49,0,0,1-.45-.28.49.49,0,0,1,.22-.67l.9-.45a.5.5,0,1,1,.44.9l-.89.44A.46.46,0,0,1,212.35,88.7Zm-17-.34a.54.54,0,0,1-.22,0l-.9-.45a.5.5,0,0,1-.22-.67.49.49,0,0,1,.67-.22l.89.44a.5.5,0,0,1-.22,1Zm20.57-1.45a.48.48,0,0,1-.44-.28.49.49,0,0,1,.22-.67l.89-.45a.5.5,0,0,1,.67.23.49.49,0,0,1-.22.67l-.89.45A.64.64,0,0,1,215.92,86.91Zm-24.15-.34a.59.59,0,0,1-.22,0l-.9-.45a.5.5,0,0,1-.22-.67.49.49,0,0,1,.67-.22l.9.44a.51.51,0,0,1,.22.67A.49.49,0,0,1,191.77,86.57Zm27.73-1.45a.5.5,0,0,1-.22-1l.89-.45a.5.5,0,0,1,.67.23.49.49,0,0,1-.22.67l-.9.45A.54.54,0,0,1,219.5,85.12Zm-31.31-.34a.44.44,0,0,1-.22,0l-.89-.45a.5.5,0,0,1-.23-.67.49.49,0,0,1,.67-.22l.9.44a.5.5,0,0,1-.23,1Zm34.89-1.45a.49.49,0,0,1-.45-.28.51.51,0,0,1,.22-.67l.9-.44a.49.49,0,0,1,.67.22.5.5,0,0,1-.22.67l-.9.45A.59.59,0,0,1,223.08,83.33ZM184.62,83a.48.48,0,0,1-.23,0l-.89-.45a.49.49,0,0,1-.22-.67.5.5,0,0,1,.67-.22l.89.45a.5.5,0,0,1-.22.94Zm42-1.45a.5.5,0,0,1-.23-1l.9-.44a.49.49,0,0,1,.67.22.5.5,0,0,1-.23.67l-.89.45A.59.59,0,0,1,226.66,81.54ZM181,81.2a.42.42,0,0,1-.22,0l-.9-.45a.49.49,0,0,1-.22-.67.5.5,0,0,1,.67-.22l.89.45a.5.5,0,0,1,.23.67A.51.51,0,0,1,181,81.2Zm49.19-1.45a.5.5,0,0,1-.22-.94l.89-.45a.5.5,0,0,1,.67.22.49.49,0,0,1-.22.67l-.89.45A.48.48,0,0,1,230.23,79.75Zm-52.77-.33a.46.46,0,0,1-.22-.06l-.9-.44a.52.52,0,0,1-.22-.68.5.5,0,0,1,.67-.22l.9.45a.5.5,0,0,1,.22.67A.51.51,0,0,1,177.46,79.42ZM233.81,78a.51.51,0,0,1-.45-.27.5.5,0,0,1,.23-.67l.09,0v-.28a.51.51,0,0,1,.5-.5.5.5,0,0,1,.5.5v.59a.48.48,0,0,1-.27.44l-.38.19A.42.42,0,0,1,233.81,78Zm-59.63-.52a.5.5,0,0,1-.5-.5v-1a.5.5,0,0,1,.5-.5.5.5,0,0,1,.5.5v1A.5.5,0,0,1,174.18,77.44Zm60-3.25a.5.5,0,0,1-.5-.5v-1a.51.51,0,0,1,.5-.5.5.5,0,0,1,.5.5v1A.5.5,0,0,1,234.18,74.19Zm-60-.75a.5.5,0,0,1-.5-.5v-1a.5.5,0,0,1,.5-.5.5.5,0,0,1,.5.5v1A.5.5,0,0,1,174.18,73.44Zm60-3.25a.5.5,0,0,1-.5-.5v-1a.51.51,0,0,1,.5-.5.5.5,0,0,1,.5.5v1A.5.5,0,0,1,234.18,70.19Zm-60-.75a.5.5,0,0,1-.5-.5v-1a.5.5,0,0,1,.5-.5.5.5,0,0,1,.5.5v1A.5.5,0,0,1,174.18,69.44Zm60-3.25a.5.5,0,0,1-.5-.5v-1a.51.51,0,0,1,.5-.5.5.5,0,0,1,.5.5v1A.5.5,0,0,1,234.18,66.19Zm-60-.75a.5.5,0,0,1-.5-.5v-1a.5.5,0,0,1,.5-.5.5.5,0,0,1,.5.5v1A.5.5,0,0,1,174.18,65.44Zm60-3.25a.5.5,0,0,1-.5-.5v-1a.51.51,0,0,1,.5-.5.5.5,0,0,1,.5.5v1A.5.5,0,0,1,234.18,62.19Zm-60-.75a.5.5,0,0,1-.5-.5v-1a.5.5,0,0,1,.5-.5.5.5,0,0,1,.5.5v1A.5.5,0,0,1,174.18,61.44Zm60-3.25a.5.5,0,0,1-.5-.5v-1a.51.51,0,0,1,.5-.5.5.5,0,0,1,.5.5v1A.5.5,0,0,1,234.18,58.19Zm-60-.75a.5.5,0,0,1-.5-.5v-1a.5.5,0,0,1,.5-.5.5.5,0,0,1,.5.5v1A.5.5,0,0,1,174.18,57.44Zm60-3.25a.5.5,0,0,1-.5-.5v-1a.51.51,0,0,1,.5-.5.5.5,0,0,1,.5.5v1A.5.5,0,0,1,234.18,54.19Zm-60-.75a.5.5,0,0,1-.5-.5v-1a.5.5,0,0,1,.5-.5.5.5,0,0,1,.5.5v1A.5.5,0,0,1,174.18,53.44Zm60-3.25a.5.5,0,0,1-.5-.5v-1a.51.51,0,0,1,.5-.5.5.5,0,0,1,.5.5v1A.5.5,0,0,1,234.18,50.19Zm-60-.75a.5.5,0,0,1-.5-.5v-1a.5.5,0,0,1,.5-.5.5.5,0,0,1,.5.5v1A.5.5,0,0,1,174.18,49.44Zm60-3.25a.5.5,0,0,1-.5-.5v-1a.51.51,0,0,1,.5-.5.5.5,0,0,1,.5.5v1A.5.5,0,0,1,234.18,46.19Zm-60-.75a.5.5,0,0,1-.5-.5v-1a.5.5,0,0,1,.5-.5.5.5,0,0,1,.5.5v1A.5.5,0,0,1,174.18,45.44Zm60-3.25a.5.5,0,0,1-.5-.5v-1a.51.51,0,0,1,.5-.5.5.5,0,0,1,.5.5v1A.5.5,0,0,1,234.18,42.19Zm-60-.75a.5.5,0,0,1-.5-.5v-1s0,0,0-.08a.51.51,0,0,1,.27-.53l.9-.45a.5.5,0,0,1,.44.9l-.62.31v.85A.5.5,0,0,1,174.18,41.44Zm58.14-2.09a.46.46,0,0,1-.22-.06l-.9-.44a.52.52,0,0,1-.22-.68.5.5,0,0,1,.67-.22l.9.45a.5.5,0,0,1,.22.67A.51.51,0,0,1,232.32,39.35Zm-54.56-.86a.5.5,0,0,1-.22-1l.89-.45a.5.5,0,0,1,.67.23.49.49,0,0,1-.22.67l-.89.45A.64.64,0,0,1,177.76,38.49Zm51-.93a.46.46,0,0,1-.22-.06l-.89-.44a.5.5,0,1,1,.44-.9l.9.45a.49.49,0,0,1,.22.67A.49.49,0,0,1,228.74,37.56Zm-47.4-.86a.5.5,0,0,1-.22-1l.89-.45a.5.5,0,0,1,.67.23.49.49,0,0,1-.22.67l-.9.45A.54.54,0,0,1,181.34,36.7Zm43.83-.93a.64.64,0,0,1-.23-.05l-.89-.45a.49.49,0,0,1-.22-.67.5.5,0,0,1,.67-.23l.89.45a.49.49,0,0,1,.22.67A.48.48,0,0,1,225.17,35.77Zm-40.25-.86a.49.49,0,0,1-.45-.28.51.51,0,0,1,.22-.67l.9-.44a.49.49,0,0,1,.67.22.5.5,0,0,1-.22.67l-.9.45A.59.59,0,0,1,184.92,34.91ZM221.59,34a.54.54,0,0,1-.22,0l-.9-.45a.49.49,0,0,1-.22-.67.5.5,0,0,1,.67-.23l.89.45a.5.5,0,0,1-.22.95Zm-33.09-.86a.5.5,0,0,1-.23-.95l.9-.44a.49.49,0,0,1,.67.22.5.5,0,0,1-.23.67l-.89.45A.59.59,0,0,1,188.5,33.12ZM218,32.19a.59.59,0,0,1-.22,0l-.9-.45a.5.5,0,0,1-.22-.67.49.49,0,0,1,.67-.22l.9.44a.51.51,0,0,1,.22.67A.5.5,0,0,1,218,32.19Zm-25.94-.86a.5.5,0,0,1-.22-.94l.89-.45a.5.5,0,1,1,.45.89l-.89.45A.46.46,0,0,1,192.07,31.33Zm22.36-.93a.59.59,0,0,1-.22,0l-.89-.45a.5.5,0,0,1-.23-.67.49.49,0,0,1,.67-.22l.9.44a.51.51,0,0,1,.22.67A.49.49,0,0,1,214.43,30.4Zm-18.78-.86a.51.51,0,0,1-.45-.27.5.5,0,0,1,.23-.67l.89-.45a.5.5,0,0,1,.67.22.49.49,0,0,1-.22.67l-.9.45A.42.42,0,0,1,195.65,29.54Zm15.21-.93a.46.46,0,0,1-.23-.05l-.89-.45a.5.5,0,0,1-.23-.67.51.51,0,0,1,.68-.22l.89.45a.5.5,0,0,1-.22.94Zm-11.63-.86a.51.51,0,0,1-.45-.27.5.5,0,0,1,.22-.67l.9-.45a.5.5,0,0,1,.45.89l-.9.45A.44.44,0,0,1,199.23,27.75Zm8.05-.93a.48.48,0,0,1-.23-.05l-.89-.45a.49.49,0,0,1-.22-.67.5.5,0,0,1,.67-.22l.89.45a.5.5,0,0,1,.23.67A.51.51,0,0,1,207.28,26.82ZM202.81,26a.51.51,0,0,1-.45-.28.5.5,0,0,1,.22-.67l.9-.45a.5.5,0,0,1,.44.9l-.89.44A.46.46,0,0,1,202.81,26Z"/><polygon class="cls-2" points="254.46 179.25 284.46 164.25 314.46 179.25 314.46 216.75 284.46 231.75 254.46 216.75 254.46 179.25"/><path class="cls-3" d="M293.21,200.56a.2.2,0,0,0,.11,0,4.74,4.74,0,0,0-.12-9.47,5.45,5.45,0,0,0,.11-1.06,5.31,5.31,0,0,0-10.14-2.19,4.11,4.11,0,0,0-2.21-.63,4.23,4.23,0,0,0-4,2.81l-.49,0a5.3,5.3,0,1,0,0,10.59h7.64v2.49h-9.49a2,2,0,0,0-2,1.72,1.76,1.76,0,1,0,.67,0,1.35,1.35,0,0,1,1.32-1.05h5v4a1.79,1.79,0,1,0,.66,0v-4h8.33v4a1.79,1.79,0,1,0,.67,0v-4h5a1.36,1.36,0,0,1,1.32,1.05,1.79,1.79,0,1,0,2.15,1.75,1.77,1.77,0,0,0-1.48-1.75,2,2,0,0,0-2-1.72h-9.48v-2.49Z"/></svg>