<svg id="facebook" xmlns="http://www.w3.org/2000/svg" viewBox="0 0 39.8 39.59"><defs><style>.cls-1{fill:#142252;}</style></defs><title>github_blue_hover</title><path class="cls-1" d="M25,5a20,20,0,0,0-4.31,39.52V41.93l-1.22.13a5.57,5.57,0,0,1-5-1.87,6.89,6.89,0,0,1-.49-.71c-.68-1.07-1.34-2.16-2-3.21a6.2,6.2,0,0,0-.84-.86l-.47-.48a1.8,1.8,0,0,1,1.4-.16,3.53,3.53,0,0,1,2.45,1.76,7,7,0,0,0,1,1.3,4.43,4.43,0,0,0,4.35,1.23c1.08-.25.87-.13,1-1.12a4.93,4.93,0,0,1,.65-1.85,2.68,2.68,0,0,0,.18-.33c-.47-.09-.91-.16-1.35-.26a9,9,0,0,1-4.58-2.37,7.16,7.16,0,0,1-2.11-5A19.09,19.09,0,0,1,14,23.3a5.49,5.49,0,0,1,1.4-2.7.61.61,0,0,0,.13-.55,6.87,6.87,0,0,1,0-4.52c.08-.26.17-.32.43-.25a5.26,5.26,0,0,1,2.44,1.45c.46.48.89,1,1.35,1.52a7,7,0,0,1,3.93-1,16.72,16.72,0,0,1,4.52.26,13.2,13.2,0,0,1,1.64.56c.61-.57,1.23-1.16,1.84-1.75a4.38,4.38,0,0,1,2-1.07.36.36,0,0,1,.52.27,6.1,6.1,0,0,1,0,4.41c-.08.21-.14.41.06.6a5.29,5.29,0,0,1,1.6,3.52A32.06,32.06,0,0,1,36,28.43a7,7,0,0,1-3.72,6,10.84,10.84,0,0,1-4,1.31h-.24l-.12.07a6.9,6.9,0,0,1,.9,4.19v4.59A20,20,0,0,0,25,5Z" transform="translate(-5.05 -5)"/></svg>