<svg id="facebook" xmlns="http://www.w3.org/2000/svg" viewBox="0 0 40 40"><defs><style>.cls-1{fill:#fff;}.cls-2{fill:#142252;}</style></defs><title>gitlab_blue_hover</title><polygon class="cls-1" points="24.79 18.14 20 33.07 31.49 18.14 24.79 18.14"/><polygon class="cls-1" points="8.51 18.14 20 33.07 15.21 18.14 8.51 18.14"/><path class="cls-2" d="M25,5A20,20,0,1,0,45,25,20,20,0,0,0,25,5ZM37.59,28.73,25,38.07,12.41,28.73a1,1,0,0,1-.36-1.12l1.46-4.47,2.87-8.87a.5.5,0,0,1,.6-.4.51.51,0,0,1,.4.4l2.87,8.87h9.58l2.87-8.87a.5.5,0,0,1,.6-.4.51.51,0,0,1,.4.4l2.87,8.87L38,27.61A1,1,0,0,1,37.59,28.73Z" transform="translate(-5 -5)"/></svg>