<svg id="facebook" xmlns="http://www.w3.org/2000/svg" viewBox="0 0 39.99 36.5"><defs><style>.cls-1{fill:#fff;}</style></defs><title>keybase_white</title><path class="cls-1" d="M24.89,5.4a9.72,9.72,0,0,0-1.62.09,9.46,9.46,0,0,1,.65-1.7l-1.68-1-.44.61c-.55.75-1.07,1.48-1.57,2.2h0a2.54,2.54,0,0,0-1.83-.89l-2.12-.14h-.17A2.67,2.67,0,0,0,13.43,7l-.12,2.1a19.94,19.94,0,0,0-5.9,26v2l1.95-2a15.57,15.57,0,0,0,1.8,4.19h2.35A14.08,14.08,0,0,1,11,33.39L14.21,30l-1.53,4.84L15.09,33c4.71-3.43,10.31-4.22,16.68-2.35,2.72.79,5.34.06,6.71-1.87a5,5,0,0,0,.29-.5A13.51,13.51,0,0,1,39,30.9a16.22,16.22,0,0,1-2.09,8.39h2.35A20,20,0,0,0,24.89,5.4Zm-5.52,6.75a3.64,3.64,0,0,1,.15-.68,10.75,10.75,0,0,1,1.3-3.13c.17-.3.35-.59.54-.89a1.27,1.27,0,0,0,.2.36,1.93,1.93,0,0,0,1.74.88,5.67,5.67,0,0,1,1.91.36,4.25,4.25,0,0,1,2.69,5.37,1.18,1.18,0,0,1-.07.2,1.76,1.76,0,0,1-.19.39,0,0,0,0,1,0,.05,4.47,4.47,0,0,1-.54.82A.2.2,0,0,0,27,16c-.09.1-.2.18-.29.27l-.28-.36-.09-.09-.3-.38h0a2.64,2.64,0,0,0-.68-.56L25,14.65a2.25,2.25,0,0,0-.81-.16,2.41,2.41,0,0,0-.84.16,3.1,3.1,0,0,0-.57.3l-.12.09a2.31,2.31,0,0,0-.58.7,2.41,2.41,0,0,0-.15.33,3.57,3.57,0,0,0-.16.72h0a6.28,6.28,0,0,1-.78-.48,3.11,3.11,0,0,1-.33-.29,5.57,5.57,0,0,1-.46-.51L20,15.18A4.65,4.65,0,0,1,19.37,12.15ZM26,20l-.8.64a.26.26,0,0,1-.22.09.41.41,0,0,1-.27-.13l-.17-.2a.38.38,0,0,1,.07-.52l.77-.63-.08-.11-.69-.85-.75-.92-.08-.11a.45.45,0,0,1-.09-.4.57.57,0,0,1,.12-.23h0a.38.38,0,0,1,.3-.11.47.47,0,0,1,.33.14h0l.11.14.34.42.64.8.66.79L29,22.2a.49.49,0,0,1-.07.67.54.54,0,0,1-.2.1h-.11a.47.47,0,0,1-.36-.18l-.45-.55-1.59,1.3a.36.36,0,0,1-.24.09.37.37,0,0,1-.28-.13L25,22.58a.37.37,0,0,1,.07-.51l1.59-1.32ZM15.34,7.83V7.16a.72.72,0,0,1,.71-.66h0L18,6.62h.18a.8.8,0,0,1,.49.23.76.76,0,0,1,.17.52v.38a13.23,13.23,0,0,0-1,2.4L15.92,10a.7.7,0,0,1-.66-.74h0ZM36.88,27.69c-.89,1.26-2.62,1.7-4.56,1.13C26.35,27.07,21,27.45,16.26,30l2.42-7.63-7.93,8.42-.94,1h0l-.4.44A17.67,17.67,0,0,1,11,25a14.55,14.55,0,0,1,2.86-4,15.06,15.06,0,0,1,5.47-3.56c.11.1.25.21.38.31a7.17,7.17,0,0,0,2.53,1.3,5.78,5.78,0,0,0,.57.12,2.3,2.3,0,0,0,.31,2.4l.05.05a2.29,2.29,0,0,0,.4,2.18l.71.88a2.27,2.27,0,0,0,3.23.32l.34-.28a2.29,2.29,0,0,0,.82.15,2.57,2.57,0,0,0,.55-.06,2.46,2.46,0,0,0,1-.49,2.42,2.42,0,0,0,.35-3.4L28,17.74c.17-.16.32-.32.48-.49l.49.13a14.36,14.36,0,0,1,1.42.55l.39.18.39.2c.26.14.51.28.77.44l.26.17a11.83,11.83,0,0,1,1.3.93l.18.14c.19.16.37.31.55.48l.14.13a.08.08,0,0,1,.07.06l.37.36.1.1.1.11.17.18c.36.38.68.78,1,1.18l.14.18c0,.06.09.14.14.21a3,3,0,0,1,.24.38C37.6,25,37.71,26.53,36.88,27.69Z" transform="translate(-4.88 -2.79)"/><path class="cls-1" d="M20.38,33.83a1.45,1.45,0,1,0,1.46,1.45,1.45,1.45,0,0,0-1.46-1.45Z" transform="translate(-4.88 -2.79)"/><path class="cls-1" d="M29.39,33.83a1.45,1.45,0,1,0,1.45,1.45,1.45,1.45,0,0,0-1.45-1.45Z" transform="translate(-4.88 -2.79)"/></svg>