<svg id="facebook" xmlns="http://www.w3.org/2000/svg" viewBox="0 0 40 40"><defs><style>.cls-1{fill:#2846a0;}</style></defs><title>linkedin_blue</title><path class="cls-1" d="M25,5A20,20,0,1,0,45,25,20,20,0,0,0,25,5ZM19.58,33.5H15.25V19.42h4.33ZM17.42,18.33a2.08,2.08,0,0,1-2.17-2v-.07A2.2,2.2,0,0,1,17.38,14h0a2.1,2.1,0,0,1,2.16,2v.13a2,2,0,0,1-1.83,2.16A1.82,1.82,0,0,1,17.42,18.33ZM34.75,33.5H30.42V26c0-1.73-.65-3-2.17-3a2.36,2.36,0,0,0-2.06,1.73,3.32,3.32,0,0,0-.11,1.09V33.5H21.75V24.18c0-1.62-.11-3-.11-4.22h3.9l.22,1.84h.11A4.74,4.74,0,0,1,30,19.63c2.71,0,4.77,1.84,4.77,5.85Z" transform="translate(-5 -5)"/></svg>