<svg id="Gruppe_9" data-name="Gruppe 9" xmlns="http://www.w3.org/2000/svg" width="30" height="30" viewBox="0 0 30 30">
  <path id="Pfad_7" data-name="Pfad 7" d="M135,0a15,15,0,1,0,15,15A15.044,15.044,0,0,0,135,0Zm-4.05,21.375h-3.225V10.8h3.225Zm-1.65-11.4A1.6,1.6,0,0,1,127.65,8.4a1.68,1.68,0,0,1,1.65-1.725,1.617,1.617,0,0,1,1.65,1.65A1.536,1.536,0,0,1,129.3,9.975Zm13.05,11.4h-3.225V15.75c0-1.275-.525-2.25-1.65-2.25-.9,0-1.275.75-1.575,1.275a2.812,2.812,0,0,0-.075.825v5.775H132.6V14.4c0-1.2-.075-2.25-.075-3.15h2.925l.15,1.35h.075a3.424,3.424,0,0,1,3.075-1.65c2.025,0,3.6,1.35,3.6,4.425Z" transform="translate(-120)" fill="#2843a2"/>
</svg>
