<svg xmlns="http://www.w3.org/2000/svg" width="157.5" height="23.177" viewBox="0 0 157.5 23.177">
  <g id="Gruppe_278" data-name="Gruppe 278" transform="translate(-17.423 -23.534)">
    <path id="Pfad_352" data-name="Pfad 352" d="M71.176,23.534H66.527L59.986,46.321h4.648Z" transform="translate(-35.223 0)" fill="#ffffff"/>
    <path id="Pfad_353" data-name="Pfad 353" d="M28.613,23.534H23.964L17.423,46.321h4.648Z" transform="translate(0 0)" fill="#ffffff"/>
    <path id="Pfad_354" data-name="Pfad 354" d="M149.009,65.931V57.552c0-3.217-1.5-4.788-4.227-4.788a4.047,4.047,0,0,0-4.115,3.965,3.95,3.95,0,0,0,3.965,4.19,8.083,8.083,0,0,0,2.88-.524v4.938a6.705,6.705,0,0,1-4.077,1.047,9.147,9.147,0,0,1-8.753-9.5c0-5.461,4.189-9.576,9.988-9.576,5.649,0,10.325,3.067,10.325,8.828v9.8Z" transform="translate(-97.037 -19.669)" fill="#ffffff"/>
    <path id="Pfad_355" data-name="Pfad 355" d="M276,60.3c0,1.571.786,2.544,2.058,2.544s2.057-.972,2.057-2.544v-10.4h5.76V60.3c0,4.713-2.73,8.23-7.818,8.23s-7.818-3.517-7.818-8.23v-10.4H276Z" transform="translate(-209.221 -21.823)" fill="#ffffff"/>
    <path id="Pfad_356" data-name="Pfad 356" d="M388.067,28.215v5.462H383.8V38.54c0,2.095.748,2.469,3.067,2.544.412,0,.861-.037,1.272-.075v5.536h-3.366c-4.564,0-6.734-3.067-6.734-6.509V23.876h5.8v4.339Z" transform="translate(-298.428 -0.283)" fill="#ffffff"/>
    <path id="Pfad_357" data-name="Pfad 357" d="M457.271,47.3a9.54,9.54,0,1,1-9.389,9.539A9.6,9.6,0,0,1,457.271,47.3Zm0,13.392a3.86,3.86,0,1,0-3.628-3.853A3.708,3.708,0,0,0,457.271,60.694Z" transform="translate(-356.224 -19.669)" fill="#ffffff"/>
    <path id="Pfad_358" data-name="Pfad 358" d="M582.616,65.931V55.158c0-1.122-.487-2.095-1.908-2.095s-1.908.972-1.908,2.095V65.931h-5.985V54.185c0-4.227,3.629-6.883,7.631-6.883a7.311,7.311,0,0,1,5.162,2.544,7.311,7.311,0,0,1,5.162-2.544c4,0,7.631,2.656,7.631,6.883V65.931h-5.985V55.158c0-1.122-.486-2.095-1.908-2.095s-1.908.972-1.908,2.095V65.931Z" transform="translate(-459.612 -19.669)" fill="#ffffff"/>
    <path id="Pfad_359" data-name="Pfad 359" d="M751.552,65.931V57.552c0-3.217-1.5-4.788-4.227-4.788a4.048,4.048,0,0,0-4.115,3.965,3.95,3.95,0,0,0,3.965,4.19,8.084,8.084,0,0,0,2.88-.524v4.938a6.706,6.706,0,0,1-4.077,1.047,9.147,9.147,0,0,1-8.753-9.5c0-5.461,4.19-9.576,9.988-9.576,5.649,0,10.325,3.067,10.325,8.828v9.8Z" transform="translate(-595.668 -19.669)" fill="#ffffff"/>
    <path id="Pfad_360" data-name="Pfad 360" d="M882.161,28.215v5.462H877.9V38.54c0,2.095.748,2.469,3.067,2.544.412,0,.861-.037,1.272-.075v5.536h-3.367c-4.564,0-6.734-3.067-6.734-6.509V23.876h5.8v4.339Z" transform="translate(-707.312 -0.283)" fill="#ffffff"/>
  </g>
</svg>
