<svg xmlns="http://www.w3.org/2000/svg" width="40.534" height="23.177" viewBox="0 0 40.534 23.177">
  <g id="Gruppe_278" data-name="Gruppe 278" transform="translate(-17.423 -23.534)">
    <path id="Pfad_352" data-name="Pfad 352" d="M71.176,23.534H66.527L59.986,46.321h4.648Z" transform="translate(-35.223 0)" fill="#f6f6f6"/>
    <path id="Pfad_353" data-name="Pfad 353" d="M28.613,23.534H23.964L17.423,46.321h4.648Z" transform="translate(0 0)" fill="#f6f6f6"/>
    <path id="Pfad_354" data-name="Pfad 354" d="M149.009,65.931V57.552c0-3.217-1.5-4.788-4.227-4.788a4.047,4.047,0,0,0-4.115,3.965,3.95,3.95,0,0,0,3.965,4.19,8.083,8.083,0,0,0,2.88-.524v4.938a6.705,6.705,0,0,1-4.077,1.047,9.147,9.147,0,0,1-8.753-9.5c0-5.461,4.189-9.576,9.988-9.576,5.649,0,10.325,3.067,10.325,8.828v9.8Z" transform="translate(-97.037 -19.669)" fill="#f6f6f6"/>
  </g>
</svg>
