<svg xmlns="http://www.w3.org/2000/svg" width="139.1" height="139.11" viewBox="0 0 139.1 139.11">
  <g id="Gruppe_394" data-name="Gruppe 394" transform="translate(-328.643 -23.163)">
    <path id="Pfad_435" data-name="Pfad 435" d="M467.743,92.723a69.547,69.547,0,0,1-114.31,53.23l-21.94,11.19,9.65-24.63a69.555,69.555,0,1,1,126.6-39.79Z" fill="#e65a1e"/>
    <g id="Gruppe_314" data-name="Gruppe 314">
      <path id="Pfad_436" data-name="Pfad 436" d="M369.961,111.17a.843.843,0,0,1-.929-.929v-5.625H353.291c-.62,0-.929-.31-.929-.878v-4.49a3.037,3.037,0,0,1,.257-1.136l12.026-23.174a1.054,1.054,0,0,1,1.033-.671h6.916c.722,0,.98.465.671,1.084L361.91,97.545h7.122l.671-6.607a.885.885,0,0,1,.981-.826H376.1c.62,0,.929.31.929.878v6.555h2.994a.789.789,0,0,1,.877.877v5.316a.79.79,0,0,1-.877.878h-2.994v5.625a.821.821,0,0,1-.929.929Z" fill="#f6f6f6"/>
      <path id="Pfad_437" data-name="Pfad 437" d="M398.245,111.841c-7.586,0-13.367-4.438-13.367-13.471V86.809c0-8.826,5.781-13.213,13.367-13.213s13.317,4.387,13.317,13.213V98.37C411.562,107.4,405.832,111.841,398.245,111.841Zm0-7.638c2.891,0,5.368-1.394,5.368-5.471V86.654c0-4.077-2.477-5.471-5.368-5.471s-5.367,1.394-5.367,5.471V98.732C392.878,102.809,395.355,104.2,398.245,104.2Z" fill="#f6f6f6"/>
      <path id="Pfad_438" data-name="Pfad 438" d="M433.084,111.17a.842.842,0,0,1-.929-.929v-5.625H416.413c-.619,0-.929-.31-.929-.878v-4.49a3.02,3.02,0,0,1,.258-1.136l12.026-23.174a1.053,1.053,0,0,1,1.032-.671h6.917c.722,0,.98.465.67,1.084L425.033,97.545h7.122l.671-6.607a.885.885,0,0,1,.981-.826h5.419c.62,0,.929.31.929.878v6.555h2.994a.789.789,0,0,1,.877.877v5.316a.79.79,0,0,1-.877.878h-2.994v5.625a.821.821,0,0,1-.929.929Z" fill="#f6f6f6"/>
    </g>
  </g>
</svg>
