<svg id="facebook" xmlns="http://www.w3.org/2000/svg" viewBox="0 0 40 40"><defs><style>.cls-1{fill:#fff;}</style></defs><title>stackshare_white</title><path class="cls-1" d="M32.92,20.34A1.43,1.43,0,1,0,31.5,18.9h0A1.43,1.43,0,0,0,32.92,20.34Z" transform="translate(-5 -5)"/><path class="cls-1" d="M15.08,23.46A1.43,1.43,0,1,0,16.5,24.9v0A1.44,1.44,0,0,0,15.08,23.46Z" transform="translate(-5 -5)"/><path class="cls-1" d="M25,5A20,20,0,1,0,45,25,20,20,0,0,0,25,5Zm1.21,24.83h3.91a3.08,3.08,0,1,1,.06,2.64H25.26a1.31,1.31,0,0,1-1.25-.9l-1.77-5.26H17.8a3.08,3.08,0,1,1,.1-2.63h4.36L24,18.41a1.35,1.35,0,0,1,1.25-.89h4.9a3.08,3.08,0,1,1-.07,2.63H26.23L24.67,25Z" transform="translate(-5 -5)"/><path class="cls-1" d="M32.92,32.52a1.43,1.43,0,1,0-1.42-1.44h0A1.43,1.43,0,0,0,32.92,32.52Z" transform="translate(-5 -5)"/></svg>