<svg id="facebook" xmlns="http://www.w3.org/2000/svg" viewBox="0 0 40 40"><defs><style>.cls-1{fill:#142252;}</style></defs><title>twitter_blue_hover</title><path class="cls-1" d="M25,5A20,20,0,1,0,45,25,20,20,0,0,0,25,5Zm8.74,15.53v.58A12.88,12.88,0,0,1,13.92,32,9.73,9.73,0,0,0,15,32a9.13,9.13,0,0,0,5.63-1.94A4.52,4.52,0,0,1,16.4,27a5,5,0,0,0,2-.08,4.54,4.54,0,0,1-3.63-4.45v0a4.53,4.53,0,0,0,2,.57,4.55,4.55,0,0,1-1.4-6,12.86,12.86,0,0,0,9.34,4.73,4.21,4.21,0,0,1-.12-1,4.53,4.53,0,0,1,7.83-3.1,9,9,0,0,0,2.88-1.1,4.57,4.57,0,0,1-2,2.51,9.06,9.06,0,0,0,2.6-.72A9.32,9.32,0,0,1,33.74,20.53Z" transform="translate(-5 -5)"/></svg>