<svg id="Gruppe_7" data-name="Gruppe 7" xmlns="http://www.w3.org/2000/svg" width="30" height="30" viewBox="0 0 30 30">
  <path id="Pfad_5" data-name="Pfad 5" d="M15,0A15,15,0,1,0,30,15,15.044,15.044,0,0,0,15,0Zm6.525,11.625v.45A9.625,9.625,0,0,1,11.85,21.75a9.309,9.309,0,0,1-5.175-1.5H7.5a6.761,6.761,0,0,0,4.2-1.425A3.241,3.241,0,0,1,8.55,16.5h.675a3.765,3.765,0,0,0,.9-.15,3.311,3.311,0,0,1-2.7-3.3v-.075A4.847,4.847,0,0,0,9,13.425a3.413,3.413,0,0,1-1.5-2.85A3.484,3.484,0,0,1,7.95,8.85a9.742,9.742,0,0,0,6.975,3.525,2.551,2.551,0,0,1-.075-.75A3.361,3.361,0,0,1,18.225,8.25,3.28,3.28,0,0,1,20.7,9.3a7.656,7.656,0,0,0,2.175-.825,3.391,3.391,0,0,1-1.5,1.875,8.3,8.3,0,0,0,1.95-.525A6.841,6.841,0,0,1,21.525,11.625Z" fill="#142252"/>
</svg>
